<?xml version="1.0" standalone="no"?>
<!DOCTYPE svg PUBLIC "-//W3C//DTD SVG 1.1//EN" "http://www.w3.org/Graphics/SVG/1.1/DTD/svg11.dtd" >
<svg xmlns="http://www.w3.org/2000/svg" xmlns:xlink="http://www.w3.org/1999/xlink" version="1.1">
<metadata>
Created by FontForge 20200314 at Mon Apr 30 17:11:16 2007
 By Unknown
(c) COPYRIGHT H. BERTHOLD AG 1992 Alle Rechte vorbehalten.
</metadata>
<defs>
<font id="CooperBlackBQ-CondensedRegular" horiz-adv-x="292" >
  <font-face 
    font-family="Cooper Black BQ"
    font-weight="500"
    font-stretch="normal"
    units-per-em="1000"
    panose-1="0 0 0 0 0 0 0 0 0 0"
    ascent="800"
    descent="-200"
    x-height="511"
    cap-height="697"
    bbox="-206.354 -262 1037 925"
    underline-thickness="50"
    underline-position="-125"
    stemh="127"
    stemv="204"
    unicode-range="U+0020-FB02"
  />
<missing-glyph 
 />
    <glyph glyph-name=".notdef" 
 />
    <glyph glyph-name="space" unicode=" " 
 />
    <glyph glyph-name="exclam" unicode="!" 
d="M44 549c1 20 2 80 50 118c28 23 57 25 72 25c12 0 39 -2 64 -22c40 -32 51 -76 51 -125c0 -38 -7 -139 -64 -233c-13 -20 -30 -45 -54 -45c-17 0 -30 12 -50 43c-14 21 -29 54 -38 78c-19 51 -32 106 -31 161zM59 126c6 57 42 106 104 106c8 0 19 0 35 -7
c28 -11 68 -42 68 -113c0 -62 -40 -115 -103 -115c-20 0 -36 4 -53 15c-21 14 -57 50 -51 114z" />
    <glyph glyph-name="quotedbl" unicode="&#x22;" horiz-adv-x="396" 
d="M319 408h-31l-55 250c-3 23 -3 31 0 42c5 21 27 49 74 49c28 0 57 -15 65 -47c3 -12 1 -20 0 -32zM111 408h-32l-54 250c-1 4 -5 26 0 43c8 32 44 48 73 48s57 -15 65 -46c2 -8 2 -17 1 -33z" />
    <glyph glyph-name="numbersign" unicode="#" horiz-adv-x="583" 
d="M559 186h-116l-26 -186h-126l27 186h-99l-27 -186h-123l25 186h-94v124h112l13 95h-100v124h117l25 176h124l-24 -176h99l24 176h125l-24 -176h92v-124h-109l-13 -95h98v-124zM335 310l13 95h-98l-14 -95h99z" />
    <glyph glyph-name="dollar" unicode="$" horiz-adv-x="458" 
d="M165 590c22 14 25 21 26 48c7 26 13 29 43 31c2 0 13 2 20 2c29 -1 27 -28 27 -36c2 -27 7 -31 36 -35c37 -12 82 -27 103 -64c9 -15 10 -28 10 -35c0 -12 -3 -21 -5 -25c-8 -24 -30 -46 -56 -46c-5 0 -17 1 -28 8c-18 12 -29 34 -45 50c-21 21 -45 27 -57 27
c-27 0 -46 -22 -47 -48c1 -16 7 -26 10 -31c14 -19 47 -29 69 -38c12 -4 63 -21 103 -52c21 -18 76 -69 76 -152c0 -63 -31 -124 -84 -157c-23 -14 -47 -21 -56 -24c-25 -8 -29 -13 -31 -37c-1 -34 -7 -38 -41 -46c-5 -1 -11 -2 -20 -2c-25 2 -26 28 -27 35c0 9 -1 17 -3 24
c-5 15 -15 21 -45 25c-98 27 -118 44 -118 107c0 33 5 46 17 55c3 4 13 11 26 11c3 -1 10 -1 17 -5c22 -13 27 -38 41 -58c7 -10 25 -36 60 -36c11 0 49 5 49 44c0 22 -11 39 -48 61c-30 17 -62 29 -89 49c-47 34 -76 88 -76 147c0 33 10 109 80 165c25 21 53 34 63 38z" />
    <glyph glyph-name="percent" unicode="%" horiz-adv-x="750" 
d="M13 403c0 23 0 111 65 166c12 10 39 30 80 31c36 -1 61 -15 71 -22c32 -22 67 -66 67 -153c-1 -64 -16 -138 -66 -182c-30 -26 -60 -29 -77 -29c-34 0 -69 14 -91 38c-36 37 -49 101 -49 151zM126 397c1 -14 2 -28 4 -42c0 -2 1 -19 4 -29c1 -4 8 -20 22 -20
c5 0 14 3 19 14s7 34 7 63c0 27 -2 81 -10 104c-6 15 -12 19 -18 19c-3 0 -13 -3 -18 -11c-9 -14 -11 -83 -10 -98zM379 375l141 252c9 12 11 19 40 19c21 1 33 -3 32 -13c0 -4 -2 -10 -4 -15l-152 -271l-187 -335c-13 -21 -19 -24 -43 -25c-12 0 -24 -1 -29 8
c-1 1 -3 5 -2 10c0 6 2 10 5 16zM450 191c0 9 2 38 10 66c17 62 66 122 135 122c10 0 30 -1 54 -12c39 -18 82 -67 82 -164c0 -16 0 -63 -18 -111c-30 -83 -92 -100 -128 -100c-27 0 -50 8 -71 24c-67 52 -64 158 -64 175zM563 182c0 -16 0 -32 2 -47c1 -4 2 -25 12 -40
c7 -9 11 -10 16 -10s16 4 21 18c5 15 5 39 5 55c0 40 -5 86 -7 95c-3 12 -10 31 -21 31c-10 0 -18 -10 -19 -12c-7 -12 -10 -48 -9 -90z" />
    <glyph glyph-name="ampersand" unicode="&#x26;" horiz-adv-x="812" 
d="M13 263c1 89 50 127 82 144c11 6 27 14 27 25c0 5 -3 9 -4 11c-4 9 -11 19 -16 29c-8 18 -11 35 -11 55c0 12 0 32 11 58c31 82 128 124 213 124c16 0 93 -3 141 -47c8 -7 27 -25 27 -56c0 -33 -24 -61 -59 -61c-21 0 -32 11 -50 22c-5 4 -22 14 -43 14
c-46 0 -49 -43 -49 -55c0 -13 4 -25 6 -29c9 -20 30 -18 52 -26c6 -2 15 -6 23 -18c7 -11 7 -21 7 -26s0 -11 -4 -20c-5 -11 -27 -44 -65 -49c-11 -2 -20 -1 -29 -5c-18 -9 -17 -40 -17 -42c0 -30 7 -53 10 -63c22 -70 73 -126 148 -126c16 0 54 4 90 33c5 4 34 30 34 63
c0 25 -23 46 -48 46c-27 0 -40 -29 -59 -44c-4 -3 -15 -11 -30 -11c-29 0 -44 35 -44 59c0 26 16 68 28 88c17 29 42 52 71 68c33 19 93 38 128 50c8 3 34 10 34 40c0 7 -2 11 -3 13c-6 9 -23 7 -35 13c-5 2 -17 9 -17 23c0 5 2 15 11 27c13 19 42 43 98 43
c10 0 39 -1 65 -13c46 -21 73 -69 73 -119c0 -64 -44 -124 -104 -147c-10 -4 -22 -8 -31 -15c-5 -4 -8 -7 -8 -12c0 -12 17 -24 32 -44c8 -11 19 -30 19 -65c0 -56 -33 -105 -74 -142c-42 -38 -123 -89 -260 -89c-40 0 -172 3 -276 88c-29 24 -54 53 -70 87
c-8 16 -24 53 -24 101z" />
    <glyph glyph-name="quoteright" unicode="&#x2019;" horiz-adv-x="250" 
d="M10 599c0 8 3 31 14 53c8 16 37 56 93 56c10 0 34 -1 55 -16c25 -17 55 -56 55 -127c0 -37 -9 -107 -54 -184c-24 -42 -44 -64 -64 -71c-10 -4 -15 -4 -37 -4c-17 0 -31 1 -41 15c-2 3 -5 8 -5 15c0 14 16 27 26 41c11 15 34 54 34 75c0 7 -3 12 -8 17
c-12 11 -23 11 -40 34c-10 14 -31 48 -28 96z" />
    <glyph glyph-name="parenleft" unicode="(" horiz-adv-x="479" 
d="M66 278c1 27 5 132 36 221c18 49 39 82 52 99c9 12 28 38 59 60c25 17 79 48 159 48c18 0 37 -2 43 -3c18 -3 34 -8 43 -25c2 -4 6 -13 6 -25c0 -14 -5 -41 -41 -41c-8 0 -17 1 -25 2c-10 0 -26 0 -46 -15c-32 -24 -46 -67 -56 -102c-13 -45 -26 -115 -26 -227
c0 -135 18 -223 40 -274c20 -47 41 -68 62 -76c10 -3 18 -4 30 -4c21 0 41 2 52 -12c4 -4 10 -14 10 -29c0 -3 -1 -14 -6 -23c-10 -18 -30 -29 -74 -29c-40 0 -133 14 -207 96c-49 56 -115 175 -111 359z" />
    <glyph glyph-name="parenright" unicode=")" horiz-adv-x="479" 
d="M13 -106c2 6 12 24 32 24c10 0 20 -3 30 -3c38 0 78 33 101 109c11 38 30 135 30 247c0 24 -1 141 -30 231c-7 22 -15 41 -28 62c-26 41 -47 50 -70 50s-42 -4 -59 14c-9 9 -10 20 -10 24c0 13 7 23 9 28c17 24 42 26 70 26c53 0 154 -14 232 -126
c42 -59 87 -156 87 -322c0 -11 0 -21 -1 -31c-4 -120 -30 -247 -119 -333c-69 -66 -144 -71 -181 -71c-15 0 -32 2 -37 2c-33 4 -60 13 -60 50c0 3 0 11 4 19z" />
    <glyph glyph-name="asterisk" unicode="*" horiz-adv-x="271" 
d="M58 655l37 -15v45c4 16 7 25 38 26h20c22 -4 25 -7 29 -29l-5 -37l30 13c2 0 9 3 15 3c9 0 13 -4 21 -21l12 -31c5 -18 5 -28 -16 -33l-39 -10l29 -27c6 -7 11 -13 11 -21c0 -6 -2 -11 -10 -22l-18 -18c-13 -9 -20 -12 -25 -12c-11 0 -22 12 -28 20l-26 31l-18 -32
c-1 -3 -8 -22 -23 -22c-6 0 -8 1 -19 6c-12 7 -18 11 -28 20c-2 2 -16 13 -16 22c0 6 5 16 6 17l28 32l-42 14c-8 5 -15 10 -15 19c0 6 4 16 4 17l8 24c10 24 15 26 40 21z" />
    <glyph glyph-name="plus" unicode="+" horiz-adv-x="500" 
d="M467 228h-154v-156h-127v156h-153v128h153v154h127v-154h154v-128z" />
    <glyph glyph-name="comma" unicode="," horiz-adv-x="250" 
d="M9 130c9 85 76 101 107 101c10 0 36 -1 58 -18c23 -17 52 -58 52 -127c0 -85 -43 -167 -53 -186c-24 -41 -43 -60 -63 -67c-11 -4 -29 -4 -41 -4c-9 0 -11 0 -19 2c-18 7 -22 24 -22 29c0 12 11 23 21 35c13 17 22 38 25 42c9 19 12 26 12 37c-1 18 -15 23 -29 32
c-9 7 -16 13 -22 22c-11 15 -31 50 -26 102z" />
    <glyph glyph-name="hyphen" unicode="-" horiz-adv-x="271" 
d="M89 353c24 -1 48 -3 72 -3c23 0 47 2 70 4c4 -1 8 -2 11 -3c9 -5 15 -19 15 -40c0 -16 -3 -59 -26 -99c-2 -4 -15 -29 -34 -37c-6 -2 -13 -3 -19 -3c-66 7 -83 8 -150 5c-6 2 -8 3 -11 4c-5 4 -9 13 -9 28c0 6 1 11 3 24c7 35 13 50 27 83c11 28 21 32 51 37z" />
    <glyph glyph-name="period" unicode="." horiz-adv-x="250" 
d="M20 122c5 90 69 110 103 110c20 0 34 -6 41 -9c58 -27 62 -87 62 -107c0 -16 -3 -77 -51 -105c-6 -4 -27 -14 -52 -14c-7 0 -22 1 -37 7c-27 11 -70 43 -66 118z" />
    <glyph glyph-name="slash" unicode="/" horiz-adv-x="500" 
d="M378 584c18 37 27 42 68 49c31 4 43 0 43 -17c0 -6 -2 -12 -8 -23c-32 -45 -63 -91 -94 -137c-25 -38 -51 -77 -76 -116c-28 -44 -56 -88 -83 -132c-28 -46 -55 -92 -82 -139c-26 -49 -37 -56 -91 -66c-5 -2 -11 -4 -23 -4c-20 0 -25 9 -25 17c0 11 6 17 14 25
c38 50 76 99 112 150c34 50 67 100 100 151c26 40 52 80 76 121c24 40 46 80 69 121z" />
    <glyph glyph-name="zero" unicode="0" horiz-adv-x="479" 
d="M14 292c1 99 25 182 95 252c39 37 82 59 136 59c17 0 62 -3 103 -29c51 -33 112 -110 112 -253c0 -93 -25 -210 -94 -277c-18 -17 -64 -56 -137 -56c-34 0 -89 8 -141 68c-56 66 -75 151 -74 236zM197 288c1 -21 6 -96 11 -115c1 -2 11 -35 30 -36c13 1 26 14 31 26
c6 14 8 38 8 75c0 20 0 96 -12 163c-3 22 -12 52 -30 52c-11 0 -23 -14 -29 -39c-4 -16 -11 -71 -9 -126z" />
    <glyph glyph-name="one" unicode="1" horiz-adv-x="479" 
d="M346 337v-70c1 -31 1 -62 4 -91c3 -31 6 -45 18 -55c14 -12 26 -11 42 -17c15 -5 23 -17 23 -35c0 -17 -8 -26 -12 -30c-21 -21 -97 -41 -181 -41c-70 0 -124 13 -149 23c-7 2 -35 13 -35 43c0 11 6 28 34 33c15 3 25 2 35 13c16 18 15 43 17 64c3 40 4 80 5 120
c0 28 -1 55 -3 82s-3 35 -13 45c-17 17 -31 10 -52 18c-6 3 -17 11 -17 33c0 16 8 28 18 39c20 19 38 33 46 38c46 28 145 58 201 58c32 0 74 -8 74 -45c0 -5 -1 -14 -8 -25c-8 -12 -26 -22 -37 -53c-9 -28 -8 -77 -10 -147z" />
    <glyph glyph-name="two" unicode="2" horiz-adv-x="479" 
d="M294 4l-209 -4c-12 0 -22 1 -27 1c-6 2 -39 10 -39 40c0 23 20 42 23 46c18 24 36 48 53 72c28 43 90 149 90 204c0 6 1 26 -17 37c-8 5 -15 6 -18 6c-11 0 -19 -6 -37 -25c-20 -21 -28 -25 -44 -25c-34 1 -56 33 -56 66c0 16 5 30 7 35c18 52 68 87 80 96
c43 31 84 49 139 49c49 0 105 -18 138 -53c17 -17 43 -56 43 -116c0 -13 -2 -41 -13 -74c-19 -58 -53 -98 -90 -141c-10 -13 -12 -18 -12 -25c0 -11 11 -20 23 -20c6 0 15 2 16 2c25 6 25 13 43 30c9 9 16 10 21 10c6 0 14 -2 20 -6c17 -10 26 -33 26 -74
c0 -26 -5 -70 -30 -125c-10 -23 -22 -47 -52 -46c-3 0 -11 0 -17 4c-11 7 -17 22 -27 30c-6 5 -15 7 -34 6z" />
    <glyph glyph-name="three" unicode="3" horiz-adv-x="479" 
d="M-5 19c8 20 31 34 52 34c15 0 44 -11 45 -11c6 -2 19 -5 35 -5c17 0 28 4 34 6c33 14 54 48 54 85c0 10 -2 50 -33 67c-14 8 -34 9 -38 9c-1 0 -25 -1 -38 3c-21 7 -38 29 -38 50c0 20 13 37 17 42c13 15 15 13 39 31c6 5 8 5 17 15c16 18 28 41 28 65
c0 39 -35 51 -48 51s-21 -8 -33 -13c-7 -3 -16 -6 -23 -6c-23 1 -42 21 -42 43c0 23 18 46 21 50c52 68 141 69 165 69c106 0 164 -53 179 -97c3 -7 7 -18 7 -38c0 -39 -18 -68 -26 -79c-13 -17 -38 -34 -38 -52c0 -10 13 -15 24 -19c24 -10 33 -18 43 -27
c18 -18 44 -53 44 -115c0 -46 -15 -101 -36 -139c-13 -22 -28 -40 -47 -57c-29 -26 -91 -67 -190 -67c-15 0 -93 0 -146 36c-8 6 -31 22 -31 52c0 4 0 9 3 17z" />
    <glyph glyph-name="four" unicode="4" horiz-adv-x="479" 
d="M448 109v-38c-3 -38 -2 -49 -21 -62c-13 -10 -20 -8 -23 -37v-45c0 -10 -1 -19 -2 -23c-6 -24 -24 -27 -47 -29h-47c-32 2 -55 3 -68 8c-27 10 -23 42 -23 48v30c-3 32 -16 32 -33 32h-97c-42 0 -60 5 -72 24c-8 13 -9 33 -10 37v24c1 9 2 33 10 58c13 41 49 100 100 190
c67 119 97 166 141 219c8 10 16 21 25 31c26 29 45 29 64 30c17 -1 20 -1 29 -4c10 -4 26 -16 26 -45c0 -13 -1 -26 -1 -39c0 -30 -1 -60 -1 -91c0 -71 0 -142 -1 -213c0 -11 -1 -24 4 -33c8 -13 29 -17 38 -29c7 -11 8 -30 9 -43zM190 301l-55 -89c-6 -10 -13 -23 -13 -37
c0 -2 0 -7 4 -11c9 -8 31 -9 42 -9c14 0 21 2 26 4c30 13 30 67 31 95c-1 15 -1 29 -3 43c-2 16 -6 22 -14 22c-9 0 -13 -8 -18 -18z" />
    <glyph glyph-name="five" unicode="5" horiz-adv-x="479" 
d="M168 588l137 5c22 1 44 2 64 4c13 2 32 6 47 6c26 -1 32 -20 32 -31c0 -5 -1 -11 -2 -17c0 -5 -1 -11 -2 -17c-5 -42 -8 -52 -15 -76c-17 -39 -27 -44 -70 -45h-132c-4 0 -15 0 -25 -5c-16 -7 -20 -25 -22 -41c4 -16 7 -19 24 -25c8 -2 62 -9 100 -23
c83 -29 136 -94 136 -182c0 -75 -41 -131 -56 -151c-72 -93 -170 -101 -212 -101c-27 0 -54 4 -81 12c-4 1 -23 5 -34 17c-5 5 -16 22 -16 46c0 6 1 41 31 41c9 0 17 -4 26 -6c3 -1 10 -2 20 -2c15 0 53 2 77 36c10 13 14 26 14 41s-5 43 -35 69c-20 17 -43 25 -94 39
c-35 12 -39 19 -40 56c19 139 29 179 69 313c16 32 23 36 59 37z" />
    <glyph glyph-name="six" unicode="6" horiz-adv-x="479" 
d="M189 665c11 7 20 13 32 13c7 -1 14 -2 27 -6c22 -9 31 -15 52 -29c11 -10 22 -20 22 -35c0 -9 -4 -15 -10 -23c-41 -56 -47 -71 -63 -137c20 6 37 11 59 11s43 -5 62 -16c36 -20 83 -69 83 -166c0 -12 -1 -29 -5 -55c-4 -18 -21 -96 -63 -150c-55 -72 -134 -83 -165 -83
c-54 1 -93 22 -130 63c-23 27 -44 54 -56 124c-3 17 -7 47 -7 88c0 15 0 38 5 72c4 29 26 172 103 274c14 19 23 28 54 55zM206 236c0 -19 1 -26 3 -35c6 -43 21 -70 41 -70c14 0 22 20 26 35c2 6 7 36 7 65c0 16 -1 34 -13 63c-2 4 -10 27 -30 27c-19 -1 -24 -19 -25 -23
c-3 -8 -8 -36 -9 -62z" />
    <glyph glyph-name="seven" unicode="7" horiz-adv-x="479" 
d="M400 591h14c6 -1 52 -2 52 -41c0 -6 -2 -13 -3 -20c-14 -39 -28 -79 -40 -118c-15 -46 -29 -92 -43 -139c-18 -55 -37 -110 -52 -166c-14 -52 -24 -106 -35 -159c-5 -39 -14 -78 -62 -78c-11 0 -23 2 -44 10c-49 17 -67 32 -67 61c0 11 1 17 9 35c26 60 53 119 78 179
c22 53 43 106 63 159c2 4 10 23 10 42c0 34 -39 35 -66 35c-41 0 -62 -6 -78 -18c-11 -9 -20 -21 -31 -28c-9 -7 -17 -8 -22 -8c-2 0 -13 2 -22 7c-33 21 -29 82 -29 83c0 49 10 108 31 151c16 33 37 43 54 42c16 0 27 -12 42 -20c12 -7 22 -7 37 -8c32 -2 65 -4 98 -4
c35 0 71 2 106 3z" />
    <glyph glyph-name="eight" unicode="8" horiz-adv-x="479" 
d="M76 332c-31 47 -54 86 -54 143c0 28 5 82 55 133c45 48 109 73 174 73c103 -1 154 -54 175 -88c23 -35 25 -67 25 -84c0 -9 0 -22 -6 -42c-11 -39 -36 -62 -64 -90c10 -7 24 -19 32 -28c19 -19 46 -58 46 -124c0 -27 -6 -101 -58 -161c-60 -68 -147 -75 -176 -75
c-15 0 -47 1 -83 15c-76 30 -131 104 -131 188c0 63 26 96 65 140zM238 226l-54 27c-4 -6 -14 -16 -14 -35c0 -35 29 -79 65 -79c23 0 42 18 42 42c-1 29 -34 43 -39 45zM254 454c7 9 22 24 22 54c0 42 -26 54 -42 54c-21 0 -34 -18 -34 -37c0 -12 5 -36 28 -55
c10 -8 23 -14 26 -16z" />
    <glyph glyph-name="nine" unicode="9" horiz-adv-x="479" 
d="M243 -98c-5 -5 -20 -21 -43 -21c-18 1 -33 10 -51 21c-17 12 -38 26 -38 48c0 15 8 23 18 34c36 40 42 49 64 97c1 4 6 13 6 24c0 15 -9 16 -32 15c-37 1 -59 3 -87 27c-37 31 -51 78 -58 125c-4 27 -4 52 -4 61c0 20 1 73 21 125c36 92 120 144 219 145
c12 0 39 -1 70 -12c56 -22 100 -73 117 -131c9 -32 9 -61 9 -73c0 -70 -18 -192 -102 -340c-4 -7 -32 -57 -57 -89c-18 -23 -31 -36 -52 -56zM193 396c-2 -34 5 -71 7 -80c3 -13 5 -26 11 -36c9 -14 21 -17 27 -17c18 0 31 35 31 74c0 17 -2 35 -9 67c-1 0 -4 21 -11 31
c-2 4 -13 17 -26 17c-15 0 -28 -24 -30 -56z" />
    <glyph glyph-name="colon" unicode=":" 
d="M61 128c3 29 12 46 18 56c26 42 66 48 86 48c15 0 27 -3 41 -10c40 -19 61 -61 61 -107c0 -62 -38 -119 -102 -119c-7 0 -27 2 -47 13c-45 24 -63 71 -57 119zM63 419c6 53 42 103 100 103c7 0 23 -1 41 -9c22 -10 65 -41 65 -107c0 -8 -1 -26 -7 -45
c-15 -44 -50 -76 -98 -76c-24 0 -39 8 -47 13c-42 25 -59 74 -54 121z" />
    <glyph glyph-name="semicolon" unicode=";" 
d="M49 128c1 8 3 27 13 47c26 50 77 57 96 57c79 0 112 -82 112 -150c0 -17 0 -36 -9 -70c-10 -42 -48 -154 -95 -177c-9 -5 -24 -7 -51 -7c-4 0 -8 -1 -15 2c-13 4 -23 16 -23 28c0 11 9 21 18 33c3 3 6 8 9 12c19 29 26 57 26 71c-1 26 -26 20 -51 52
c-12 15 -35 50 -30 102zM58 417c0 6 2 28 11 47c17 37 52 59 91 59c7 0 21 -1 37 -8c23 -9 68 -40 68 -109c0 -63 -38 -120 -105 -120c-9 0 -27 1 -46 12c-43 24 -59 72 -56 119z" />
    <glyph glyph-name="less" unicode="&#x3c;" horiz-adv-x="500" 
d="M500 69l-499 220v124l499 225v-139l-328 -148l328 -144v-138z" />
    <glyph glyph-name="equal" unicode="=" horiz-adv-x="500" 
d="M500 123h-500v127h500v-127zM500 331h-500v127h500v-127z" />
    <glyph glyph-name="greater" unicode="&#x3e;" horiz-adv-x="500" 
d="M0 69v138l329 144l-329 148v139l500 -225v-124z" />
    <glyph glyph-name="question" unicode="?" horiz-adv-x="458" 
d="M40 535c2 23 14 64 60 103c24 20 79 57 163 58c31 0 114 -4 162 -86c8 -13 24 -44 24 -84c0 -24 -6 -71 -54 -111c-34 -29 -68 -45 -82 -86c-5 -15 -8 -33 -16 -43c-5 -8 -19 -20 -47 -20c-23 0 -67 9 -67 67c0 46 28 82 48 119c6 12 26 47 26 92c0 3 0 13 -4 22
c-4 7 -14 15 -23 14c-8 0 -20 -9 -20 -30c1 -21 4 -24 0 -46c-7 -42 -42 -73 -85 -73c-59 0 -90 48 -85 104zM129 122c3 40 22 76 56 94c7 4 26 12 49 12c7 0 25 -1 44 -10c52 -25 55 -82 55 -100c0 -9 -1 -27 -8 -46c-6 -19 -30 -75 -94 -75c-10 0 -30 2 -51 14
c-55 31 -53 91 -51 111z" />
    <glyph glyph-name="at" unicode="@" horiz-adv-x="896" 
d="M583 465l9 41h84l-42 -196c-5 -23 -10 -45 -15 -68c-4 -19 -7 -38 -10 -58c-2 -8 -3 -18 -3 -20c0 -3 -1 -15 11 -20c3 -2 6 -2 9 -2c13 0 36 12 57 37c24 29 67 105 67 201c0 25 -3 114 -66 183c-27 29 -87 80 -182 80c-44 0 -159 -13 -246 -134
c-29 -39 -87 -141 -87 -268c0 -19 1 -71 25 -126c33 -75 118 -167 285 -167c118 0 208 52 245 79c25 17 40 32 62 53l42 -55c-11 -12 -23 -23 -36 -34c-56 -48 -165 -115 -326 -115c-34 0 -145 0 -247 67c-65 43 -94 92 -109 120c-17 33 -43 94 -43 179
c0 123 53 270 161 365c21 19 43 33 52 39c39 24 116 66 222 66c32 0 127 -2 211 -73c50 -43 113 -125 113 -263c0 -132 -67 -220 -105 -258c-46 -44 -89 -55 -114 -55c-7 0 -22 1 -40 8c-39 16 -48 48 -53 61c-6 -8 -12 -15 -19 -22c-13 -13 -48 -42 -96 -42
c-12 0 -44 1 -76 24c-30 22 -67 72 -67 153c0 23 2 86 36 150c39 73 112 137 191 137c11 0 53 0 82 -37c6 -6 10 -14 18 -30zM547 401c-1 8 0 38 -26 58c-12 9 -22 10 -28 10c-23 0 -42 -19 -46 -23c-47 -48 -81 -167 -81 -228c0 -2 -1 -34 10 -52c5 -9 17 -24 40 -24
c50 1 84 69 96 101c3 8 37 97 35 158z" />
    <glyph glyph-name="A" unicode="A" horiz-adv-x="729" 
d="M115 253c21 53 42 106 62 159c13 33 25 65 37 98c8 27 15 53 15 80c0 11 0 15 -2 26c-1 10 -4 20 -4 30s2 17 8 25c20 28 64 39 95 39s54 -10 64 -15c44 -23 63 -65 81 -107c23 -56 45 -113 66 -171c16 -42 31 -86 47 -128c13 -34 28 -67 42 -101c26 -58 37 -58 70 -79
c19 -11 31 -23 31 -47c0 -8 -2 -22 -14 -36c-24 -29 -68 -28 -106 -30c-23 0 -45 -1 -68 -1c-30 0 -59 1 -89 4c-2 0 -34 2 -51 10c-18 9 -31 31 -31 51c0 23 16 35 22 39c4 3 19 12 19 30c0 20 -29 25 -30 25c-18 4 -37 4 -74 6c-42 0 -64 0 -81 -12c-9 -6 -11 -15 -11 -19
s2 -16 12 -23c5 -4 14 -6 23 -17c4 -5 11 -13 11 -30s-7 -44 -44 -54c-22 -6 -62 -8 -83 -8c-1 0 -68 0 -99 14c-20 9 -35 26 -35 49c0 32 24 48 32 53c17 11 22 14 29 22c5 7 9 16 18 32c5 11 11 22 16 33c8 17 15 35 22 53zM311 275c15 0 35 -1 49 9c6 4 7 9 7 12
c0 6 -6 19 -11 34c-3 7 -5 14 -8 21c-4 8 -9 17 -13 25c-1 2 -7 17 -15 25c-4 3 -7 4 -9 4s-7 -2 -13 -9c-10 -14 -14 -25 -25 -55c-4 -13 -11 -27 -11 -39c0 -7 2 -11 3 -13c10 -15 27 -15 46 -14z" />
    <glyph glyph-name="B" unicode="B" horiz-adv-x="667" 
d="M72 263v259c-2 32 -5 49 -16 60c-9 8 -17 9 -28 16c-10 5 -17 12 -22 22c-1 2 -5 12 -5 22c0 16 8 26 11 31c17 23 40 26 66 28l86 -5h117l113 4c57 -2 104 -4 149 -40c8 -6 22 -17 36 -38c25 -37 28 -75 28 -92c0 -8 -1 -27 -8 -48c-12 -35 -34 -55 -63 -81
c-7 -9 -9 -12 -9 -17s3 -8 15 -16c14 -6 30 -15 42 -23c23 -18 62 -61 62 -137c0 -89 -57 -169 -139 -197c-31 -11 -57 -12 -89 -14l-106 5h-126l-124 -5c-25 1 -45 3 -57 25c-2 5 -7 16 -7 32s7 32 18 40c15 12 27 11 39 25c10 12 10 30 12 46c3 32 4 65 5 98zM290 222
c1 -21 2 -42 2 -64c1 -12 0 -25 5 -36c6 -14 21 -20 36 -20c18 0 32 9 37 12c27 21 28 53 29 87c0 39 -1 71 -33 92c-6 5 -22 14 -44 14c-11 0 -16 -3 -19 -6c-14 -12 -11 -32 -12 -49c0 -10 -1 -20 -1 -30zM290 536v-39c0 -13 1 -25 1 -38c1 -23 1 -48 30 -48
c16 0 26 8 30 12c29 23 30 57 31 92c-1 25 -4 49 -25 66c-4 3 -15 11 -32 11c-3 0 -13 0 -21 -5c-14 -7 -13 -20 -14 -51z" />
    <glyph glyph-name="C" unicode="C" horiz-adv-x="646" 
d="M425 165h9c70 5 105 50 122 70c13 11 18 13 28 13c3 0 10 -1 19 -5c20 -10 27 -35 27 -56c0 -29 -15 -64 -18 -70c-5 -13 -10 -24 -19 -33c-6 -5 -12 -9 -27 -15c-12 0 -14 -1 -23 -9c-14 -10 -28 -19 -43 -28c-49 -30 -94 -44 -153 -44c-56 0 -100 15 -119 21
c-144 54 -214 194 -214 337c0 78 23 171 71 234c60 78 160 128 257 128c53 0 91 -14 137 -31c21 -8 27 -10 39 -12c4 -1 10 -1 20 0c27 -2 37 -4 54 -26c34 -45 38 -104 38 -121c0 -6 0 -19 -5 -33c-11 -35 -43 -56 -78 -56c-41 0 -52 20 -61 35c-7 9 -32 55 -75 78
c-15 7 -35 13 -51 13c-12 0 -49 -4 -71 -34c-5 -7 -7 -12 -9 -15c-5 -13 -21 -63 -21 -110c0 -20 2 -35 4 -43c5 -38 22 -94 43 -125c14 -21 52 -63 119 -63z" />
    <glyph glyph-name="D" unicode="D" horiz-adv-x="688" 
d="M69 190l3 60v151c-2 41 -3 81 -3 121c-1 19 1 46 -15 60c-7 7 -20 7 -30 11c-23 10 -26 36 -26 44c0 7 1 18 10 31c17 24 42 28 69 32c52 -4 104 -7 156 -7c48 0 96 2 145 4c59 -3 98 -6 149 -38c11 -7 32 -21 54 -46c41 -46 88 -132 88 -277c0 -35 0 -161 -79 -256
c-12 -15 -40 -46 -89 -66c-34 -15 -63 -16 -100 -18c-52 3 -104 7 -157 7c-60 0 -120 -3 -180 -6c-24 2 -44 5 -57 25c-2 4 -8 14 -8 27c0 31 25 44 32 48c4 2 27 11 33 32c3 9 4 31 5 61zM291 274l3 -54c2 -37 1 -63 4 -77c4 -19 14 -36 35 -36c11 0 33 5 51 25
c16 19 22 42 28 65c8 29 18 66 18 135c0 34 -2 69 -6 102c-5 40 -16 87 -41 119c-21 25 -44 32 -59 32c-14 -1 -25 -4 -30 -33c-3 -17 -4 -53 -5 -100c0 -60 0 -119 2 -178z" />
    <glyph glyph-name="E" unicode="E" horiz-adv-x="604" 
d="M174 0l-120 -3c-23 1 -38 2 -48 21c-2 3 -6 14 -6 26c0 10 3 32 24 48c17 13 25 16 31 36c14 49 16 159 18 211c-2 45 -3 89 -3 133c-1 44 -5 73 -13 91c-9 22 -21 20 -39 34c-6 4 -19 18 -19 42c0 6 1 18 10 31c15 22 39 25 66 27c33 0 66 0 98 -1c34 -1 68 -2 102 -2
c55 0 110 5 164 10c12 2 18 4 30 4c11 0 24 -3 44 -20c46 -39 51 -99 51 -121c0 -24 -6 -44 -26 -58c-9 -7 -19 -10 -32 -10c-5 0 -18 1 -29 8c-17 12 -28 36 -44 49c-14 11 -37 20 -80 20c-7 0 -14 0 -21 -1c-36 -2 -45 -6 -46 -63c0 -45 2 -80 15 -92c8 -8 20 -8 24 -8
c13 0 20 5 23 8c17 17 13 44 21 62c6 13 19 19 34 19c27 0 44 -26 51 -50c5 -15 15 -60 15 -108c0 -28 -5 -80 -20 -104c-4 -7 -19 -27 -45 -26c-10 0 -27 3 -36 27c-6 16 -3 31 -11 45c-6 10 -19 18 -32 18c-4 0 -13 -1 -21 -7c-15 -10 -15 -24 -15 -59c1 -18 3 -36 4 -55
c0 -4 1 -23 7 -35c9 -18 26 -22 43 -22c34 0 85 5 113 25c6 5 11 11 13 13c22 28 29 62 70 62c23 0 58 -14 58 -67c0 -24 -7 -64 -31 -109c-2 -4 -15 -30 -34 -43c-16 -11 -34 -10 -55 -8c-38 4 -77 6 -116 6c-62 0 -125 -2 -187 -4z" />
    <glyph glyph-name="F" unicode="F" horiz-adv-x="542" 
d="M71 261l3 72c-4 111 -6 211 -28 244c-4 5 -8 9 -20 18c-18 13 -28 23 -28 47c0 20 11 42 28 50c4 3 12 5 26 5c17 0 34 -1 50 -2c23 -1 45 -2 67 -3c109 4 199 8 237 16c27 7 27 8 45 8c4 0 14 0 25 -5c27 -12 42 -46 45 -52c11 -23 17 -51 17 -107c0 -13 -1 -17 -3 -23
c-3 -8 -14 -31 -42 -31c-6 0 -14 1 -26 8c-18 10 -26 32 -42 45c-11 8 -49 29 -96 29c-29 0 -40 -10 -45 -19c-6 -14 -7 -35 -7 -66c0 -16 0 -31 1 -47c0 -6 0 -37 29 -37c8 0 24 4 33 25c6 16 5 34 12 48c6 11 19 18 32 18s26 -9 36 -18c43 -43 40 -119 40 -132
c0 -78 -18 -142 -61 -142c-34 0 -41 32 -42 42c-3 15 -3 29 -13 38c-11 10 -26 11 -31 11c-24 -1 -26 -16 -27 -40c2 -28 3 -56 6 -84c3 -25 4 -35 14 -44c12 -12 23 -10 39 -16c32 -12 36 -39 36 -52c0 -12 -4 -32 -30 -47c-31 -17 -77 -22 -154 -22c-1 0 -79 0 -119 6
c-58 10 -80 31 -80 62c0 7 1 24 17 37c6 5 14 8 16 9c13 5 21 8 26 21c15 30 13 98 14 130z" />
    <glyph glyph-name="G" unicode="G" horiz-adv-x="708" 
d="M14 340c1 40 4 155 83 251c58 70 143 115 233 115c16 0 41 -1 76 -12c26 -9 45 -20 74 -20c14 0 28 3 42 3s33 -2 54 -27c8 -10 43 -55 43 -108c0 -20 -5 -37 -17 -54c-16 -21 -38 -34 -64 -34c-18 0 -30 5 -37 9c-25 12 -32 27 -47 49c-3 3 -12 16 -23 26
c-10 11 -38 34 -82 34c-11 0 -35 -1 -57 -17c-26 -20 -47 -63 -47 -134c0 -34 3 -55 5 -69c2 -16 18 -117 61 -184c5 -7 32 -49 73 -49c9 0 15 2 18 3c15 7 37 24 37 63c-1 25 -9 35 -29 46c-23 12 -41 19 -41 47c0 10 4 31 25 44c24 16 76 22 147 22c20 0 72 1 124 -19
c20 -8 26 -15 31 -25c4 -7 6 -14 6 -22c0 -17 -12 -31 -27 -40c-15 -8 -24 -11 -33 -24c-15 -22 -7 -43 -27 -88c-27 -63 -99 -140 -264 -140c-28 0 -104 3 -175 40c-69 37 -164 127 -162 314z" />
    <glyph glyph-name="H" unicode="H" horiz-adv-x="708" 
d="M73 275v32c-1 29 -2 58 -3 88c0 21 0 43 -1 65c-2 59 -9 92 -28 112c-16 18 -36 28 -36 54c0 9 4 29 24 44c30 22 108 29 146 29c54 0 94 -9 114 -16c9 -3 40 -14 40 -50c0 -19 -11 -26 -24 -40c-9 -8 -13 -16 -15 -20c-13 -23 -13 -50 -13 -78c0 -3 -1 -23 2 -39
c4 -26 18 -30 60 -30c24 0 32 0 45 2c29 4 34 17 33 66c0 13 -1 27 -2 40c0 3 -1 20 -6 31c-3 6 -11 14 -16 19c-18 15 -31 23 -31 46c0 10 3 30 23 44c21 15 69 24 132 24c40 0 75 -4 88 -5c35 -5 84 -15 84 -62c0 -29 -23 -40 -31 -46c-8 -5 -13 -10 -16 -18
c-9 -19 -10 -63 -13 -121v-69c2 -109 5 -163 14 -212c0 -4 4 -24 12 -36c4 -6 8 -9 19 -18c8 -6 27 -19 27 -46c0 -44 -56 -57 -61 -59c-14 -3 -69 -11 -121 -11c-3 0 -88 -2 -129 26c-21 14 -24 36 -24 46c0 5 0 14 8 25c10 14 27 26 36 42c8 14 10 39 12 79
c-1 12 -2 23 -3 37c-1 15 -2 23 -4 29c-8 17 -29 20 -66 21c-23 0 -53 -2 -60 -29c-3 -11 -3 -31 -4 -56c1 -16 2 -31 3 -47c2 -23 2 -35 17 -53c14 -17 29 -29 29 -53c0 -21 -10 -33 -16 -38c-20 -18 -73 -29 -138 -29c-24 0 -48 1 -73 3c-23 2 -46 5 -66 14
c-8 4 -36 16 -36 50c0 12 3 28 25 42c11 7 20 11 26 20c14 23 13 70 14 97z" />
    <glyph glyph-name="I" unicode="I" horiz-adv-x="375" 
d="M298 431v-208c0 -18 1 -36 1 -53c1 -18 3 -34 17 -47c7 -7 17 -10 25 -16c14 -13 15 -29 15 -36c0 -23 -16 -56 -69 -65c-22 -4 -102 -10 -125 -10c-26 0 -53 4 -79 5c-10 1 -32 2 -51 23c-13 14 -14 29 -14 36c0 5 1 20 12 31s18 12 26 25c13 18 11 49 12 71
c1 12 1 24 2 36v230c-1 21 -2 43 -3 64c0 28 -3 46 -23 63c-7 6 -14 11 -20 17c-4 5 -11 13 -11 29c0 7 2 22 13 35c31 38 115 36 156 36c64 0 104 0 130 -9c40 -12 50 -38 50 -56c0 -21 -18 -36 -23 -40c-15 -13 -30 -21 -33 -40c-1 -6 -6 -62 -6 -68c-1 -17 -2 -35 -2 -53
z" />
    <glyph glyph-name="J" unicode="J" horiz-adv-x="562" 
d="M281 318v144c-2 56 -3 90 -23 108c-11 8 -27 9 -38 16c-20 12 -23 35 -23 42c1 25 21 54 73 63c46 7 117 7 124 7c42 0 67 -3 85 -5c35 -6 74 -17 74 -60c0 -6 0 -17 -9 -28c-11 -13 -31 -20 -42 -33c-8 -9 -8 -16 -9 -22c-2 -10 -3 -35 -3 -60l5 -248
c-3 -74 -8 -127 -59 -178c-28 -29 -92 -75 -194 -75c-13 0 -44 1 -80 9c-77 19 -160 67 -160 160c0 24 6 38 10 47c17 37 59 63 100 63c55 0 89 -45 89 -97c0 -12 -1 -28 2 -38c6 -15 18 -18 24 -18c10 0 30 8 41 32c9 19 9 43 11 88c1 28 2 56 2 83z" />
    <glyph glyph-name="K" unicode="K" horiz-adv-x="708" 
d="M72 341v179c-1 10 -2 21 -3 32c-1 10 -2 17 -6 25c-3 5 -6 8 -16 15c-8 4 -33 17 -33 44c0 23 14 45 60 54c25 4 82 7 109 7c65 0 108 -7 130 -22c12 -9 20 -24 20 -40c0 -12 -5 -22 -7 -25c-9 -15 -26 -23 -35 -37c-10 -16 -10 -43 -11 -62c-1 -8 -1 -17 0 -24
c0 -1 4 -25 16 -25c1 0 4 0 8 2c6 4 36 29 55 49c8 9 15 18 23 28c16 21 21 31 21 41c0 12 -10 22 -17 34c-2 4 -5 9 -5 19c0 12 6 36 33 49c17 8 50 14 98 14c53 0 105 -9 123 -13c12 -3 47 -12 47 -54c0 -29 -20 -41 -28 -44c-4 -2 -9 -4 -20 -6c-38 -7 -43 -7 -61 -22
c-13 -11 -55 -52 -92 -96c-17 -20 -23 -31 -23 -42c0 -12 10 -29 25 -53l153 -221c28 -41 33 -36 61 -49c7 -4 29 -14 29 -42c0 -61 -88 -56 -92 -56c-23 0 -45 0 -68 -1c-19 0 -38 1 -58 1c-42 2 -48 12 -81 68l-104 157s-15 23 -29 23c-8 -1 -14 -15 -14 -39
c0 -8 1 -17 1 -25c1 -14 2 -47 10 -60c4 -7 10 -11 23 -22c8 -6 21 -17 21 -41c-1 -49 -56 -65 -143 -65c-27 0 -54 2 -81 4c-22 2 -44 4 -64 12c-8 3 -43 18 -43 52c0 5 2 16 9 26c16 23 33 18 44 43c14 32 12 105 13 137c0 24 1 47 2 71z" />
    <glyph glyph-name="L" unicode="L" horiz-adv-x="604" 
d="M73 402l-4 121c0 5 -1 14 -4 24c-4 18 -12 25 -29 34c-21 13 -34 20 -34 45c1 22 11 49 55 61c33 9 101 10 138 11l104 -7c24 -3 42 -7 55 -28c8 -12 8 -22 8 -29c0 -9 -2 -29 -24 -42c-11 -7 -19 -8 -27 -17c-11 -12 -12 -39 -12 -43l-5 -99v-166c0 -55 1 -109 10 -125
c11 -21 47 -21 49 -21c5 0 64 4 94 24c15 9 21 19 24 25c8 16 9 36 19 50c13 20 32 22 41 22c18 0 28 -8 33 -12c18 -17 26 -42 26 -90c0 -18 -2 -24 -3 -33c-5 -31 -20 -75 -44 -95c-7 -5 -22 -16 -44 -16c-17 0 -34 6 -52 8s-27 2 -61 0l-294 -7c-30 1 -59 3 -79 25
c-4 4 -13 16 -13 34c0 29 22 43 29 49c21 15 28 21 36 67c4 47 7 95 8 143v87z" />
    <glyph glyph-name="M" unicode="M" horiz-adv-x="771" 
d="M413 447l91 198c2 6 7 16 11 20c18 24 52 33 113 33c12 0 30 -1 57 -4c6 -1 26 -3 41 -11c26 -15 31 -41 31 -52c0 -22 -17 -35 -23 -40c-15 -13 -20 -16 -26 -50c-13 -99 -15 -122 -17 -221c1 -51 0 -63 11 -144c7 -42 14 -47 34 -62c8 -6 28 -17 28 -46
c0 -10 -3 -33 -24 -48c-30 -22 -88 -23 -122 -23c-32 0 -63 1 -93 3c-6 1 -51 2 -80 21c-15 10 -24 26 -24 44c0 7 2 28 21 40c9 5 19 8 25 16c14 16 14 43 15 62c1 14 1 27 2 41c0 29 1 51 -12 51c-7 -1 -10 -6 -14 -12l-87 -187c-2 -3 -17 -27 -31 -26
c-19 0 -27 20 -29 24c-15 35 -30 70 -47 104c-12 25 -24 49 -37 74c-4 8 -11 18 -20 18c-1 0 -4 -1 -6 -5c-4 -9 -4 -39 -4 -45c2 -51 4 -82 16 -102c8 -14 18 -14 30 -26s13 -26 13 -31c0 -16 -11 -49 -52 -57c-9 -2 -51 -7 -86 -7c-18 0 -37 2 -55 4c-7 0 -40 1 -56 25
c-3 5 -9 14 -9 30c0 26 16 37 24 42c12 8 15 9 19 14c6 8 8 16 10 37c5 35 9 70 13 105c4 42 7 85 10 128v34c-1 28 -3 55 -5 83c0 7 -1 42 -16 66c-7 12 -21 21 -24 23c-14 11 -24 19 -24 39c1 38 32 51 41 55c12 5 62 18 108 18c53 0 83 -15 98 -31c7 -8 13 -20 14 -23
c14 -29 28 -57 41 -86c11 -26 22 -53 34 -78c7 -14 15 -28 23 -42c5 -9 7 -12 11 -16c1 -1 7 -5 12 -5c13 0 21 17 26 28z" />
    <glyph glyph-name="N" unicode="N" horiz-adv-x="708" 
d="M635 494v-341c3 -56 2 -91 -8 -115c-14 -35 -43 -42 -58 -42c-21 1 -43 20 -47 23c-23 24 -45 48 -68 72c-32 36 -64 73 -97 109c-36 41 -74 81 -112 121c-8 9 -15 14 -20 13c-6 0 -9 -5 -13 -19c-4 -31 -5 -38 -5 -68v-50c0 -25 2 -56 19 -77c5 -6 12 -11 19 -15
c4 -3 32 -18 32 -45c0 -15 -12 -42 -49 -52c-14 -4 -45 -9 -84 -9c-42 0 -79 4 -92 8c-8 3 -40 17 -40 49c0 7 2 13 5 20c6 13 19 21 29 31c2 3 5 7 8 14c13 27 14 73 15 104c1 24 3 48 4 72v137c-3 61 -5 97 -18 122c-7 14 -15 21 -27 31c-15 13 -23 22 -23 40
c0 10 3 21 8 30c17 29 56 40 126 40c28 0 56 0 77 -15c7 -5 15 -13 29 -29c32 -36 63 -72 96 -108c32 -34 65 -67 98 -101c17 -17 37 -34 46 -34c6 0 9 8 10 10c4 10 4 35 6 66c0 26 -1 53 -10 77c-2 3 -6 14 -14 22c-8 7 -19 9 -27 17c-5 4 -16 18 -16 38c1 14 6 24 10 28
c17 24 52 26 82 28c16 0 33 1 50 1c4 0 50 1 77 -8c33 -11 38 -31 38 -46c0 -4 0 -15 -7 -26c-10 -15 -29 -24 -39 -38c-7 -11 -7 -21 -8 -49c0 -12 -1 -24 -2 -36z" />
    <glyph glyph-name="O" unicode="O" horiz-adv-x="688" 
d="M13 370c2 43 11 106 65 190c22 35 39 53 52 65c55 51 144 82 218 82c115 0 194 -69 221 -97c37 -37 97 -117 97 -253c0 -10 -1 -45 -6 -78c-13 -84 -46 -153 -113 -212c-58 -52 -125 -79 -204 -79c-86 0 -145 33 -172 51c-32 21 -55 47 -64 57c-65 76 -99 177 -94 274z
M255 462c4 -123 13 -154 32 -219c11 -40 16 -54 28 -73c3 -5 23 -38 55 -38c28 0 40 28 43 34c5 13 11 43 11 82c0 12 -1 41 -5 74c-3 18 -20 124 -58 198c-4 7 -21 45 -57 45c-15 0 -24 -9 -28 -13c-24 -24 -23 -59 -21 -90z" />
    <glyph glyph-name="P" unicode="P" horiz-adv-x="604" 
d="M74 394v71c0 19 -1 39 -2 58c-1 33 -9 46 -20 57c-10 10 -24 15 -35 24c-6 5 -18 18 -18 41c0 5 1 17 8 28c11 19 30 22 53 24c48 -2 96 -4 143 -4c50 0 100 2 150 3h28c27 -2 96 -3 155 -55c63 -55 66 -127 66 -157c0 -9 0 -34 -7 -61c-5 -25 -30 -110 -110 -144
c-37 -16 -83 -22 -166 -27c-4 0 -16 0 -24 -4c-11 -5 -11 -19 -13 -44l3 -42c2 -23 3 -38 23 -49c13 -7 29 -8 40 -14c16 -9 19 -27 18 -32c0 -5 -1 -16 -10 -26c-21 -28 -74 -45 -156 -45c-18 0 -72 2 -124 11c-25 4 -52 9 -68 31c-6 8 -10 19 -10 28s3 29 23 42
c8 5 10 5 18 9c9 5 17 10 22 30c5 22 10 77 10 98c1 16 1 34 1 51c1 32 2 65 2 98zM286 565v-175c0 -10 -3 -34 24 -34c7 0 17 2 31 14c38 34 36 89 36 101c0 43 -14 125 -68 125c-20 0 -22 -12 -23 -31z" />
    <glyph glyph-name="Q" unicode="Q" horiz-adv-x="688" 
d="M304 -73l-49 51c-40 35 -61 49 -88 49c-22 0 -39 -7 -73 -32c-4 -2 -17 -11 -34 -11c-27 0 -42 28 -42 53c0 11 2 22 8 33c14 30 36 42 63 56c-12 13 -21 23 -30 39c-30 50 -45 131 -45 190c0 14 0 53 11 93c18 66 66 144 121 189c52 42 136 71 205 71
c68 0 140 -38 154 -46c58 -34 162 -128 162 -306c0 -9 -1 -35 -4 -63c-10 -80 -34 -125 -52 -154c-26 -39 -53 -64 -88 -96c2 -4 4 -7 6 -11c5 -9 25 -46 65 -46c13 0 25 5 38 5c38 0 43 -35 43 -47c0 -19 -10 -34 -13 -39c-34 -53 -107 -85 -167 -85c-12 0 -37 2 -67 13
c-50 19 -87 56 -124 94zM268 320c3 -15 18 -93 51 -149c12 -21 28 -39 54 -39c12 0 23 6 32 16c13 16 22 37 22 79c0 128 -48 249 -63 280c-19 39 -39 60 -59 60c-9 0 -18 -4 -26 -10c-29 -22 -26 -57 -26 -67c0 -20 2 -101 15 -170z" />
    <glyph glyph-name="R" unicode="R" horiz-adv-x="688" 
d="M73 319v140c-1 19 -2 37 -3 54c-1 16 -3 31 -5 47c-2 17 -4 22 -30 35c-10 5 -33 16 -33 47c0 5 1 18 11 30c19 24 46 25 74 26c41 -3 81 -6 123 -6c59 0 117 3 175 4c50 -2 93 -4 133 -32c25 -17 75 -62 75 -145c0 -11 0 -31 -8 -56c-13 -40 -30 -58 -62 -86
c0 -1 -12 -10 -11 -16c0 -4 3 -6 13 -13c55 -31 64 -44 82 -105l17 -76c8 -40 15 -46 32 -58c7 -5 32 -19 32 -48c0 -7 -1 -21 -12 -35c-27 -35 -83 -34 -92 -34c-77 0 -116 20 -139 42c-38 37 -52 91 -65 140l-13 56c-6 26 -12 50 -35 61c-8 3 -12 3 -16 3
c-9 0 -25 -5 -31 -28c-3 -10 -5 -38 -5 -70c0 -42 7 -69 18 -80c7 -7 13 -8 22 -13c8 -5 24 -17 24 -43c0 -8 -1 -22 -15 -36c-30 -30 -77 -27 -115 -28h-47c-27 0 -53 2 -79 4c-3 1 -33 2 -49 10c-21 10 -37 33 -37 55c0 14 5 26 16 35c6 5 15 10 16 10c16 8 23 13 30 46
c5 27 4 62 5 89c1 25 2 49 4 74zM277 541v-29c0 -9 1 -50 6 -83c1 -10 4 -24 28 -23c6 0 20 1 32 10c16 12 33 39 33 86c0 33 -10 58 -17 69c-5 7 -12 13 -21 16c-4 2 -16 6 -28 6c-38 -1 -33 -47 -33 -52z" />
    <glyph glyph-name="S" unicode="S" horiz-adv-x="562" 
d="M7 188c3 37 19 66 57 66c46 0 61 -37 83 -72c3 -4 9 -14 19 -23c32 -34 69 -41 88 -41c29 0 61 18 61 50c0 4 -1 14 -7 23c-19 27 -80 47 -107 58c-15 6 -61 24 -100 57c-24 19 -76 70 -76 156c0 28 6 97 59 155c50 56 131 89 207 89c22 0 45 -3 67 -7c14 -2 28 -6 42 -6
c15 0 31 7 46 7s33 -10 53 -37c19 -26 36 -68 36 -100c0 -46 -35 -90 -83 -90c-19 0 -32 6 -37 9c-25 14 -32 41 -52 61c-23 23 -47 27 -59 27c-6 0 -23 -1 -37 -14c-3 -2 -6 -5 -8 -9c-2 -2 -8 -12 -8 -22c0 -9 5 -27 23 -41c9 -7 16 -10 25 -15c14 -7 28 -15 42 -21
c17 -7 35 -13 53 -20c9 -3 18 -8 27 -12c70 -36 127 -100 127 -183c0 -24 -7 -94 -53 -151c-33 -40 -102 -95 -227 -95c-59 0 -148 15 -196 52c-12 9 -30 25 -46 58c-20 42 -21 72 -19 91z" />
    <glyph glyph-name="T" unicode="T" horiz-adv-x="625" 
d="M181 695h248c22 0 37 1 45 3c15 3 29 9 43 9c27 0 52 -24 66 -47c19 -30 36 -91 36 -125c0 -16 -2 -23 -4 -30c-8 -27 -29 -48 -58 -48c-11 0 -23 3 -33 8c-29 16 -41 47 -53 79c-4 11 -10 23 -20 29c-5 4 -11 5 -13 5s-5 0 -9 -3c-16 -11 -14 -37 -14 -39v-279
c1 -20 2 -39 3 -59c1 -29 3 -39 11 -51c6 -8 13 -13 29 -27c8 -6 29 -21 29 -52c-1 -15 -6 -28 -16 -38c-26 -26 -84 -33 -167 -33c-24 0 -49 1 -73 2c-37 3 -57 8 -73 16c-24 11 -40 28 -40 56c0 20 12 38 28 48c14 9 24 11 32 24c16 27 13 78 14 110l3 69v179
c0 40 -5 74 -25 74c-4 -1 -9 -2 -14 -5c-13 -9 -17 -24 -21 -39c-3 -7 -5 -14 -8 -21c-4 -11 -23 -52 -67 -52c-34 0 -49 27 -53 37c-5 13 -4 29 -4 33c0 70 20 116 37 140c14 19 36 36 61 35c11 0 18 -2 38 -5c12 -2 20 -3 42 -3z" />
    <glyph glyph-name="U" unicode="U" horiz-adv-x="708" 
d="M281 507v-159l5 -93c3 -22 4 -28 7 -41c20 -62 77 -66 98 -66c28 0 47 9 56 14c34 22 40 58 46 97l3 87v99c-2 56 -2 95 -12 116c-8 16 -19 16 -32 27c-17 15 -19 32 -19 42c0 42 46 58 80 64c24 4 51 3 59 3c31 0 65 2 93 -10c10 -4 36 -16 36 -50c0 -9 -2 -18 -6 -26
c-9 -15 -26 -24 -37 -37c-14 -18 -14 -48 -14 -53l-6 -147v-134c-1 -12 -1 -24 -2 -35c-1 -28 -6 -93 -61 -147c-60 -59 -137 -70 -218 -70c-82 0 -177 17 -237 75c-19 19 -34 42 -44 67c-14 34 -14 77 -15 86v262c-1 14 -1 27 -2 41s-2 27 -10 37c-6 8 -16 15 -26 22
c-7 5 -27 20 -27 47c0 5 1 17 9 30c24 37 84 41 177 41c58 0 88 -1 113 -11c38 -14 45 -41 45 -59c0 -23 -12 -34 -30 -47c0 0 -15 -9 -19 -16c-8 -10 -8 -27 -10 -56z" />
    <glyph glyph-name="V" unicode="V" horiz-adv-x="708" 
d="M342 489l42 -103c6 -9 11 -18 19 -18c1 0 4 1 7 3c7 4 10 9 14 21l37 111c3 14 10 37 10 54c0 7 -1 13 -5 18c-7 11 -22 17 -32 28c-4 4 -10 12 -10 27c0 11 4 28 24 43c22 16 55 25 117 25c10 0 53 1 89 -14c39 -17 50 -46 50 -63c0 -22 -16 -39 -36 -48
c-24 -10 -30 -9 -48 -48c-19 -44 -37 -89 -54 -134c-24 -65 -46 -131 -72 -196c-20 -52 -44 -103 -67 -153c-11 -23 -20 -39 -44 -49c-3 -1 -14 -5 -26 -5c-10 0 -17 2 -26 6c-14 6 -23 15 -39 45c-19 42 -39 84 -57 126c-27 63 -52 127 -78 190c-23 57 -46 114 -70 170
c-16 27 -23 33 -38 39c-9 4 -51 13 -51 55c0 68 103 75 146 77c15 1 31 2 47 2c20 0 63 -1 116 -12c27 -5 52 -12 64 -38c2 -4 6 -13 6 -25c0 -26 -23 -38 -30 -43c-8 -5 -19 -11 -19 -32c1 -17 9 -43 14 -59z" />
    <glyph glyph-name="W" unicode="W" horiz-adv-x="1042" 
d="M402 396l27 71c6 21 8 30 8 40c0 20 -11 40 -23 59c-18 19 -37 40 -37 63c0 15 7 26 10 31c22 33 82 38 168 38c33 0 101 -2 132 -17c33 -14 39 -42 39 -55c0 -5 0 -18 -10 -29c-5 -7 -7 -9 -20 -16c-8 -6 -22 -11 -22 -33c0 -14 8 -38 12 -50l35 -101c4 -9 9 -19 15 -19
c9 0 14 13 17 20l38 104c6 18 12 32 12 50c0 8 -1 19 -13 34c-13 16 -25 21 -25 43c0 16 7 28 11 32c19 25 56 36 122 36c6 0 59 -1 91 -12c39 -13 48 -36 48 -55c0 -14 -6 -27 -17 -37c-13 -11 -24 -11 -39 -18c-11 -6 -18 -15 -30 -40c-39 -107 -78 -213 -117 -318
c-21 -53 -41 -106 -62 -159c-14 -39 -24 -52 -42 -62c-7 -3 -18 -10 -36 -10c-10 1 -19 2 -28 6c-28 11 -38 31 -51 58l-84 211c-1 2 -4 17 -17 17c-6 0 -10 -5 -18 -20l-84 -207c-2 -6 -5 -12 -8 -17c-6 -11 -26 -47 -68 -47c-6 0 -15 0 -29 7c-25 13 -35 35 -47 60
c-21 50 -43 99 -63 150c-26 65 -50 132 -75 197c-18 46 -36 90 -54 134c-10 25 -17 32 -28 38c-7 3 -14 6 -21 10c-7 5 -21 17 -21 39c0 5 1 14 7 26c18 33 55 38 65 40c19 3 79 10 139 10c49 0 84 -5 102 -13c31 -15 38 -43 38 -55c0 -7 -2 -18 -12 -32
c-10 -15 -21 -22 -21 -42c1 -14 5 -24 9 -37c8 -22 15 -45 24 -67c7 -19 15 -37 23 -56c3 -8 8 -19 15 -19c7 1 12 11 15 19z" />
    <glyph glyph-name="X" unicode="X" horiz-adv-x="708" 
d="M3 79c2 3 7 12 16 18c18 14 35 8 55 17c17 8 22 17 41 46c6 10 13 19 20 29c20 30 41 57 62 89c4 5 21 27 21 48c0 7 -2 13 -3 15c-7 16 -13 21 -30 46c-11 17 -20 33 -30 49c-8 14 -17 28 -25 42c-30 47 -40 71 -61 88c-14 13 -33 19 -39 21c-18 9 -28 21 -28 43
c0 34 26 51 58 60c33 9 85 10 120 10c25 0 51 -1 76 -2c37 -2 52 -5 69 -15c23 -14 27 -35 27 -45c0 -13 -6 -23 -9 -27c0 -1 -14 -18 -14 -28c0 -3 1 -8 2 -10c2 -4 14 -26 29 -26c17 1 34 23 34 42s-16 37 -16 57c0 25 19 36 41 43c32 10 91 10 94 10c24 0 93 -3 113 -11
c30 -12 33 -36 33 -47c0 -7 -2 -29 -21 -40c-14 -8 -24 -6 -39 -10c-27 -6 -46 -30 -62 -49c-16 -21 -32 -43 -46 -65c-20 -32 -35 -51 -34 -68c0 -4 1 -11 5 -20c14 -29 56 -89 76 -119c14 -21 29 -41 43 -62c16 -23 33 -49 54 -67c17 -15 27 -19 38 -24
c11 -6 33 -14 33 -46c0 -18 -9 -34 -22 -44c-22 -18 -77 -30 -148 -30c-29 0 -58 2 -87 4c-24 1 -44 1 -64 10c-21 10 -40 31 -40 54c0 5 0 12 6 22c8 15 16 19 16 36c0 16 -8 24 -24 50c0 1 -13 25 -27 25c-4 0 -7 -3 -8 -3c-11 -7 -12 -14 -25 -33c-2 -3 -17 -23 -17 -38
c0 -14 12 -28 19 -43c3 -7 5 -14 5 -22c0 -29 -21 -44 -43 -51c-15 -4 -68 -12 -119 -12c-16 0 -32 1 -48 2c-5 1 -27 1 -44 8c-22 9 -37 28 -37 52c0 10 3 17 4 21z" />
    <glyph glyph-name="Y" unicode="Y" horiz-adv-x="688" 
d="M577 535l-65 -90c-38 -51 -38 -46 -53 -85v-164c1 -65 1 -72 36 -92c20 -11 32 -20 32 -43c0 -36 -32 -51 -64 -58c-20 -4 -67 -7 -126 -7c-33 0 -67 1 -99 4c-7 1 -40 3 -63 17c-22 13 -27 33 -27 45c0 17 12 29 27 38c14 8 25 11 36 22c13 13 17 29 17 66v96
c0 64 -5 80 -38 133l-45 67c-22 34 -43 65 -77 85c-14 8 -30 12 -43 21c-5 4 -24 20 -24 45c0 12 8 36 37 48c33 14 101 16 188 16c36 0 105 2 133 -20c16 -12 17 -31 17 -37c0 -11 -3 -21 -8 -29c-6 -11 -13 -19 -13 -31c0 -13 10 -26 17 -35c6 -9 14 -20 24 -20
c9 0 18 11 24 18c13 15 16 24 16 34s-4 14 -13 29c-2 4 -9 16 -9 29c0 12 6 39 35 51c17 7 46 11 88 11c14 0 43 0 78 -6c7 -1 37 -4 54 -25c4 -4 12 -15 12 -32c0 -27 -22 -39 -45 -49c-24 -9 -32 -13 -59 -52z" />
    <glyph glyph-name="Z" unicode="Z" horiz-adv-x="604" 
d="M259 485l21 42c7 14 9 18 9 26c0 5 -1 7 -4 12c-7 10 -19 12 -32 12c-72 0 -104 -40 -116 -65c-5 -12 -9 -24 -15 -34c-15 -22 -39 -26 -47 -26c-4 0 -14 1 -24 8c-27 18 -26 48 -26 57c0 48 21 118 45 155c15 25 29 36 41 36c4 0 8 -1 13 -2c6 -3 14 -8 28 -11
c12 -3 35 -5 68 -5c38 0 77 3 116 4c32 1 63 2 94 3c22 1 43 3 64 3c42 0 60 -10 69 -27c3 -7 6 -17 6 -25c0 -15 -5 -28 -19 -55c-20 -41 -43 -80 -65 -121c-29 -56 -57 -114 -85 -170c-16 -32 -32 -63 -48 -95c-7 -15 -20 -40 -20 -57c0 -4 1 -11 6 -18
c11 -16 30 -15 36 -15c52 0 75 10 90 27c21 25 19 44 34 70c11 18 31 35 51 35c5 0 12 -1 22 -9c23 -18 24 -50 24 -78c0 -13 -1 -68 -19 -112c-3 -6 -10 -23 -24 -38c-13 -15 -26 -23 -44 -23c-12 0 -25 4 -39 6c-8 2 -17 3 -25 3c-44 4 -88 4 -133 4
c-67 0 -133 -2 -199 -2c-47 0 -69 -3 -84 17c-6 7 -9 16 -9 25c0 4 1 10 4 18c6 18 55 100 95 170c26 45 51 90 75 135c22 40 45 80 66 120z" />
    <glyph glyph-name="bracketleft" unicode="[" horiz-adv-x="417" 
d="M108 488l-4 159c-1 14 0 21 10 31c13 14 30 16 65 22c17 3 43 8 84 8c20 0 41 -1 62 -3c41 -4 56 -13 67 -28c2 -4 9 -14 9 -29c0 -12 -3 -19 -5 -23c-11 -21 -33 -27 -75 -30c-46 -2 -61 -10 -64 -58c-1 -29 -1 -38 -4 -53c-8 -53 -32 -111 -53 -162
c-10 -30 -13 -40 -13 -56c0 -20 7 -37 15 -56c43 -94 51 -119 57 -224c-1 -4 -7 -38 17 -48c10 -4 30 -5 56 -5c0 0 16 1 23 0c28 -7 31 -37 31 -44c0 -16 -7 -40 -38 -53c-28 -12 -91 -15 -120 -15c-14 0 -39 1 -72 5c-27 3 -37 8 -45 17c-9 10 -9 20 -9 35
c4 42 7 85 9 128c1 22 1 44 2 67c-1 62 -4 79 -25 134c-2 5 -16 36 -16 61c0 23 9 42 18 65c17 68 18 83 18 155z" />
    <glyph glyph-name="backslash" unicode="\" horiz-adv-x="354" 
d="M230 -18l-228 724h128l228 -724h-128z" />
    <glyph glyph-name="bracketright" unicode="]" horiz-adv-x="417" 
d="M303 28l4 -139c0 -5 2 -22 -7 -35c-11 -17 -33 -18 -54 -22c-41 -7 -57 -11 -99 -11c-23 0 -45 1 -68 4c-8 1 -45 3 -63 28c-3 4 -9 13 -9 28c0 5 1 13 6 23c11 22 36 24 61 27c38 4 61 7 70 23c5 8 7 17 9 40c6 72 11 95 24 131c7 19 16 37 23 56c6 14 11 28 15 42
c2 4 8 24 8 41s-9 38 -10 43c-47 100 -55 125 -61 236c0 3 1 23 -4 34c-6 15 -24 18 -59 18c-8 -1 -40 -7 -57 18c-8 10 -8 23 -8 27c0 21 12 49 55 59c11 2 61 9 104 9c14 0 33 -1 65 -4c19 -2 37 -3 50 -17c10 -10 10 -24 10 -29c-4 -48 -8 -95 -9 -144
c0 -18 -1 -37 -1 -57c-1 -63 2 -78 24 -135c2 -5 16 -35 16 -62c0 -19 -8 -36 -10 -42c-24 -82 -26 -102 -25 -190z" />
    <glyph glyph-name="asciicircum" unicode="^" horiz-adv-x="729" 
d="M615 311h-138l-110 231l-116 -231h-137l203 395h104z" />
    <glyph glyph-name="underscore" unicode="_" horiz-adv-x="500" 
d="M510 -240h-520v127h520v-127z" />
    <glyph glyph-name="quoteleft" unicode="&#x2018;" horiz-adv-x="250" 
d="M15 468c5 75 46 156 54 171c11 20 20 31 26 39c4 3 17 19 32 25c7 4 17 6 38 6c16 0 31 -2 40 -13c6 -7 7 -14 7 -19c0 -15 -10 -20 -25 -40c-11 -16 -11 -17 -24 -47c-6 -13 -8 -19 -8 -25s2 -11 5 -16c8 -12 21 -19 32 -27c3 -2 7 -5 12 -11c20 -23 30 -56 30 -86
c0 -10 -1 -33 -12 -58c-23 -55 -75 -61 -97 -61c-11 0 -41 2 -64 22c-38 31 -49 95 -46 140z" />
    <glyph glyph-name="a" unicode="a" horiz-adv-x="521" 
d="M467 348v-171c2 -21 5 -36 10 -44c2 -4 5 -7 12 -12c6 -4 26 -15 26 -39c0 -4 -2 -14 -7 -23c-12 -22 -54 -65 -123 -65c-38 0 -56 11 -86 32c-7 6 -13 12 -21 12c-5 0 -8 -1 -17 -5c-20 -13 -57 -40 -120 -40c-112 0 -134 88 -134 128c0 51 27 102 67 131
c43 32 90 39 143 44c2 1 15 1 26 4c16 4 22 10 22 42c0 52 -3 87 -35 87c-20 0 -31 -12 -43 -26c-5 -8 -11 -16 -16 -24c-8 -11 -36 -48 -83 -48c-30 0 -54 15 -54 48c0 44 55 83 60 86c34 25 88 51 186 51c114 0 162 -53 178 -101c7 -19 8 -30 9 -67zM269 174
c0 29 -2 43 -14 50c-2 2 -8 5 -16 5c-2 0 -8 -1 -13 -4c-13 -8 -25 -32 -25 -64c0 -18 4 -28 7 -34c8 -16 23 -20 29 -19c6 0 11 2 16 5c18 13 16 40 16 61z" />
    <glyph glyph-name="b" unicode="b" horiz-adv-x="562" 
d="M235 552v-75c1 -21 5 -30 14 -30c9 1 14 7 19 13c33 33 57 55 103 55c15 0 48 -3 82 -25c62 -40 89 -115 89 -187c0 -26 -2 -39 -4 -51c-4 -25 -21 -102 -71 -163c-27 -34 -95 -96 -211 -96c-10 0 -58 1 -96 14c-14 5 -21 10 -34 17c-14 8 -24 14 -39 14
c-9 0 -19 -2 -28 -1c-30 2 -32 26 -32 37c0 23 5 43 7 64c3 25 4 52 5 78v89c-1 38 -3 77 -4 114c0 9 0 50 -6 85c-3 18 -6 26 -10 32c-3 4 -6 7 -15 12c-8 4 -28 12 -28 38c0 17 10 34 40 52c38 25 132 59 178 59c41 0 49 -29 49 -45c0 -14 -4 -29 -5 -43
c-3 -19 -3 -38 -3 -57zM227 231c2 -45 3 -78 7 -95c8 -37 27 -48 44 -48c11 0 21 4 33 24c21 38 21 97 21 106c0 33 -6 77 -16 107c-2 6 -13 40 -44 40c-7 0 -16 -2 -24 -15c-17 -23 -18 -58 -21 -119z" />
    <glyph glyph-name="c" unicode="c" horiz-adv-x="479" 
d="M11 242c0 81 31 160 92 213c14 12 51 41 102 53c27 6 53 6 62 6c14 0 55 0 93 -15c52 -21 95 -70 95 -130c0 -14 -4 -30 -9 -41c-15 -32 -54 -54 -92 -54c-7 0 -25 1 -41 13c-24 17 -27 41 -31 68c-5 31 -12 41 -27 41c-3 0 -12 -1 -19 -9c-9 -10 -18 -40 -18 -75
c0 -13 1 -71 24 -113c17 -32 53 -62 91 -62c22 0 43 13 67 13c41 0 48 -37 48 -51c0 -13 -4 -24 -21 -43c-57 -63 -145 -65 -169 -65c-20 0 -62 2 -110 23c-49 23 -137 87 -137 228z" />
    <glyph glyph-name="d" unicode="d" horiz-adv-x="562" 
d="M505 622v-295c1 -42 2 -85 3 -129c1 -39 4 -63 13 -75c5 -7 13 -12 19 -18c9 -8 15 -19 15 -32c0 -29 -27 -38 -33 -40c-41 -19 -46 -21 -90 -33c-16 -4 -30 -8 -46 -8c-15 0 -33 6 -43 19c-7 7 -10 17 -13 26c-2 2 -8 15 -17 15c-5 0 -11 -4 -17 -7
c-6 -6 -12 -12 -18 -17c-12 -10 -42 -34 -89 -34c-27 0 -64 8 -104 56c-27 33 -62 93 -62 198c0 81 18 162 80 219c32 29 72 48 117 48c24 0 45 -6 53 -8c2 -1 13 -7 23 -7c20 0 21 20 20 37s-3 20 -18 29c-5 2 -10 5 -15 8c-17 8 -28 15 -28 34c0 9 3 14 4 17
c13 30 60 44 123 61c34 8 54 12 70 12c9 0 18 -1 26 -4c11 -3 30 -13 30 -40c0 -11 -2 -21 -3 -32zM330 266c-1 62 -4 107 -16 132c-9 19 -24 25 -33 25c-6 0 -15 -4 -25 -19c-16 -24 -33 -60 -33 -129c0 -68 12 -114 30 -135c3 -4 15 -17 31 -17c14 0 26 11 33 35
c9 28 13 50 13 108z" />
    <glyph glyph-name="e" unicode="e" horiz-adv-x="479" 
d="M401 228h-32c-14 0 -27 1 -41 2c-16 -1 -32 -1 -47 -1c-10 0 -19 0 -27 -1c-14 -1 -26 -7 -26 -22c0 -4 0 -5 1 -7c2 -5 13 -28 16 -32c8 -13 28 -33 68 -33c25 0 46 9 52 11c21 8 25 11 39 11c25 0 42 -18 42 -44c0 -19 -8 -41 -39 -65c-60 -51 -145 -54 -168 -54
c-31 0 -90 3 -147 57c-74 70 -78 164 -78 196c0 20 1 67 21 117c36 93 122 154 223 154c11 0 42 -1 73 -11c41 -14 104 -49 123 -153c1 -8 5 -34 5 -60c0 -23 -2 -56 -28 -64c-9 -3 -14 -1 -30 -1zM286 348c0 11 -1 25 -5 35c-5 16 -20 31 -35 30c-4 0 -10 -1 -17 -7
c-18 -16 -20 -38 -20 -61c0 -1 0 -12 2 -17c3 -12 14 -12 37 -12c30 -1 35 3 38 32z" />
    <glyph glyph-name="f" unicode="f" horiz-adv-x="375" 
d="M24 432c11 4 20 7 20 16c0 7 -5 17 -6 19c-14 29 -28 58 -28 93c0 51 34 84 47 95c10 8 17 12 39 22c18 8 49 22 99 22c12 0 93 -2 141 -40c32 -25 36 -60 36 -74c0 -4 -1 -18 -6 -30c-13 -31 -41 -51 -74 -51c-15 0 -28 5 -32 7c-19 8 -31 20 -54 55c-9 9 -17 17 -28 17
c-15 0 -28 -14 -28 -28c0 -7 1 -11 4 -18c9 -19 25 -29 42 -38c43 -24 53 -33 75 -52c15 -11 19 -12 39 -11c11 1 12 1 19 0c26 -4 28 -25 29 -49c-1 -28 -3 -45 -11 -56c-7 -10 -14 -10 -26 -10c-8 1 -32 5 -37 -21c0 -4 -2 -23 -3 -39c1 -19 2 -38 4 -57
c0 -12 1 -24 2 -36c4 -27 10 -43 19 -50c4 -4 5 -4 14 -7c8 -3 45 -12 45 -46c0 -6 -2 -12 -5 -17c-7 -14 -27 -25 -39 -30c-23 -10 -67 -20 -132 -20c-20 0 -40 1 -60 3c-50 3 -121 12 -120 62c0 11 2 24 20 39c17 14 26 17 34 36c10 23 11 65 13 127c0 15 1 37 -11 46
c-6 5 -14 7 -23 9c-16 0 -43 -2 -43 39c0 10 1 21 2 31c1 13 1 22 3 27c4 9 17 14 20 15z" />
    <glyph glyph-name="g" unicode="g" horiz-adv-x="542" 
d="M28 -5c7 9 14 17 14 26c0 11 -11 25 -12 28c-9 17 -18 31 -18 52c0 47 35 72 70 96c3 2 15 9 15 19s-10 20 -16 27c-15 21 -36 47 -36 105c0 13 1 44 19 73c22 37 88 96 201 96c26 0 50 -3 102 -10c6 -2 27 -8 45 -8c23 0 40 12 60 26c3 2 12 13 26 13c5 0 9 -2 13 -3
c10 -5 27 -20 27 -49c0 -27 -13 -45 -28 -65c-16 -18 -17 -25 -14 -50c3 -59 2 -94 -40 -137c-18 -18 -39 -32 -60 -42c-58 -27 -108 -26 -172 -22c-14 1 -27 2 -35 -7c-4 -5 -6 -10 -6 -16c0 -4 1 -9 7 -15c11 -10 25 -13 53 -13c23 0 46 2 69 3c20 2 41 4 62 4
c75 0 109 -31 126 -59c11 -18 18 -42 18 -65c0 -15 -4 -44 -25 -77c-25 -41 -73 -86 -180 -102c-8 -2 -39 -5 -68 -5c-37 0 -112 3 -190 55c-26 18 -47 39 -47 71c0 15 4 26 20 51zM313 -27h-146c-5 0 -14 2 -18 -9c-2 -4 -2 -8 -2 -9c0 -16 19 -33 32 -40
c30 -18 73 -21 81 -21c16 0 32 4 48 10c24 9 33 19 39 29c3 6 4 12 4 14c-1 6 -4 11 -5 13c-8 11 -20 12 -33 13zM225 350c1 -26 2 -36 5 -49c3 -18 7 -35 20 -47c4 -3 11 -9 23 -9c32 0 44 41 44 97c0 21 -2 64 -14 82c-7 11 -21 18 -35 18c-11 -1 -19 -4 -26 -10
c-15 -16 -17 -61 -17 -82z" />
    <glyph glyph-name="h" unicode="h" horiz-adv-x="604" 
d="M255 515v-41c-1 -20 3 -28 12 -28c4 0 8 2 14 8c21 23 55 68 136 68c34 0 63 -7 91 -28c20 -16 30 -35 33 -43c7 -17 10 -34 13 -73v-181c0 -37 0 -63 5 -78c6 -21 23 -37 23 -60c0 -39 -58 -61 -134 -61c-38 0 -81 2 -112 26c-18 14 -21 30 -21 40c0 9 4 18 5 21
c4 7 14 17 21 35c9 25 9 53 9 80c0 28 -2 57 -4 85c-2 20 -2 39 -11 57c-4 7 -8 10 -10 12c-9 7 -22 7 -26 7c-5 0 -19 -1 -30 -12c-18 -18 -15 -48 -16 -72c0 -13 0 -26 -1 -38v-65c0 -6 -2 -37 6 -60c6 -17 18 -33 18 -52c0 -14 -5 -27 -14 -36c-19 -17 -60 -28 -118 -28
c-15 0 -44 0 -81 10c-5 2 -37 8 -51 31c-1 3 -6 12 -6 23c0 17 10 28 14 32c5 7 14 13 19 28c7 19 7 51 9 98v209c0 12 0 23 -1 34c-1 8 -2 17 -2 25c-1 17 1 32 -6 48c-14 28 -41 22 -41 56c0 22 15 44 53 65c60 33 128 41 152 41c2 0 40 0 54 -16c6 -7 7 -17 7 -27
c0 -22 -4 -43 -6 -64c-2 -25 -3 -50 -3 -76z" />
    <glyph glyph-name="i" unicode="i" horiz-adv-x="313" 
d="M261 392v-244c1 -14 2 -26 11 -37c14 -18 33 -25 33 -48c0 -14 -8 -29 -19 -38c-24 -21 -95 -29 -125 -29c-7 0 -40 1 -69 5c-8 1 -39 5 -63 18c-25 14 -31 32 -31 46c0 4 0 8 3 15c7 14 26 29 35 42c13 20 10 37 12 60c1 16 2 31 3 47c1 19 1 39 2 59c-1 14 -2 28 -3 44
c0 2 -1 18 -5 27c-3 6 -6 11 -18 20c-23 20 -29 27 -29 45c0 15 7 26 10 30c18 23 48 32 74 40c43 12 72 18 115 22c10 1 20 2 29 2c15 0 28 -3 38 -15c2 -3 6 -9 6 -18c0 -7 -2 -11 -3 -18c0 -4 -1 -7 -1 -11c-2 -22 -3 -43 -5 -64zM18 618c4 20 18 34 23 38
c43 41 111 38 124 38c61 0 91 -15 106 -39c2 -4 10 -17 10 -33c-1 -34 -30 -57 -38 -62c-13 -9 -61 -28 -112 -28c-42 0 -70 12 -83 20c-21 15 -34 42 -30 66z" />
    <glyph glyph-name="j" unicode="j" 
d="M43 99v179c-2 56 -4 68 -29 90c-15 14 -31 26 -31 47c0 5 1 14 8 24c6 9 22 23 47 35c69 34 150 42 172 42c4 0 12 0 22 -4c17 -7 26 -27 26 -46c0 -11 -2 -23 -3 -34v-469c0 -22 1 -44 -6 -65c-13 -37 -53 -84 -147 -84c-37 0 -66 7 -78 12s-25 12 -34 23
c-3 3 -15 16 -14 32c0 8 1 13 5 20c9 17 22 19 40 21c7 0 31 0 31 24c0 6 0 8 -3 19c-5 39 -7 60 -6 134zM-2 616c4 18 17 35 33 47c28 21 83 32 119 32c8 0 68 0 95 -38c5 -6 13 -19 13 -37c0 -11 -3 -26 -19 -45c-34 -42 -88 -51 -139 -51c-88 0 -110 54 -102 92z" />
    <glyph glyph-name="k" unicode="k" horiz-adv-x="625" 
d="M248 537v-122c0 -8 0 -17 1 -26c1 -12 3 -22 14 -22c6 0 12 3 13 4c15 9 33 33 33 51c0 13 -8 26 -8 39c1 13 6 33 33 41c15 4 48 7 89 7c29 0 84 -2 111 -13c28 -11 35 -31 35 -44c0 -4 -1 -11 -7 -19c-12 -18 -30 -19 -49 -19c-9 0 -52 5 -78 -25
c-12 -14 -14 -28 -14 -35c0 -11 6 -24 11 -34c24 -44 49 -87 75 -128c12 -21 26 -41 39 -61c1 -1 10 -14 17 -21c14 -14 22 -15 40 -24c9 -3 27 -11 27 -37c0 -3 -1 -18 -11 -26c-16 -14 -71 -26 -135 -26c-20 0 -40 2 -61 3c-4 0 -29 0 -42 9c-12 7 -20 21 -27 35
c-28 62 -35 75 -71 134c0 0 -11 25 -28 25c-10 -1 -10 -21 -10 -46c0 -35 4 -44 17 -56c14 -15 27 -23 27 -44c0 -12 -4 -31 -29 -42c-17 -7 -58 -19 -104 -19c-22 0 -45 3 -67 5c-29 3 -44 6 -56 11c-30 13 -39 37 -39 49c0 20 16 31 22 35c8 6 17 12 22 33
c9 34 10 94 11 181v97c0 25 -1 51 -2 77c0 4 1 40 -18 57c-6 6 -15 9 -22 13c-6 3 -22 14 -22 35c0 10 3 17 5 20c15 24 58 43 83 52c60 23 124 34 144 35c32 -1 40 -23 40 -36c0 -6 -2 -12 -3 -19s-1 -15 -2 -23c-1 -28 -3 -55 -4 -81z" />
    <glyph glyph-name="l" unicode="l" horiz-adv-x="313" 
d="M51 230v247c-1 42 -6 65 -22 76c-8 6 -28 14 -28 42c0 32 27 49 52 62c62 31 130 41 150 41c23 0 49 -8 58 -28c4 -10 4 -23 4 -36l-11 -231v-84c1 -47 1 -94 6 -140c5 -47 10 -63 26 -81c12 -13 20 -22 20 -40c0 -10 -3 -21 -10 -29c-24 -33 -90 -31 -129 -31
c-23 0 -47 1 -70 1c-25 1 -54 3 -75 18c-19 13 -22 33 -22 42c0 7 1 16 10 28c5 7 20 19 29 40c9 22 11 51 12 103z" />
    <glyph glyph-name="m" unicode="m" horiz-adv-x="896" 
d="M845 345l-8 -188c-1 -18 -1 -37 7 -52c10 -18 25 -29 25 -49c0 -12 -5 -22 -7 -26c-17 -25 -61 -33 -129 -33c-58 0 -93 5 -115 20c-17 12 -20 29 -19 37c0 6 1 15 9 25c10 11 12 12 17 25c9 24 7 50 8 74c1 14 1 28 2 42v50c-1 15 -2 49 -7 63c-3 6 -17 27 -41 27
c-4 0 -11 -1 -18 -6c-20 -14 -20 -41 -20 -48c-2 -25 -2 -51 -3 -76v-46c1 -33 2 -59 6 -72c8 -22 21 -32 21 -56c0 -40 -39 -49 -49 -52c-22 -5 -64 -9 -87 -9c-30 0 -66 4 -93 16c-28 12 -34 30 -34 43c0 8 1 13 4 19c5 8 14 16 20 35c8 23 7 38 9 81l3 45v44
c-1 18 -1 36 -6 51c-2 6 -11 32 -39 32c-5 0 -13 -1 -21 -10c-15 -17 -14 -40 -16 -85c-1 -14 -1 -28 -2 -42v-46c1 -32 2 -56 6 -69c7 -20 20 -30 20 -54c0 -36 -49 -48 -54 -49c-12 -3 -53 -8 -94 -8c-3 0 -66 -1 -98 18c-15 9 -24 23 -24 41c0 21 16 29 27 47
c9 13 9 30 9 46v94c0 18 -1 37 -1 56c-1 38 -5 50 -16 65c-14 17 -31 23 -31 47c0 10 4 19 5 22c11 21 35 29 78 47c50 21 77 34 134 34c42 0 43 -21 44 -40c-1 -13 -1 -17 3 -23c2 -3 4 -5 8 -5s8 3 18 12c39 35 68 55 123 55c13 0 71 -2 104 -40c8 -9 12 -19 17 -29
c2 -2 5 -8 10 -8c4 0 7 2 11 6c14 17 18 22 26 29c41 38 96 43 115 43s70 -5 109 -47c6 -7 19 -23 26 -46c8 -25 8 -50 8 -77z" />
    <glyph glyph-name="n" unicode="n" horiz-adv-x="604" 
d="M255 487v-23c0 -5 0 -9 2 -13c1 -5 7 -16 18 -16c6 0 11 3 20 13c1 2 13 16 23 25c29 27 69 42 110 42c17 0 66 -3 99 -45c21 -26 24 -53 26 -117v-189c0 -7 0 -39 13 -63c9 -18 24 -29 24 -49c0 -18 -10 -28 -15 -32c-22 -18 -75 -24 -101 -24c-17 0 -36 1 -72 5
c-31 4 -48 9 -60 17c-18 12 -21 28 -21 37c1 23 14 27 23 46c7 13 9 31 10 46c3 31 3 62 4 92c-1 63 -2 103 -31 117c-3 2 -11 5 -20 5c-8 0 -29 -4 -40 -23c-10 -19 -11 -57 -12 -108v-33c2 -58 4 -83 17 -109c7 -12 12 -19 12 -34c0 -10 -3 -26 -24 -39
c-15 -9 -53 -19 -103 -19c-6 0 -79 1 -120 23c-16 8 -27 20 -27 38c0 17 9 22 20 35c6 7 9 11 11 15c9 14 11 26 11 60v123c1 33 2 51 -5 63c-5 9 -16 18 -17 20c-15 12 -28 22 -28 40c0 4 1 12 6 21c9 19 26 30 64 47c56 24 93 35 154 35c29 0 30 -17 29 -29z" />
    <glyph glyph-name="o" unicode="o" horiz-adv-x="542" 
d="M13 262c0 33 2 102 61 168c29 34 89 86 201 86c80 0 125 -27 153 -50c89 -70 96 -175 96 -211c0 -16 -2 -60 -19 -103c-39 -102 -135 -161 -242 -161c-32 0 -107 4 -171 66c-31 30 -80 95 -79 205zM224 253c7 -47 28 -100 34 -112c0 -1 13 -27 30 -27c16 0 28 21 28 56
c0 12 -1 23 -2 34c-1 24 -4 72 -23 129c-11 32 -18 49 -31 58c-3 2 -8 5 -17 5c-21 0 -26 -32 -26 -56c0 -11 1 -49 7 -87z" />
    <glyph glyph-name="p" unicode="p" horiz-adv-x="562" 
d="M49 164v50c-1 31 -2 62 -2 94c-1 39 -9 57 -25 68c-9 6 -24 14 -24 39c0 13 4 33 30 48c16 9 61 26 109 38c32 8 54 14 68 14c2 0 15 -1 23 -4c21 -8 20 -30 20 -39c0 -14 1 -34 15 -34c8 0 11 6 15 13c5 8 9 16 15 23c11 14 33 40 81 40c16 0 30 -3 45 -8
c20 -7 56 -25 80 -71c15 -27 40 -88 40 -172c0 -20 -2 -128 -52 -198c-18 -25 -38 -39 -48 -46c-13 -8 -43 -25 -85 -25c-17 0 -32 2 -65 12c-6 2 -13 4 -18 4c-17 0 -17 -22 -17 -25c4 -49 3 -58 29 -72c20 -11 36 -17 35 -40c0 -5 -1 -19 -13 -30
c-16 -14 -56 -24 -107 -24c-42 0 -122 11 -161 27c-23 10 -51 26 -51 55c0 9 2 23 18 34c15 11 24 9 32 27c11 27 11 103 11 129c1 24 2 48 2 73zM248 316v-163c1 -39 4 -62 27 -62c7 0 17 3 28 16c28 31 28 76 28 120c0 39 -2 81 -25 113c-4 5 -13 19 -31 18
c-6 0 -12 -2 -17 -6c-9 -9 -10 -22 -10 -36z" />
    <glyph glyph-name="q" unicode="q" horiz-adv-x="542" 
d="M13 235c1 23 6 124 59 193c45 57 120 88 193 88c10 0 32 -1 60 -7c43 -8 47 -10 74 -10c11 0 21 0 45 4c11 2 24 6 36 6c9 0 13 -2 16 -4c11 -7 16 -24 16 -38c-1 -12 -3 -23 -5 -35c-2 -15 -4 -31 -5 -47c-5 -48 -6 -98 -6 -147c0 -62 2 -125 3 -187c0 -31 -1 -62 4 -92
c4 -26 8 -34 17 -44c15 -15 29 -22 29 -43c0 -6 -2 -19 -12 -29c-21 -19 -79 -23 -105 -23c-17 0 -92 2 -147 25c-8 4 -47 18 -47 56c0 22 16 31 24 35c4 2 14 3 21 10c8 9 15 28 15 60c0 5 1 26 -18 26c-8 0 -10 -3 -21 -14c-4 -4 -10 -7 -14 -10c-10 -5 -30 -14 -59 -14
c-16 0 -49 3 -83 27c-38 28 -92 98 -90 214zM216 298c-1 -34 3 -69 9 -101c6 -27 11 -43 18 -53c2 -3 15 -20 30 -20c17 0 26 28 29 43c3 12 7 56 7 102c0 50 -5 98 -10 111c-7 23 -23 31 -31 31c-9 0 -18 -9 -20 -12c-30 -32 -31 -94 -32 -101z" />
    <glyph glyph-name="r" unicode="r" horiz-adv-x="437" 
d="M1 428c9 28 39 44 66 57c54 25 109 31 131 31c29 0 38 -18 48 -43c1 -2 5 -14 11 -14c8 1 20 19 24 25c3 4 7 8 11 12c20 20 38 22 51 22c11 0 27 -2 44 -19c33 -32 37 -77 37 -92c0 -51 -30 -104 -86 -104c-40 0 -61 35 -67 43c-3 4 -6 9 -10 9c-2 0 -4 -2 -4 -2
c-6 -5 -10 -15 -11 -33c0 -31 -2 -62 -2 -94c0 -57 0 -106 18 -122c8 -8 22 -7 34 -12c18 -10 21 -26 21 -33c-1 -32 -45 -44 -48 -45c-20 -8 -52 -16 -105 -16c-12 0 -24 0 -35 1c-34 2 -78 4 -106 26c-11 9 -20 22 -20 37c0 21 17 23 29 38c11 12 14 36 15 38
c2 10 7 62 7 107c0 21 -1 42 -2 63c-2 24 -5 50 -27 66c-17 13 -27 15 -27 37c0 5 0 8 3 17z" />
    <glyph glyph-name="s" unicode="s" horiz-adv-x="458" 
d="M185 160l-27 15c-45 26 -55 37 -75 59c-17 18 -55 55 -55 123c0 13 2 42 18 74c40 78 130 83 155 83c22 0 32 -1 71 -8c16 -3 20 -3 36 1c12 2 14 2 26 2c13 0 30 -3 51 -27c33 -35 39 -71 39 -91c0 -31 -20 -57 -53 -57c-27 0 -44 20 -63 42c-14 15 -31 33 -53 33
c-17 0 -25 -14 -25 -21c1 -14 26 -31 35 -37l58 -34c19 -11 39 -23 56 -37c34 -29 60 -73 60 -118c0 -19 -5 -62 -38 -103c-18 -22 -64 -66 -145 -66c-28 0 -61 7 -68 9c-16 4 -21 5 -30 5c-12 0 -21 -3 -26 -4c-4 -1 -26 -4 -41 -1c-16 3 -36 16 -55 50c-3 6 -30 54 -30 92
c0 31 19 60 53 60c28 0 45 -20 74 -61c15 -18 35 -42 62 -41c18 0 25 14 25 21c-1 17 -22 30 -35 37z" />
    <glyph glyph-name="t" unicode="t" horiz-adv-x="375" 
d="M-12 476c9 22 40 37 60 50c21 14 40 27 59 43c13 10 26 22 40 33c21 16 40 31 66 31c34 0 44 -24 44 -54c0 -20 -5 -47 9 -58c12 -9 24 -7 38 -7c9 0 17 0 26 -1c13 -1 18 -3 21 -6c4 -3 6 -10 8 -22c2 -19 2 -33 2 -41c0 -31 -4 -36 -20 -38c-16 -3 -58 -2 -73 -8
c-15 -7 -17 -23 -18 -29c-1 -12 -4 -70 -4 -115c0 -47 3 -82 12 -97c6 -9 17 -16 29 -16s23 7 36 7s35 -9 35 -44s-24 -62 -50 -78c-45 -27 -119 -31 -129 -31c-8 0 -28 0 -49 7c-22 7 -60 24 -76 79c-3 11 -6 30 -6 57c0 21 1 42 2 62c1 26 2 51 2 76c0 24 -1 49 -2 73
c-1 23 -1 31 -6 41c-3 8 -9 12 -25 20c-11 5 -34 15 -34 47c0 4 0 11 3 19z" />
    <glyph glyph-name="u" unicode="u" horiz-adv-x="583" 
d="M250 401v-193c0 -23 -1 -43 18 -57c9 -8 18 -9 23 -9c11 0 18 7 21 10c21 20 22 47 22 73v87c-2 42 -1 65 -12 82c-7 12 -15 14 -25 24c-3 4 -11 13 -11 27c0 8 3 24 18 36c24 20 81 35 158 35c8 0 17 0 25 -1c14 -1 51 -2 51 -45c0 -11 -5 -31 -6 -42
c-4 -22 -4 -36 -4 -59v-154c3 -54 5 -83 24 -101c12 -12 23 -17 23 -34c0 -27 -29 -51 -51 -61c-30 -16 -83 -27 -116 -27s-56 8 -65 18c-4 5 -8 13 -12 27c-2 7 -4 13 -9 13c-2 0 -5 -1 -13 -6c-40 -33 -67 -51 -123 -51c-8 0 -28 0 -49 6c-35 10 -68 38 -81 73
c-9 24 -10 51 -11 78v187c-2 37 -2 46 -17 60c-16 14 -28 23 -28 45c0 26 14 40 58 54c40 13 66 16 109 18c10 1 21 2 32 2s34 -2 44 -32c7 -21 7 -61 7 -83z" />
    <glyph glyph-name="v" unicode="v" horiz-adv-x="562" 
d="M430 511h14c15 0 29 -1 43 -3c13 -1 29 -4 41 -9c26 -12 31 -31 31 -42c0 -5 -2 -21 -14 -30c-5 -4 -11 -5 -17 -8c-20 -11 -30 -30 -39 -48c-19 -43 -38 -86 -56 -129c-14 -34 -29 -68 -44 -101s-32 -65 -48 -98c-8 -13 -14 -21 -18 -25c-13 -16 -33 -26 -53 -26
c-11 0 -21 3 -24 5c-22 8 -31 24 -42 45c-19 38 -38 77 -55 117c-17 39 -33 79 -49 118c-13 33 -27 65 -41 97c-17 34 -24 26 -43 39c-5 4 -18 14 -17 34c0 29 23 43 48 51c28 9 85 14 115 14c1 0 68 0 102 -16c17 -8 32 -25 32 -44c0 -6 -1 -14 -8 -23
c-8 -13 -15 -17 -15 -31c0 -10 3 -20 3 -23c10 -34 20 -51 27 -66c5 -7 11 -15 17 -14c7 0 14 9 18 15c11 17 17 27 28 63c1 3 3 12 3 21c0 11 -4 18 -7 21c-14 17 -33 21 -33 44c0 13 7 23 10 27c19 24 64 25 91 25z" />
    <glyph glyph-name="w" unicode="w" horiz-adv-x="896" 
d="M281 373l28 -58c9 -16 17 -26 25 -26c13 0 23 22 23 22l18 42c3 25 6 42 -11 57c-6 6 -15 11 -21 18c-3 3 -14 16 -13 29c0 5 2 17 12 26c20 16 74 28 141 28c4 0 83 2 120 -22c16 -11 20 -21 20 -31c0 -19 -15 -25 -25 -38c-4 -6 -6 -12 -6 -20c0 -9 1 -13 5 -27
c14 -39 20 -47 31 -68c1 -1 10 -14 18 -14c6 0 12 7 18 15c13 23 18 30 31 73c1 4 4 15 4 25c0 13 -4 18 -14 25c-14 11 -25 17 -25 35c0 34 43 46 101 46c17 0 34 -1 50 -3c7 0 41 -1 64 -20c13 -11 15 -21 15 -29c0 -13 -6 -20 -28 -31c-20 -10 -28 -14 -46 -47
c-16 -33 -33 -66 -47 -100c-17 -38 -32 -76 -48 -115c-17 -38 -34 -77 -51 -115c-3 -5 -6 -11 -9 -16c-19 -33 -42 -42 -60 -42c-28 0 -41 18 -55 39c-16 28 -32 55 -47 83s-29 56 -42 84c-7 9 -13 18 -21 17c-12 0 -17 -14 -19 -16l-56 -129c-11 -24 -23 -48 -45 -65
c-4 -3 -15 -12 -30 -12c-9 0 -19 5 -22 6c-23 13 -37 36 -49 58c-24 48 -48 96 -70 145c-25 52 -47 105 -70 158c-13 29 -20 36 -34 43c-8 3 -16 6 -24 11c-10 7 -18 20 -18 33c0 7 2 19 16 30c31 26 110 34 149 34c11 0 39 -1 68 -7c28 -6 41 -16 50 -26
c3 -3 11 -14 11 -26c0 -17 -18 -34 -18 -52c0 -6 2 -13 6 -27z" />
    <glyph glyph-name="x" unicode="x" horiz-adv-x="562" 
d="M119 167l41 71c5 11 7 15 6 21c0 7 -3 14 -11 27l-49 74c-17 23 -29 40 -38 48c-4 3 -10 7 -21 11c-8 4 -31 11 -31 38c0 13 8 32 38 42c29 10 93 11 125 12c28 -1 57 -1 87 -5c35 -4 48 -14 56 -28c4 -7 6 -14 6 -21c0 -8 -3 -13 -5 -16c-5 -11 -14 -19 -14 -31
c0 -8 3 -15 7 -24c1 -1 11 -20 25 -20c16 1 26 23 26 24c5 11 9 18 9 29c0 13 -12 27 -12 42c0 11 6 21 8 23c18 25 54 26 82 27c44 -2 68 -5 86 -16s21 -28 21 -35c0 -4 -1 -11 -6 -19c-11 -21 -32 -24 -53 -33c-18 -8 -25 -18 -37 -36l-41 -58c-13 -23 -16 -29 -16 -42
c0 -18 13 -39 15 -43l33 -57c23 -34 41 -62 75 -84c17 -10 29 -15 29 -36c-1 -9 -5 -27 -25 -38s-71 -14 -130 -17c-25 1 -50 1 -77 3c-5 0 -30 1 -47 9c-16 6 -28 21 -28 40c0 5 1 10 5 18c6 10 14 19 14 30c0 5 -2 12 -8 25c-7 13 -16 29 -29 29c-17 0 -29 -26 -29 -27
c-2 -3 -10 -14 -10 -27c0 -17 10 -22 18 -35c4 -8 5 -13 5 -18c0 -7 -2 -21 -16 -30c-23 -16 -83 -15 -107 -16c-35 1 -56 2 -69 7c-24 11 -29 31 -29 40c0 5 1 13 7 22c9 15 20 16 34 21c5 2 9 4 14 7c21 13 37 30 66 72z" />
    <glyph glyph-name="y" unicode="y" horiz-adv-x="583" 
d="M297 370c10 -29 15 -41 29 -66c7 -10 12 -13 17 -13c5 1 11 7 16 13c10 19 14 26 20 61c3 25 2 33 -5 43c-11 18 -28 25 -28 46c1 15 9 29 20 37c16 12 49 20 97 20c24 0 68 -3 88 -15c23 -13 29 -36 29 -44c0 -3 -1 -11 -5 -18c-9 -15 -19 -15 -32 -22
c-9 -4 -19 -12 -26 -19c-11 -13 -18 -34 -24 -50c-5 -10 -9 -20 -14 -31c-14 -43 -29 -85 -43 -128c-20 -60 -39 -121 -59 -181c-6 -17 -13 -34 -20 -51c-17 -36 -65 -132 -189 -132c-63 0 -104 29 -121 48c-18 20 -27 50 -27 77c0 16 3 24 6 30c13 35 48 60 86 60
c18 0 69 -8 80 -64c0 0 1 -25 15 -25c2 0 5 1 9 4c16 11 16 33 16 36c0 13 -2 22 -10 46c-43 101 -88 201 -133 301c-17 33 -29 52 -42 63c-19 16 -48 25 -48 54c0 7 2 13 5 19c10 18 26 24 43 29c21 7 50 13 100 13c27 0 54 -2 81 -4c22 -2 45 -3 63 -14
c14 -9 25 -24 25 -39c0 -19 -11 -28 -18 -43c-4 -8 -3 -14 -3 -18c0 -5 0 -11 2 -23z" />
    <glyph glyph-name="z" unicode="z" horiz-adv-x="458" 
d="M-3 393c4 50 24 82 37 98c20 23 37 26 49 26c16 0 34 -6 51 -10c6 -1 21 -3 38 -3c28 0 58 1 87 1c20 1 39 1 59 2c18 1 38 4 57 4c8 0 33 0 45 -21c3 -6 5 -14 5 -21c0 -29 -42 -104 -55 -130c-18 -35 -36 -70 -51 -105c-8 -17 -15 -34 -23 -51c-5 -13 -10 -22 -10 -35
c0 -15 6 -27 21 -27c6 0 10 2 11 2c22 7 30 31 43 50c5 6 18 23 40 23c36 0 52 -37 52 -71c0 -43 -24 -82 -29 -92c-3 -6 -16 -41 -49 -41c-2 0 -7 1 -12 2c-9 2 -18 5 -26 7c-10 1 -28 3 -54 3c-30 0 -60 -2 -90 -2c-29 -1 -57 -1 -87 -3c-8 0 -16 -1 -24 -1
c-5 0 -20 0 -34 6c-21 8 -31 23 -32 43c0 11 3 19 4 23c9 38 30 64 65 131c24 46 45 91 68 137c11 22 14 27 14 40c0 22 -22 25 -30 25c-2 0 -11 -1 -20 -5c-20 -11 -24 -33 -36 -52c-9 -14 -22 -25 -38 -25c-4 0 -15 1 -25 8c-20 15 -22 39 -21 64z" />
    <glyph glyph-name="braceleft" unicode="{" horiz-adv-x="354" 
d="M112 414v123s-5 87 15 133c6 13 15 26 26 37c7 6 21 18 43 26c43 16 115 15 158 15v-8c-30 -6 -58 -13 -82 -39c-25 -27 -27 -63 -27 -129v-95c1 -91 0 -146 -29 -184c-25 -33 -67 -41 -76 -44c31 -10 55 -18 78 -47c29 -37 28 -83 28 -170v-107c0 -68 4 -105 30 -131
c24 -23 49 -30 78 -37v-7c-97 0 -155 3 -194 35c-49 40 -49 110 -48 163v126c1 12 1 23 0 35c0 57 -8 80 -27 103c-3 4 -9 12 -20 19c-9 7 -13 9 -31 15v7c14 3 21 6 28 10c53 31 50 106 50 151z" />
    <glyph glyph-name="bar" unicode="|" horiz-adv-x="229" 
d="M178 -250h-127v998h127v-998z" />
    <glyph glyph-name="braceright" unicode="}" horiz-adv-x="354" 
d="M242 83v-122c1 -35 2 -94 -12 -128c-4 -9 -12 -26 -31 -43c-14 -13 -30 -22 -45 -28c-42 -14 -112 -12 -154 -12v7c25 5 46 9 69 27c5 4 12 11 13 11c25 28 27 64 27 131v95c0 31 0 63 2 96c1 30 6 58 26 84c27 37 64 43 77 47c-4 1 -26 7 -42 17c-39 22 -52 56 -56 70
c-7 25 -8 69 -8 130v108c0 69 -4 109 -35 135c-21 19 -49 26 -73 32v8c81 0 132 -3 167 -19c40 -18 54 -47 61 -62c12 -28 13 -58 14 -117v-127c-1 -70 0 -103 24 -135c15 -20 31 -27 54 -36v-8c-4 -1 -24 -6 -37 -16c-44 -32 -41 -101 -41 -145z" />
    <glyph glyph-name="asciitilde" unicode="~" horiz-adv-x="729" 
d="M362 232l-27 13c-24 11 -46 23 -73 23c-13 -1 -25 -3 -37 -8c-21 -10 -36 -28 -67 -63l-55 104c16 22 63 94 156 94c30 0 53 -7 104 -31l35 -16c22 -10 52 -22 77 -22c50 0 96 57 99 61l52 -105c-9 -10 -19 -22 -43 -40c-14 -10 -58 -43 -113 -43c-32 0 -54 7 -108 33z
" />
    <glyph glyph-name="exclamdown" unicode="&#xa1;" 
d="M6 151c1 113 39 190 61 224c20 31 36 48 53 48c9 0 20 -3 31 -14c11 -12 24 -30 32 -45c9 -16 58 -121 58 -211c0 -47 -14 -85 -22 -101c-27 -48 -79 -54 -97 -54c-55 0 -92 33 -108 83c-5 15 -8 34 -8 70zM20 583c2 40 18 79 54 98c15 8 31 12 48 12
c35 0 103 -24 103 -118c0 -15 -1 -73 -50 -103c-9 -5 -26 -15 -53 -15c-28 1 -46 12 -55 17c-48 33 -48 91 -47 109z" />
    <glyph glyph-name="sterling" unicode="&#xa3;" horiz-adv-x="583" 
d="M106 360l-9 27c-4 14 -7 27 -7 42c0 36 20 88 95 122c25 11 93 37 176 37c79 0 132 -22 158 -38c38 -22 44 -44 44 -65c0 -2 0 -12 -2 -20c-4 -13 -16 -49 -55 -49c-27 1 -43 17 -61 38c-19 24 -36 44 -67 44c-25 0 -47 -17 -47 -44c1 -11 4 -19 8 -29l22 -65
c7 -22 12 -25 35 -26l36 4c11 1 14 1 19 0c25 -6 23 -47 23 -49c-3 -40 -9 -43 -32 -48h-45c-18 0 -21 -3 -26 -19l-6 -31c-4 -25 -1 -28 21 -35l68 -17c3 -1 19 -5 32 -5c10 0 15 2 22 9c13 13 19 29 36 29c16 -1 29 -20 29 -52c0 -9 -1 -31 -13 -55
c-14 -29 -48 -74 -128 -74c-74 0 -123 37 -145 51c-1 1 -9 7 -15 7c-6 -1 -11 -5 -18 -9c-35 -25 -62 -41 -107 -41c-52 0 -112 29 -112 89c0 39 33 68 65 80c16 6 32 9 38 10c6 2 22 5 22 19c0 5 -1 7 -3 17c-9 24 -14 27 -38 28h-39c-4 0 -12 -1 -21 3
c-17 8 -27 26 -27 45c0 5 0 13 6 23c8 14 21 14 39 13c17 1 32 2 32 18c0 4 -1 7 -3 16zM110 99c-2 -2 -7 -9 -7 -18c0 -14 16 -16 20 -16c7 0 20 4 32 21c4 5 7 11 7 16c0 8 -11 13 -22 12c-5 0 -20 -2 -30 -15z" />
    <glyph glyph-name="fraction" unicode="&#x2044;" horiz-adv-x="125" 
d="M64 375l136 240c12 22 16 26 40 28c13 -1 24 -2 24 -11c0 -8 -4 -14 -8 -21l-148 -265l-185 -326c-12 -23 -17 -28 -42 -33c-4 1 -26 1 -26 16c0 6 7 15 7 16z" />
    <glyph glyph-name="section" unicode="&#xa7;" horiz-adv-x="542" 
d="M234 83l-52 16c-57 20 -108 39 -142 93c-7 12 -22 38 -22 74c0 21 7 75 56 115c16 12 34 21 52 30c-7 4 -14 9 -21 14c-20 14 -64 47 -63 117c0 16 2 49 26 81c30 41 88 76 202 76c19 0 38 -1 57 -3c7 -1 100 -12 148 -44c22 -15 34 -29 34 -39c0 -3 -1 -8 -5 -14
c-7 -10 -14 -16 -34 -26c-4 -2 -25 -15 -43 -15c-14 0 -27 7 -52 22c-30 15 -58 31 -92 31c-3 0 -54 -1 -54 -36c0 -8 3 -13 4 -15c13 -21 56 -33 77 -38l42 -13c54 -19 82 -30 102 -47c17 -12 56 -50 55 -115c0 -18 -3 -38 -10 -54c-17 -44 -50 -66 -90 -90
c9 -5 17 -10 25 -15c22 -14 70 -48 70 -121c0 -31 -9 -61 -25 -86c-28 -43 -89 -96 -211 -96c-34 0 -145 4 -230 69c-16 12 -32 30 -32 52c0 23 26 31 69 36c19 3 34 5 42 5c15 -1 24 -4 45 -23c11 -12 16 -17 22 -21c29 -22 68 -24 79 -24c45 1 61 27 61 46
c0 6 -2 15 -11 24c-21 21 -52 27 -79 34zM228 270l90 -32c20 12 35 24 35 48c0 2 -1 12 -5 20c-8 16 -23 22 -40 29l-93 36c-20 -11 -38 -24 -38 -48c0 -9 3 -16 5 -18c11 -20 28 -27 46 -35z" />
    <glyph glyph-name="currency" unicode="&#xa4;" horiz-adv-x="667" 
d="M579 187l81 -82l-96 -95l-81 82c-31 -16 -72 -42 -150 -42s-120 26 -151 44l-81 -82l-95 95l82 82c-6 9 -12 19 -17 29c-12 23 -26 63 -26 126c0 76 24 113 42 146l-80 80l95 95l80 -80c35 19 74 43 152 43c79 0 115 -23 150 -43l81 81l96 -96l-81 -80
c19 -35 42 -72 42 -150c0 -81 -23 -117 -43 -153zM497 340c0 17 -2 71 -43 113c-20 20 -60 52 -121 52c-9 0 -32 -1 -57 -11c-42 -15 -106 -58 -106 -158c0 -95 78 -162 167 -162c16 0 55 1 95 32c61 47 65 114 65 134z" />
    <glyph glyph-name="quotesingle" unicode="'" horiz-adv-x="208" 
d="M121 408h-32l-54 250c0 4 -4 26 0 41c4 19 27 50 74 50c7 0 23 0 40 -11c28 -19 27 -41 25 -68z" />
    <glyph glyph-name="quotedblleft" unicode="&#x201c;" horiz-adv-x="521" 
d="M161 708h17c8 -1 30 -4 30 -30c0 -18 -10 -21 -25 -45c-18 -26 -26 -57 -26 -69c0 -20 16 -27 33 -38c6 -3 15 -11 19 -15c12 -13 31 -44 31 -90c0 -9 -1 -30 -10 -54c-24 -57 -77 -63 -98 -63c-32 0 -52 12 -61 19c-24 18 -51 66 -50 138c1 68 31 158 72 212
c19 26 36 35 68 35zM286 468c3 66 35 156 77 207c19 24 36 33 66 33c27 0 40 -6 45 -17c3 -6 3 -12 3 -14c0 -14 -8 -22 -17 -33c-3 -3 -5 -6 -7 -9c-12 -18 -29 -49 -29 -73c1 -19 17 -26 33 -37c6 -4 14 -11 17 -15c12 -13 30 -43 30 -87c0 -9 -1 -31 -10 -54
c-22 -58 -75 -65 -98 -65c-10 0 -39 2 -62 20c-38 30 -49 99 -48 144z" />
    <glyph glyph-name="guillemotleft" unicode="&#xab;" horiz-adv-x="521" 
d="M240 402l-61 -107c-3 -4 -13 -22 -13 -39c0 -9 4 -24 8 -33c24 -52 35 -72 67 -120c3 -3 12 -16 12 -29c0 -10 -11 -31 -40 -31c-9 0 -22 2 -41 13c-26 14 -89 62 -135 137c-3 6 -22 36 -22 62c0 27 17 53 34 77c42 61 81 92 106 109c16 12 36 25 56 25s38 -15 38 -37
c0 -12 -4 -18 -9 -27zM476 395c-34 -51 -42 -66 -57 -96c-2 -4 -14 -26 -14 -44c0 -9 3 -20 12 -41c15 -33 25 -53 62 -109c2 -3 12 -18 12 -31c0 -3 0 -6 -3 -11c-4 -8 -13 -20 -35 -20c-11 0 -20 2 -29 7c-33 14 -102 62 -149 148c-9 16 -22 39 -21 57c0 20 14 46 38 81
c40 57 73 83 95 100c28 22 40 30 57 30c8 0 44 -5 44 -40c0 -16 -10 -28 -12 -31z" />
    <glyph glyph-name="fi" unicode="&#xfb01;" horiz-adv-x="688" 
d="M24 432c11 4 20 7 20 16c0 7 -5 17 -6 19c-14 29 -28 58 -28 93c0 51 34 84 47 95c10 8 17 12 39 22c18 8 49 22 99 22c12 0 93 -2 141 -40c32 -25 36 -60 36 -74c0 -4 -1 -18 -6 -30c-13 -31 -41 -51 -74 -51c-15 0 -28 5 -32 7c-19 8 -31 20 -54 55c-9 9 -17 17 -28 17
c-15 0 -28 -14 -28 -28c0 -7 1 -11 4 -18c9 -19 25 -29 42 -38c43 -24 53 -33 75 -52c15 -11 19 -12 39 -11c11 1 12 1 19 0c26 -4 28 -25 29 -49c-1 -28 -3 -45 -11 -56c-7 -10 -14 -10 -26 -10c-8 1 -32 5 -37 -21c0 -4 -2 -23 -3 -39c1 -19 2 -38 4 -57
c0 -12 1 -24 2 -36c4 -27 10 -43 19 -50c4 -4 5 -4 14 -7c8 -3 45 -12 45 -46c0 -6 -2 -12 -5 -17c-7 -14 -27 -25 -39 -30c-23 -10 -67 -20 -132 -20c-20 0 -40 1 -60 3c-50 3 -121 12 -120 62c0 11 2 24 20 39c17 14 26 17 34 36c10 23 11 65 13 127c0 15 1 37 -11 46
c-6 5 -14 7 -23 9c-16 0 -43 -2 -43 39c0 10 1 21 2 31c1 13 1 22 3 27c4 9 17 14 20 15zM636 392v-244c1 -14 2 -26 11 -37c14 -18 33 -25 33 -48c0 -14 -8 -29 -19 -38c-24 -21 -95 -29 -125 -29c-7 0 -40 1 -69 5c-8 1 -39 5 -63 18c-25 14 -31 32 -31 46c0 4 0 8 3 15
c7 14 26 29 35 42c13 20 10 37 12 60c1 16 2 31 3 47c1 19 1 39 2 59c-1 14 -2 28 -3 44c0 2 -1 18 -5 27c-3 6 -6 11 -18 20c-23 20 -29 27 -29 45c0 15 7 26 10 30c18 23 48 32 74 40c43 12 72 18 115 22c10 1 20 2 29 2c15 0 28 -3 38 -15c2 -3 6 -9 6 -18
c0 -7 -2 -11 -3 -18c0 -4 -1 -7 -1 -11c-2 -22 -3 -43 -5 -64zM393 618c4 20 18 34 23 38c43 41 111 38 124 38c61 0 91 -15 106 -39c2 -4 10 -17 10 -33c-1 -34 -30 -57 -38 -62c-13 -9 -61 -28 -112 -28c-42 0 -70 12 -83 20c-21 15 -34 42 -30 66z" />
    <glyph glyph-name="fl" unicode="&#xfb02;" horiz-adv-x="688" 
d="M24 432c11 4 20 7 20 16c0 7 -5 17 -6 19c-14 29 -28 58 -28 93c0 51 34 84 47 95c10 8 17 12 39 22c18 8 49 22 99 22c12 0 93 -2 141 -40c32 -25 36 -60 36 -74c0 -4 -1 -18 -6 -30c-13 -31 -41 -51 -74 -51c-15 0 -28 5 -32 7c-19 8 -31 20 -54 55c-9 9 -17 17 -28 17
c-15 0 -28 -14 -28 -28c0 -7 1 -11 4 -18c9 -19 25 -29 42 -38c43 -24 53 -33 75 -52c15 -11 19 -12 39 -11c11 1 12 1 19 0c26 -4 28 -25 29 -49c-1 -28 -3 -45 -11 -56c-7 -10 -14 -10 -26 -10c-8 1 -32 5 -37 -21c0 -4 -2 -23 -3 -39c1 -19 2 -38 4 -57
c0 -12 1 -24 2 -36c4 -27 10 -43 19 -50c4 -4 5 -4 14 -7c8 -3 45 -12 45 -46c0 -6 -2 -12 -5 -17c-7 -14 -27 -25 -39 -30c-23 -10 -67 -20 -132 -20c-20 0 -40 1 -60 3c-50 3 -121 12 -120 62c0 11 2 24 20 39c17 14 26 17 34 36c10 23 11 65 13 127c0 15 1 37 -11 46
c-6 5 -14 7 -23 9c-16 0 -43 -2 -43 39c0 10 1 21 2 31c1 13 1 22 3 27c4 9 17 14 20 15zM427 230v247c-1 42 -6 65 -22 76c-8 6 -28 14 -28 42c0 32 27 49 52 62c62 31 130 41 150 41c23 0 49 -8 58 -28c4 -10 4 -23 4 -36l-11 -231v-84c1 -47 1 -94 6 -140
c5 -47 10 -63 26 -81c12 -13 20 -22 20 -40c0 -10 -3 -21 -10 -29c-24 -33 -90 -31 -129 -31c-23 0 -47 1 -70 1c-25 1 -54 3 -75 18c-19 13 -22 33 -22 42c0 7 1 16 10 28c5 7 20 19 29 40c9 22 11 51 12 103z" />
    <glyph glyph-name="endash" unicode="&#x2013;" horiz-adv-x="479" 
d="M84 339c59 -4 117 -8 176 -8c57 0 113 4 170 9c1 0 10 0 14 -2c10 -3 20 -13 20 -34c0 -17 -8 -49 -12 -64c-6 -22 -11 -33 -18 -40c-7 -6 -16 -9 -37 -13c-64 4 -129 9 -194 9c-54 0 -109 -2 -163 -5c-22 4 -30 7 -30 29c0 34 24 87 25 89c15 30 34 30 49 30z" />
    <glyph glyph-name="dagger" unicode="&#x2020;" horiz-adv-x="583" 
d="M156 471h34v48c0 36 -4 44 -18 57c-7 5 -28 18 -27 43c0 10 3 20 9 28c22 30 67 34 144 34c52 0 80 -5 102 -17c8 -4 29 -18 29 -46c0 -4 -1 -13 -5 -21c-7 -12 -22 -21 -30 -33c-7 -9 -10 -20 -11 -44v-50h40c41 3 42 10 62 27c3 3 15 13 29 12c10 0 32 -9 42 -41
c4 -14 6 -44 6 -86c0 -45 -4 -79 -14 -95c-3 -6 -12 -17 -31 -17c-18 0 -29 15 -45 25c-16 9 -39 11 -43 11h-45v-259c1 -41 7 -50 23 -65c6 -6 24 -18 24 -43c0 -56 -73 -58 -114 -58c-23 0 -47 0 -70 1c-27 1 -35 1 -49 4c-27 7 -53 26 -53 52c0 8 2 21 16 35
c7 7 16 14 22 22c8 11 9 28 9 59v253h-30c-17 0 -31 -1 -45 -9c-17 -12 -25 -28 -47 -28c-4 0 -15 1 -25 9c-25 19 -28 59 -30 86c-1 13 -1 27 -1 40c0 2 -1 54 14 81c11 19 29 23 38 23c4 0 9 -1 17 -5c12 -6 20 -17 30 -23c9 -6 19 -8 43 -10z" />
    <glyph glyph-name="periodcentered" unicode="&#xb7;" horiz-adv-x="187" 
d="M183 286c0 -5 -1 -19 -8 -34c-16 -32 -50 -50 -81 -50c-48 0 -90 39 -90 88c0 7 1 18 7 33c8 18 31 58 83 58c22 0 36 -6 43 -10c44 -22 47 -72 46 -85z" />
    <glyph glyph-name="paragraph" unicode="&#xb6;" horiz-adv-x="667" 
d="M558 706v-78h-36v-795h-84v795h-117v-795h-85v459c-3 1 -26 7 -43 14c-56 25 -81 67 -91 88c-6 12 -11 29 -14 41c-2 9 -6 32 -6 57c0 19 2 85 46 139c11 14 38 44 82 60c27 11 46 14 98 15h250z" />
    <glyph glyph-name="bullet" unicode="&#x2022;" horiz-adv-x="333" 
d="M322 352c-1 -52 -24 -90 -39 -107c-39 -46 -101 -48 -114 -48c-33 0 -65 9 -92 29c-23 17 -65 60 -65 127c0 27 6 46 11 57c13 33 58 98 146 98c11 0 34 -1 62 -12c85 -37 91 -121 91 -144z" />
    <glyph glyph-name="quotesinglbase" unicode="&#x201a;" horiz-adv-x="250" 
d="M9 130c9 85 76 101 107 101c10 0 36 -1 58 -18c23 -17 52 -58 52 -127c0 -85 -43 -167 -53 -186c-24 -41 -43 -60 -63 -67c-11 -4 -29 -4 -41 -4c-9 0 -11 0 -19 2c-18 7 -22 24 -22 29c0 12 11 23 21 35c13 17 22 38 25 42c9 19 12 26 12 37c-1 18 -15 23 -29 32
c-9 7 -16 13 -22 22c-11 15 -31 50 -26 102z" />
    <glyph glyph-name="quotedblbase" unicode="&#x201e;" horiz-adv-x="521" 
d="M12 127c8 86 73 104 106 104c12 0 35 -1 58 -18c25 -18 54 -57 54 -129c0 -87 -40 -163 -53 -185c-34 -62 -57 -71 -95 -71c-7 0 -29 -2 -42 15c-2 2 -6 7 -6 15c0 11 8 19 23 40c22 30 34 57 34 73c0 9 -2 13 -4 16c-6 12 -15 13 -26 19c-4 3 -14 10 -23 22
c-12 16 -31 50 -26 99zM275 121c0 9 2 31 14 54c18 35 53 56 92 55c8 0 28 -1 48 -11c30 -16 65 -58 65 -140c0 -10 -1 -29 -5 -55c-13 -78 -49 -141 -67 -164c-21 -28 -39 -35 -74 -35c-31 0 -43 19 -43 31s15 27 23 40c10 14 11 17 21 44c5 10 9 18 9 29
c0 23 -23 30 -28 33c-6 3 -14 9 -24 21c-23 27 -33 63 -31 98z" />
    <glyph glyph-name="quotedblright" unicode="&#x201d;" horiz-adv-x="521" 
d="M11 589v10c3 56 32 82 50 94c23 15 46 17 57 17c28 0 48 -12 56 -17c26 -18 56 -58 56 -132c-1 -112 -63 -212 -87 -236c-10 -10 -17 -14 -23 -16c-10 -3 -18 -4 -40 -4c-5 0 -24 -1 -36 12c-3 3 -7 9 -7 16c0 5 1 9 3 13c4 9 10 15 21 30c3 5 30 43 30 74
c0 19 -12 22 -27 32c-3 2 -13 9 -21 18c-11 13 -32 44 -32 89zM275 606c3 23 11 43 15 49c18 34 52 56 91 56c9 -1 34 -2 57 -18c26 -18 57 -61 57 -137c0 -15 -1 -37 -8 -69c-10 -42 -47 -154 -94 -176c-9 -4 -24 -7 -49 -7c-28 0 -38 19 -38 30c1 14 16 29 25 43
c20 30 27 61 27 73c0 28 -28 23 -56 58c-11 15 -31 48 -27 98z" />
    <glyph glyph-name="guillemotright" unicode="&#xbb;" horiz-adv-x="521" 
d="M39 119c38 54 46 72 61 104c1 2 10 22 9 36c0 12 -4 23 -9 35c-24 53 -36 71 -69 120c-2 4 -8 11 -8 20s10 36 39 35c21 0 43 -10 77 -37c55 -43 83 -90 97 -112c13 -20 26 -39 26 -61c0 -20 -13 -46 -38 -82c-32 -46 -56 -71 -99 -102c-17 -13 -35 -28 -58 -28
c-34 0 -40 32 -40 42c0 11 6 20 12 30zM282 122c10 16 20 32 29 48c11 18 20 36 29 55c5 13 9 21 9 34c0 14 -9 33 -10 36c-25 55 -35 71 -69 122c-6 11 -7 13 -7 20c0 19 20 32 38 32c19 0 40 -10 71 -33c50 -36 78 -75 92 -95c0 -1 35 -52 35 -85c0 -8 -2 -21 -11 -38
c-11 -24 -52 -90 -119 -141c-3 -2 -36 -31 -65 -30c-21 0 -38 15 -38 37c0 15 7 26 16 38z" />
    <glyph glyph-name="ellipsis" unicode="&#x2026;" horiz-adv-x="1000" 
d="M913 75c0 -6 0 -18 -6 -33c-13 -29 -42 -48 -71 -48c-6 0 -16 0 -29 5c-33 11 -53 40 -53 75c0 44 36 80 80 80c7 0 20 -1 35 -8c28 -13 44 -44 44 -71zM580 75c-1 -15 -3 -22 -6 -29c-6 -18 -26 -52 -74 -52c-5 0 -16 1 -30 6c-45 18 -49 59 -49 74c0 46 35 79 81 79
c4 0 17 0 31 -6c17 -7 47 -29 47 -72zM246 75c0 -7 0 -17 -6 -33c-19 -44 -60 -48 -74 -48c-11 0 -20 2 -31 7c-45 19 -48 60 -48 72c0 4 1 18 6 32c12 30 44 49 73 49c45 0 79 -33 80 -79z" />
    <glyph glyph-name="questiondown" unicode="&#xbf;" horiz-adv-x="458" 
d="M5 176c1 15 6 47 31 78c12 15 28 26 33 30c31 23 54 36 69 71c6 14 8 31 15 44c7 12 18 16 23 18c6 3 15 6 29 6c18 0 66 -10 66 -65c0 -50 -35 -93 -56 -135c-5 -10 -18 -39 -18 -77c0 -27 13 -37 25 -37c10 1 21 11 21 35c0 6 -3 30 2 49c9 37 44 65 83 65
c4 0 21 -1 35 -7c46 -20 49 -70 49 -86c0 -37 -15 -67 -39 -94c-62 -70 -149 -77 -180 -77c-32 0 -124 5 -170 93c-19 39 -19 72 -18 89zM121 580c1 29 10 48 15 58c24 46 70 54 90 54c4 0 21 -1 35 -7c59 -24 64 -87 64 -106c0 -13 -1 -34 -13 -59c-25 -51 -72 -59 -92 -59
c-10 0 -31 2 -52 14c-20 13 -50 42 -47 105z" />
    <glyph glyph-name="grave" unicode="`" 
d="M-78 711c7 7 19 11 22 12c10 3 42 9 73 9c36 0 73 -10 81 -15c12 -6 14 -15 14 -19c0 -8 -7 -16 -7 -25c0 -17 16 -24 28 -34c24 -19 34 -38 34 -51c0 -19 -15 -40 -55 -40c-33 0 -101 20 -161 79c-23 22 -40 50 -39 63c0 5 1 13 10 21z" />
    <glyph glyph-name="acute" unicode="&#xb4;" 
d="M-65 604c5 10 13 21 32 36c13 10 26 18 27 33c0 3 -1 5 -4 13c0 0 -5 10 -5 15c0 7 7 12 9 13c17 12 47 17 92 17c55 0 100 -14 100 -41c0 -4 -1 -11 -6 -21c-8 -20 -23 -40 -56 -66c-55 -43 -115 -55 -144 -55c-34 0 -49 22 -49 38c0 4 0 9 4 18z" />
    <glyph glyph-name="circumflex" unicode="&#x2c6;" 
d="M-126 609c6 12 16 20 36 39c59 51 106 79 139 79c25 0 48 -16 70 -30c31 -20 57 -36 84 -64c14 -15 25 -30 25 -48c0 -10 -5 -37 -36 -37c-21 0 -42 12 -60 20c-14 6 -27 12 -41 19c-22 11 -30 13 -42 13c-15 0 -28 -6 -43 -13c-43 -22 -66 -37 -92 -37
c-12 0 -44 3 -44 39c0 3 1 12 4 20z" />
    <glyph glyph-name="tilde" unicode="&#x2dc;" 
d="M-163 620c4 28 30 87 110 87c46 0 99 -23 107 -26c19 -7 37 -14 55 -21c15 -5 19 -7 28 -7s13 3 14 13c1 8 1 17 13 28c6 5 19 13 39 13c11 0 20 -1 30 -4c40 -10 51 -35 51 -53c0 -9 -3 -24 -12 -42c-26 -48 -80 -53 -97 -53c-34 0 -68 13 -101 26c-15 6 -30 12 -45 17
c-14 5 -39 15 -56 15c-18 0 -14 -14 -17 -31c-1 -4 -3 -9 -9 -15c-7 -5 -18 -10 -38 -10c-18 0 -51 8 -64 23c-9 10 -10 25 -8 40z" />
    <glyph glyph-name="dieresis" unicode="&#xa8;" 
d="M-185 617c2 19 14 35 17 40c30 39 88 69 137 69c11 0 46 0 69 -27c4 -5 13 -18 13 -37c0 -23 -11 -42 -25 -58c-33 -35 -81 -64 -134 -64c-68 0 -80 52 -77 77zM75 620c2 14 10 28 19 39c44 55 119 68 138 68c38 0 76 -27 76 -68c0 -34 -25 -58 -31 -64
c-47 -47 -102 -56 -130 -56c-67 0 -76 56 -72 81z" />
    <glyph glyph-name="cedilla" unicode="&#xb8;" 
d="M44 -35l-30 45h59l67 -89c13 -19 17 -29 17 -40c0 -10 -4 -17 -5 -20c-9 -15 -22 -18 -39 -21c-7 -1 -17 -3 -33 -3c-39 0 -63 13 -76 22c-10 8 -17 18 -17 31c0 26 25 30 45 34c1 0 13 1 17 6c5 3 5 9 5 12c0 9 -5 16 -10 23z" />
    <glyph glyph-name="caron" unicode="&#x2c7;" 
d="M-127 710c2 5 13 21 33 21c2 0 6 0 11 -1c12 -3 47 -17 81 -34c26 -14 37 -19 50 -19c18 0 35 11 52 19c12 6 25 11 37 17c15 7 30 15 48 15c35 -1 44 -30 43 -41c0 -14 -10 -32 -35 -53c-3 -3 -47 -37 -78 -57c-6 -4 -38 -26 -67 -26c-13 0 -26 4 -38 10
c-23 12 -79 53 -97 68c-21 17 -44 39 -44 66c0 2 1 9 4 15z" />
    <glyph glyph-name="emdash" unicode="&#x2014;" horiz-adv-x="500" 
d="M500 226h-500v128h500v-128z" />
    <glyph glyph-name="AE" unicode="&#xc6;" horiz-adv-x="979" 
d="M475 698h242c55 -1 91 -1 112 6c7 2 14 4 21 4c14 0 30 -10 33 -12c37 -25 61 -77 61 -121c0 -8 -1 -77 -57 -77c-14 0 -30 4 -50 29c-9 11 -16 24 -25 33c-18 16 -48 17 -73 17c-68 -1 -61 -17 -63 -58c0 -11 -1 -20 -1 -31v-33c0 -2 0 -14 3 -22c5 -12 18 -21 30 -21
c3 0 10 1 18 9c19 19 15 41 25 63c7 16 22 19 29 19c30 0 44 -34 46 -39c12 -25 17 -48 17 -106s-3 -70 -13 -99c-5 -16 -10 -29 -24 -38c-8 -4 -16 -7 -25 -7s-27 4 -36 27c-6 13 -4 27 -9 40c-5 11 -19 22 -31 22c-3 0 -11 -1 -18 -8c-23 -21 -17 -58 -17 -65
c2 -18 3 -36 5 -55c2 -13 4 -26 10 -35c7 -9 20 -17 46 -17c12 0 20 1 42 4c4 1 34 5 51 16c14 9 25 26 28 30c16 25 27 47 57 47c34 0 51 -26 55 -36c5 -13 5 -25 5 -30c0 -21 -5 -58 -29 -102c-19 -36 -38 -60 -83 -60c-18 0 -35 5 -52 7c-18 2 -36 2 -55 3h-309
c-26 0 -47 1 -63 22c-8 12 -9 24 -9 29c0 7 1 21 14 34c12 13 25 17 25 36c0 12 -7 19 -9 21c-17 13 -66 14 -83 14c-37 -1 -59 -2 -75 -7c-12 -3 -24 -13 -24 -25c0 -7 3 -17 15 -29c7 -6 18 -14 23 -20c3 -3 8 -11 8 -23c-1 -5 -2 -20 -13 -32c-16 -16 -55 -28 -109 -28
c-32 0 -95 5 -121 22c-8 5 -22 18 -22 43c0 12 3 21 10 31c15 23 35 23 56 37c19 12 37 33 64 71c21 26 41 52 60 78c25 34 48 68 72 101c30 42 60 85 91 127c28 45 45 69 45 94c0 14 -7 26 -7 40c0 5 1 16 10 28c17 23 50 28 76 32zM463 361c0 23 0 40 -3 50
c-2 8 -7 14 -14 14c-5 0 -12 -4 -13 -4c-25 -14 -54 -55 -89 -108c0 -1 -10 -14 -10 -24c0 -6 4 -10 5 -11c7 -6 29 -8 55 -9c28 1 44 2 55 9s12 20 13 50c1 12 1 22 1 33z" />
    <glyph glyph-name="Oslash" unicode="&#xd8;" horiz-adv-x="688" 
d="M540 636l26 37c22 26 29 29 62 33c34 4 52 0 52 -19c-1 -15 -11 -25 -21 -34l-67 -70c11 -15 24 -33 34 -50c39 -69 40 -145 40 -172c0 -16 0 -48 -7 -88c-7 -37 -22 -111 -87 -181c-12 -13 -39 -41 -80 -65c-23 -13 -76 -40 -150 -40c-7 0 -21 0 -38 3
c-8 1 -68 12 -108 34c-19 10 -39 25 -56 38l-27 -30c-27 -20 -38 -20 -73 -17c-14 0 -41 1 -41 17c0 10 7 17 14 23l74 68c-11 17 -21 33 -31 51c-18 33 -41 86 -41 178c0 46 4 107 56 193c6 12 25 43 51 70c21 21 43 35 52 40c23 15 91 52 175 52c50 0 96 -12 137 -34
c22 -13 51 -34 54 -37zM387 455c-5 15 -10 31 -16 45c-12 30 -31 66 -62 66c-29 0 -54 -31 -54 -91c0 -33 5 -82 14 -158c9 12 19 23 29 35c15 18 32 36 47 54c14 17 28 33 42 49zM409 375l-122 -138c3 -7 17 -55 42 -84c11 -13 22 -21 38 -21c50 0 57 72 57 107
c0 55 -13 124 -15 136z" />
    <glyph glyph-name="OE" unicode="&#x152;" horiz-adv-x="958" 
d="M14 358c1 25 5 91 32 154c51 119 172 198 300 198c27 0 54 -3 80 -6c21 -2 41 -4 61 -6c60 -4 121 -4 182 -4c21 0 41 -1 62 -1c2 0 37 0 60 3c13 2 26 7 40 7c7 0 21 -1 36 -12c38 -24 59 -84 59 -126c0 -55 -36 -72 -59 -72c-12 0 -20 4 -24 6c-21 11 -29 39 -46 54
c-17 14 -41 22 -93 22c-16 0 -24 -3 -29 -6c-24 -13 -23 -58 -23 -60c0 -16 2 -31 3 -47c0 -2 1 -27 9 -40c7 -11 18 -13 23 -13s10 1 17 6c21 15 14 42 26 64c6 12 17 19 32 19c30 0 44 -36 46 -40c4 -11 17 -57 17 -100c0 -40 -10 -84 -13 -93c-1 -3 -12 -58 -51 -58
c-15 0 -28 10 -36 25s-4 33 -12 49c-5 11 -15 17 -27 17c-10 0 -16 -4 -18 -6c-9 -9 -17 -27 -17 -57c0 -8 2 -38 6 -65c3 -23 6 -34 13 -41c9 -8 25 -11 38 -11s68 5 102 30c10 8 15 11 28 32c5 8 21 36 53 36c16 0 27 -6 31 -9c25 -16 24 -39 24 -50
c0 -18 -3 -84 -43 -134c-17 -21 -36 -34 -62 -34c-12 0 -15 1 -35 4c-15 2 -29 4 -43 5c-41 4 -82 5 -125 5c-66 0 -132 -2 -198 -7c-33 -2 -67 -5 -101 -5c-92 0 -160 30 -225 93c-47 46 -105 123 -100 274zM254 426c1 -37 10 -153 64 -252c4 -9 23 -44 61 -44
c12 0 33 5 44 36c5 14 10 43 10 82c0 118 -30 202 -47 244c-20 52 -43 76 -73 76c-6 0 -19 -1 -30 -11c-22 -20 -32 -67 -29 -131z" />
    <glyph glyph-name="ae" unicode="&#xe6;" horiz-adv-x="729" 
d="M632 231h-80c-13 0 -26 0 -40 -1c-4 0 -19 1 -30 -5c-10 -6 -12 -19 -12 -23c0 -15 16 -34 17 -35c18 -22 40 -35 69 -35c23 0 42 10 65 19c15 6 26 7 32 7c23 0 39 -21 39 -44c0 -39 -35 -63 -67 -81c-22 -13 -72 -39 -140 -39c-64 0 -98 21 -150 56c-3 1 -11 6 -19 6
c-6 0 -10 -2 -22 -10c-17 -12 -74 -53 -145 -53c-20 0 -81 3 -116 55c-19 27 -20 54 -20 66c0 49 27 97 66 127c47 36 97 43 152 50c25 8 28 11 29 53c-2 15 -3 30 -5 46c-1 1 -4 38 -28 38c-3 0 -7 -1 -14 -4c-16 -9 -27 -26 -37 -40c-25 -31 -48 -61 -89 -61
c-16 1 -52 5 -52 50c0 28 18 58 70 93c53 36 111 51 178 51c47 0 70 -11 110 -30c24 13 53 30 114 30c40 0 65 -9 80 -17c41 -19 112 -75 112 -194c0 -33 -1 -55 -11 -64c-12 -11 -42 -11 -56 -11zM267 171c0 6 0 13 -1 20s-2 31 -29 32c-5 -1 -9 -1 -14 -5
c-11 -6 -23 -24 -23 -53c0 -23 4 -36 8 -44c8 -12 20 -15 26 -15c3 0 10 1 17 7c18 14 17 36 16 58zM479 313c6 0 12 1 17 1c20 3 31 13 31 34c0 13 -4 24 -5 27c-6 16 -23 41 -44 41c-23 0 -29 -32 -30 -73c0 -3 0 -7 1 -13c2 -12 6 -15 30 -17z" />
    <glyph glyph-name="dotlessi" unicode="&#x131;" horiz-adv-x="313" 
d="M260 358v-202c1 -24 3 -32 10 -41c14 -19 34 -27 34 -52c0 -6 -1 -15 -8 -26c-12 -20 -35 -26 -58 -31c-39 -9 -59 -10 -77 -10c-15 0 -41 1 -77 7c-59 9 -85 31 -85 61c0 7 2 21 15 35c7 8 17 15 23 24c9 15 11 35 12 72c0 15 1 30 1 45c1 16 2 33 3 50
c-2 34 -3 61 -10 73c-2 5 -8 11 -18 19c-7 5 -27 18 -27 44c0 7 3 17 8 24c14 22 38 30 60 38c73 26 121 29 156 29c27 0 37 -6 43 -16c2 -3 5 -10 5 -19c0 -8 -2 -11 -4 -19c0 -1 -2 -11 -2 -19c-2 -29 -2 -57 -4 -86z" />
    <glyph glyph-name="oslash" unicode="&#xf8;" horiz-adv-x="542" 
d="M448 449l25 30c10 6 17 11 28 11c7 0 13 -2 27 -6c2 -1 14 -7 14 -15c0 -7 -11 -14 -18 -18c-21 -16 -26 -19 -44 -39c30 -55 47 -91 47 -154c0 -18 -2 -56 -19 -101c-38 -101 -129 -166 -240 -166c-77 1 -124 30 -149 45l-16 -16c-15 -14 -20 -14 -42 -14
c-26 1 -41 2 -41 15c0 6 4 9 8 14l44 43c-20 30 -62 85 -62 179c0 61 20 123 59 168c26 28 98 92 205 92c94 0 144 -45 174 -68zM228 229l72 76c-12 49 -25 88 -54 88c-25 0 -31 -37 -31 -58c0 -28 4 -52 13 -106zM311 250l-70 -73c2 -3 10 -32 24 -48c2 -3 11 -13 24 -13
c8 0 13 4 15 6c12 10 15 40 15 57c0 25 -4 47 -8 71z" />
    <glyph glyph-name="oe" unicode="&#x153;" horiz-adv-x="771" 
d="M699 229h-120c-27 0 -46 0 -57 -7c-7 -5 -8 -12 -8 -16c1 -6 3 -17 10 -30c6 -11 29 -48 75 -48c25 0 46 11 53 14c21 10 32 15 44 15c2 0 9 -1 15 -5c7 -4 23 -18 23 -42c0 -21 -14 -38 -18 -43c-19 -23 -92 -77 -185 -77c-56 0 -83 16 -128 43
c-26 -14 -70 -42 -144 -42c-68 0 -116 22 -165 66c-4 4 -22 19 -35 36c-17 24 -47 82 -47 161c0 19 1 55 17 100c38 103 120 139 159 150c17 5 45 11 89 11c59 0 84 -13 134 -44c46 27 77 45 132 45c12 0 47 0 79 -12c48 -18 88 -58 106 -105c7 -18 11 -35 13 -54
c4 -26 5 -38 5 -50c0 -19 -3 -51 -16 -60c-10 -7 -28 -6 -31 -6zM217 338c3 -88 26 -158 41 -188c7 -16 18 -35 34 -35c11 1 17 15 18 16c7 17 6 47 6 51c0 84 -30 161 -40 182c-1 2 -8 19 -19 27c-5 5 -10 6 -12 6c-4 0 -8 -1 -14 -7c-14 -15 -14 -35 -14 -52zM575 350
c-1 13 -2 23 -7 35c-6 15 -21 31 -35 31c-9 0 -16 -6 -22 -14c-15 -18 -17 -39 -18 -59c1 -27 4 -29 43 -31c31 2 36 6 39 38z" />
    <glyph glyph-name="germandbls" unicode="&#xdf;" horiz-adv-x="646" 
d="M47 188v232c3 41 5 74 20 112c62 154 242 165 283 165c97 0 155 -40 176 -77c10 -19 11 -39 11 -46c0 -13 -2 -36 -16 -61c-9 -16 -22 -30 -22 -50c0 -15 7 -27 14 -39l77 -140c11 -19 47 -77 47 -147c0 -80 -43 -119 -73 -133c-25 -11 -58 -11 -65 -11
c-38 0 -90 12 -117 38c-3 3 -19 19 -19 40c0 20 17 18 29 30c13 14 12 34 12 41c0 38 -19 75 -54 143l-28 51c-2 7 -14 35 -14 62c0 21 6 60 44 98c8 9 18 17 28 24c16 14 29 28 29 49s-20 36 -42 36c-24 0 -58 -15 -80 -62c-20 -45 -25 -100 -29 -202v-113
c1 -20 2 -41 3 -63c1 -18 2 -36 12 -49c7 -10 16 -13 20 -14c8 -3 42 -10 42 -42c0 -28 -26 -47 -51 -54c-25 -6 -100 -9 -126 -9c-20 0 -40 0 -81 5c-6 0 -33 2 -52 13c-22 12 -26 37 -26 46c0 5 1 13 7 24c9 13 24 25 31 39c8 14 8 31 10 64z" />
    <glyph glyph-name="Grave" unicode="&#xf6ce;" 
d="M-81 894c16 20 70 24 95 24c35 0 72 -9 79 -12c14 -6 19 -16 19 -22c0 -8 -7 -16 -7 -25c0 -15 11 -21 23 -30c15 -12 39 -35 39 -54c-1 -29 -29 -41 -54 -41c-14 0 -24 2 -37 6c-45 12 -76 30 -112 61c-32 27 -52 55 -52 73c0 3 0 12 7 20z" />
    <glyph glyph-name="Acute" unicode="&#xf6c9;" 
d="M-60 794c9 16 33 33 36 35c4 3 21 14 21 29c0 9 -9 19 -8 28c0 6 6 11 7 13c23 18 69 17 94 17c27 0 59 -1 84 -17c13 -9 15 -18 15 -24c0 -20 -21 -45 -22 -46c-39 -49 -118 -96 -181 -96c-4 0 -12 0 -21 3c-17 6 -30 21 -30 37c0 4 1 12 5 21z" />
    <glyph glyph-name="Circumflex" 
d="M0 769l-36 -18c-15 -7 -30 -16 -47 -16c-25 0 -46 17 -46 42c0 8 2 14 3 17c2 5 8 11 8 11c12 15 59 58 113 89c5 3 32 20 56 20c6 0 14 -1 26 -7c21 -8 74 -44 90 -56c41 -31 63 -59 62 -81c0 -9 -5 -37 -35 -37c-24 0 -46 14 -67 23c-11 5 -22 10 -33 16
c-15 8 -28 14 -43 14c-14 0 -25 -5 -51 -17z" />
    <glyph glyph-name="Tilde" 
d="M-162 807c2 19 9 30 13 37c28 47 82 50 99 50c47 0 92 -23 136 -39c24 -8 40 -15 51 -15c17 0 13 9 17 23c2 7 5 12 9 16c10 11 25 16 40 16c8 0 10 -1 14 -2c3 0 39 -6 55 -22c5 -6 13 -16 13 -37c0 -18 -8 -34 -11 -39c-27 -48 -78 -53 -94 -53c-30 0 -70 11 -134 36
c-32 12 -56 21 -71 21c-13 0 -13 -9 -14 -14c-4 -19 -6 -24 -14 -30c-13 -11 -30 -12 -35 -12c-14 0 -32 6 -35 7c-17 5 -46 10 -39 57z" />
    <glyph glyph-name="Dieresis" unicode="&#xf6cb;" 
d="M-205 822c4 18 18 37 32 48c13 10 56 34 111 34c75 0 102 -40 102 -73c0 -27 -21 -53 -45 -68c-13 -8 -54 -27 -104 -27c-15 0 -68 0 -90 44c-9 18 -8 34 -6 42zM73 821c2 11 8 22 15 31c28 34 86 52 130 52c32 0 66 -8 85 -33c5 -6 15 -22 15 -43c0 -12 -3 -23 -10 -34
c-16 -24 -63 -60 -137 -60c-13 0 -67 0 -90 41c-4 6 -12 25 -8 46z" />
    <glyph glyph-name="Caron" unicode="&#xf6ca;" 
d="M-126 898c3 5 14 19 33 19c23 0 76 -27 94 -36c16 -9 31 -18 48 -18c8 0 17 3 19 4c11 4 56 26 65 31c18 9 32 17 53 16c36 0 43 -28 43 -40c0 -6 -1 -14 -9 -25c-18 -27 -80 -70 -106 -87c-30 -20 -44 -25 -64 -25c-16 0 -25 4 -51 19c-29 16 -42 24 -88 62
c-20 17 -40 35 -40 64c0 3 0 9 3 16z" />
    <glyph glyph-name="Adieresis" unicode="&#xc4;" horiz-adv-x="729" 
d="M104 224l54 135c19 50 37 101 56 151c7 27 15 55 15 82c0 9 -2 24 -2 25c-2 15 -3 20 -3 27c0 5 0 11 4 20c9 20 43 45 96 45c13 0 40 -1 69 -16c50 -27 69 -80 86 -128l125 -327c15 -39 33 -87 66 -113c8 -7 18 -12 27 -17s29 -14 29 -45c0 -8 -1 -21 -12 -35
c-23 -31 -59 -30 -135 -32h-46c-62 0 -105 2 -129 12c-31 14 -36 38 -36 52c0 19 10 30 16 34c12 11 24 14 25 33c-1 20 -20 26 -38 29c-17 2 -48 4 -93 4c-3 0 -37 1 -54 -11c-3 -3 -12 -10 -12 -23c0 -18 25 -25 37 -38c10 -11 10 -23 10 -29s-2 -26 -15 -38
c-23 -22 -90 -25 -121 -25c-2 0 -67 -1 -100 20c-8 5 -26 19 -26 47c1 34 35 51 43 56c24 16 24 22 44 63c6 14 13 28 20 42zM310 275c15 0 34 -1 48 8c5 3 9 7 9 13c0 4 -5 17 -7 22c-4 10 -7 20 -11 30c-4 9 -8 17 -13 26c-4 8 -13 31 -25 31c-2 0 -7 -2 -13 -9
c-10 -13 -15 -29 -27 -62c-4 -10 -9 -22 -9 -33c0 -7 3 -12 4 -14c7 -10 16 -13 44 -12zM86 827c2 10 7 19 13 26c28 36 84 52 126 52c36 0 78 -8 96 -41c5 -11 8 -21 8 -33c0 -37 -35 -62 -43 -67c-13 -8 -55 -28 -104 -28c-14 0 -68 1 -90 43c-3 6 -11 27 -6 48zM363 826
c4 12 14 32 40 49c13 9 55 30 106 30c71 0 98 -43 98 -74c0 -17 -8 -32 -19 -45c-20 -24 -57 -51 -127 -51c-40 0 -76 9 -93 44c-3 6 -10 26 -5 47z" />
    <glyph glyph-name="Aring" unicode="&#xc5;" horiz-adv-x="729" 
d="M472 585l135 -353c14 -37 29 -77 58 -104c12 -10 17 -12 31 -19c20 -10 30 -20 30 -45c0 -7 -1 -22 -10 -35c-10 -15 -23 -21 -40 -25c-43 -10 -121 -9 -124 -9c-33 0 -65 1 -98 4c-19 1 -40 2 -56 11c-9 4 -30 21 -30 51c0 23 15 34 23 39c10 7 17 14 18 28
c-1 15 -13 20 -17 22c-17 8 -49 8 -95 10c-33 -1 -51 -2 -65 -7c-15 -6 -19 -18 -19 -24c0 -13 9 -20 12 -22c10 -8 14 -8 23 -18c8 -8 11 -18 11 -30c0 -4 -1 -12 -4 -22c-5 -11 -15 -24 -41 -32c-12 -3 -46 -8 -80 -8c-27 0 -81 3 -105 15c-17 10 -31 28 -31 49
c0 22 12 39 30 51c10 6 23 14 31 23c9 11 25 45 41 83c22 52 43 105 64 158c16 41 31 83 46 124c10 30 19 56 19 89c0 11 0 15 -2 26c0 4 -4 18 -4 30c0 8 3 15 4 17c9 22 41 47 96 47c28 0 53 -8 61 -12c47 -20 67 -64 88 -112zM311 275c15 0 35 -1 49 9c6 4 7 9 7 12
c0 6 -6 19 -11 34c-3 7 -5 14 -8 21c-4 8 -9 17 -13 25c-1 2 -7 17 -15 25c-4 3 -7 4 -9 4s-7 -2 -13 -9c-10 -14 -14 -25 -25 -55c-4 -13 -11 -27 -11 -39c0 -7 2 -11 3 -13c10 -15 27 -15 46 -14zM228 842c3 16 9 26 12 32c12 18 40 51 98 51c60 0 118 -35 118 -99
c0 -10 0 -22 -9 -40c-29 -55 -87 -60 -106 -60c-15 0 -81 5 -106 58c-11 25 -9 48 -7 58zM300 847c-2 -10 -4 -27 6 -50c12 -26 28 -31 40 -31c37 0 36 41 36 50c0 38 -11 51 -26 59c-10 6 -18 7 -23 7c-25 -1 -32 -28 -33 -35z" />
    <glyph glyph-name="Odieresis" unicode="&#xd6;" horiz-adv-x="688" 
d="M13 370c2 43 11 106 65 190c22 35 39 53 52 65c55 51 144 82 218 82c115 0 194 -69 221 -97c37 -37 97 -117 97 -253c0 -10 -1 -45 -6 -78c-13 -84 -46 -153 -113 -212c-58 -52 -125 -79 -204 -79c-86 0 -145 33 -172 51c-32 21 -55 47 -64 57c-65 76 -99 177 -94 274z
M255 462c4 -123 13 -154 32 -219c11 -40 16 -54 28 -73c3 -5 23 -38 55 -38c28 0 40 28 43 34c5 13 11 43 11 82c0 12 -1 41 -5 74c-3 18 -20 124 -58 198c-4 7 -21 45 -57 45c-15 0 -24 -9 -28 -13c-24 -24 -23 -59 -21 -90zM91 822c2 11 6 20 13 30c26 36 85 53 129 53
c74 0 103 -40 103 -73c-1 -17 -10 -32 -13 -37c-37 -56 -125 -59 -136 -59c-82 0 -101 53 -96 86zM368 819c4 24 18 39 24 44c29 27 82 42 119 42c46 0 72 -17 84 -30c15 -17 17 -37 17 -46c0 -7 -1 -22 -11 -36c-16 -24 -61 -58 -139 -58c-15 0 -65 0 -87 43
c-2 6 -9 23 -7 41z" />
    <glyph glyph-name="Udieresis" unicode="&#xdc;" horiz-adv-x="708" 
d="M282 513v-179c2 -25 3 -49 4 -74c1 -10 1 -46 22 -76c21 -28 49 -36 85 -36c11 0 41 0 65 22c33 32 35 88 37 131v147c-1 22 -2 44 -3 67c0 6 0 31 -10 47c-9 15 -22 19 -35 31c-15 12 -16 29 -16 36c0 39 44 55 52 58c21 7 57 10 113 10c20 0 36 0 55 -5
c13 -4 49 -14 49 -56c0 -17 -8 -32 -20 -43c-10 -8 -20 -14 -26 -25c-10 -18 -11 -43 -14 -87c0 -17 -1 -35 -2 -53v-175c0 -13 1 -73 -16 -122c-26 -70 -98 -144 -263 -144c-21 0 -121 2 -193 42c-9 5 -33 19 -54 41c-7 9 -23 26 -34 52c-9 20 -13 38 -18 81v281
c1 46 0 63 -17 79c-9 8 -21 15 -30 25c-15 15 -16 29 -16 37c0 28 22 58 78 66c15 2 66 6 119 6c59 0 99 -7 120 -21c23 -15 27 -40 27 -50c0 -11 -2 -26 -21 -40c-9 -7 -19 -12 -26 -19c-9 -10 -10 -25 -12 -54zM123 826c4 14 13 27 23 37c26 25 83 41 119 41
c32 0 68 -9 88 -34c9 -12 14 -26 14 -40c0 -10 -1 -25 -15 -41c-16 -20 -62 -54 -130 -54c-21 0 -43 3 -63 13c-44 21 -40 63 -36 78zM398 819c3 18 16 32 20 37c29 32 81 47 124 47c52 0 77 -18 89 -36c4 -6 12 -21 12 -39c0 -16 -5 -26 -8 -31c-16 -29 -63 -63 -142 -63
c-14 0 -63 -1 -86 40c-11 20 -10 36 -9 45z" />
    <glyph glyph-name="adieresis" unicode="&#xe4;" horiz-adv-x="521" 
d="M468 331v-142c0 -22 0 -41 12 -58c13 -17 35 -23 35 -46c0 -18 -11 -33 -13 -36c-26 -35 -74 -54 -117 -54c-50 0 -74 23 -91 36c-5 4 -10 7 -16 7s-10 -2 -16 -5c-41 -24 -68 -39 -118 -39c-14 0 -67 2 -101 35c-32 33 -35 81 -35 95c0 72 46 126 109 153
c37 15 74 18 113 21c33 7 36 13 35 47c0 51 -6 85 -36 85c-5 0 -12 -2 -16 -4c-9 -4 -15 -9 -28 -25c-2 -5 -5 -9 -8 -13c-7 -12 -35 -57 -86 -57c-12 0 -57 4 -57 46c0 24 15 59 60 90c32 22 92 49 183 49c76 0 119 -21 144 -44c8 -7 23 -22 33 -45c12 -29 13 -63 14 -96z
M32 622c5 32 34 55 41 61c15 12 58 44 114 44c61 0 80 -39 80 -64c0 -19 -8 -43 -36 -70c-32 -30 -78 -53 -122 -53c-72 1 -82 54 -77 82zM270 178c-1 22 -1 50 -30 50c-5 0 -11 0 -19 -7c-11 -9 -20 -28 -20 -60c0 -5 -1 -37 20 -48c5 -3 10 -4 16 -4c3 0 10 1 16 6
c14 11 16 30 17 63zM291 624c2 8 8 24 22 40c29 36 88 65 134 65c27 0 50 -7 66 -30c3 -6 11 -19 11 -37c0 -21 -11 -39 -15 -45c-30 -46 -90 -78 -143 -78c-23 0 -37 7 -45 12c-25 15 -36 44 -30 73z" />
    <glyph glyph-name="aring" unicode="&#xe5;" horiz-adv-x="521" 
d="M468 332v-148c1 -31 4 -43 13 -54c11 -17 34 -23 34 -45c0 -8 -3 -23 -15 -38c-13 -18 -52 -52 -115 -52c-41 0 -61 12 -91 37c-2 1 -11 6 -18 6c-6 0 -11 -3 -17 -6c-18 -11 -57 -38 -116 -38c-23 0 -92 3 -123 68c-5 10 -12 28 -12 56c0 71 33 106 55 125
c24 21 75 50 150 53c17 1 32 0 43 12c8 9 8 20 8 35c0 2 0 35 -5 58c-6 25 -17 29 -28 29c-24 -1 -36 -16 -48 -32c-9 -14 -20 -32 -32 -42c-23 -22 -49 -25 -60 -25c-7 0 -38 2 -51 24c-3 4 -6 10 -6 21c1 27 14 48 32 66c33 34 98 74 209 74c18 0 99 1 150 -48
c14 -14 23 -27 30 -45c11 -29 12 -58 13 -91zM153 651c2 19 11 35 15 40c21 33 59 47 99 47c16 0 72 -2 101 -48c13 -22 15 -40 15 -50c0 -22 -9 -37 -13 -44c-11 -21 -42 -56 -104 -56c-9 0 -32 1 -56 12c-55 25 -60 78 -57 99zM269 179c0 22 -1 49 -28 49
c-30 -1 -39 -39 -39 -64c0 -4 -2 -42 22 -53c1 0 7 -3 12 -3c8 0 13 3 19 9c15 15 14 39 14 62zM225 659c-1 -9 -2 -23 6 -44c8 -20 21 -35 42 -35c36 1 35 37 35 48c0 17 -4 37 -15 51c-4 6 -15 17 -32 17c-11 0 -30 -7 -36 -37z" />
    <glyph glyph-name="odieresis" unicode="&#xf6;" horiz-adv-x="542" 
d="M13 261c0 28 5 104 56 166c29 35 92 90 203 90c35 0 70 -5 103 -19c95 -39 149 -138 149 -242c0 -21 -2 -58 -21 -107c-57 -141 -188 -157 -241 -157c-31 0 -99 3 -161 57c-84 72 -89 175 -88 212zM37 621c1 14 9 35 37 60c16 13 61 47 119 47c60 0 80 -39 80 -64
c0 -9 -2 -22 -13 -41c-30 -50 -89 -82 -148 -82c-40 0 -56 17 -64 31c-4 7 -14 25 -11 49zM286 346c-5 16 -12 36 -27 46c-2 2 -6 6 -13 5c-3 0 -8 0 -14 -5c-13 -10 -15 -25 -15 -57c0 -27 2 -106 34 -178c6 -15 18 -43 38 -43c17 0 28 24 28 61c0 30 -8 97 -31 171z
M296 623c5 25 26 48 45 64c12 9 57 42 110 42c62 0 79 -41 79 -66c0 -10 -2 -25 -14 -45c-29 -45 -91 -78 -145 -78c-71 0 -79 58 -75 83z" />
    <glyph glyph-name="udieresis" unicode="&#xfc;" horiz-adv-x="583" 
d="M250 400v-197c1 -23 2 -40 19 -53c5 -3 10 -8 22 -8s19 7 22 10c22 20 21 61 21 90v76c-1 12 -2 25 -3 38c0 12 -1 24 -5 33c-5 9 -14 15 -16 17c-13 11 -24 22 -24 41c0 6 1 15 9 25c21 28 78 45 161 45c1 0 34 0 52 -5c27 -8 30 -30 30 -41c0 -13 -5 -33 -7 -45
c-3 -19 -3 -25 -3 -58v-155c3 -54 3 -78 22 -97c13 -12 25 -19 25 -38c0 -17 -12 -29 -15 -33c-32 -34 -102 -53 -149 -53c-16 0 -54 4 -67 16c-6 6 -8 12 -13 28c-2 12 -5 14 -8 14s-6 -1 -13 -6c-30 -26 -45 -38 -83 -47c-9 -2 -22 -5 -43 -5c-82 0 -117 52 -127 79
c-10 25 -11 53 -12 82v159c-1 46 0 71 -16 85c-8 7 -30 16 -30 46c1 29 22 44 74 58c25 7 49 12 101 14c8 1 16 1 24 1c18 0 28 -2 38 -16c13 -18 14 -49 14 -100zM42 624c4 23 20 41 38 57c15 12 61 47 117 47c61 0 80 -36 80 -63c0 -15 -4 -34 -24 -58
c-4 -4 -11 -13 -21 -22c-14 -11 -56 -43 -111 -43c-6 0 -37 0 -58 16c-18 15 -26 42 -21 66zM302 628c4 16 13 36 44 60c12 9 58 42 108 42c18 0 30 -4 36 -7c27 -9 45 -32 45 -60c0 -17 -6 -33 -15 -46c-28 -40 -93 -77 -144 -77c-75 0 -79 63 -74 88z" />
    <glyph glyph-name="degree" unicode="&#xb0;" horiz-adv-x="354" 
d="M177 745c13 0 41 -1 71 -15c63 -27 101 -90 101 -157c0 -35 -9 -59 -15 -71c-27 -62 -90 -102 -157 -102c-21 0 -69 5 -112 42c-39 33 -60 80 -60 131c0 97 77 172 172 172zM177 630c-30 0 -55 -24 -55 -55s25 -56 56 -56c30 0 55 25 55 56s-25 55 -56 55z" />
    <glyph glyph-name="registered" unicode="&#xae;" horiz-adv-x="833" 
d="M390 337h-8v-103c0 -15 0 -27 2 -33c4 -13 23 -13 49 -17v-59c-35 2 -69 3 -103 3s-68 -1 -102 -3v59c12 1 33 2 41 12c3 4 4 12 4 17v277c0 12 0 21 -2 26c-5 9 -23 9 -43 10v61c35 -1 70 -3 105 -3c104 0 155 8 206 -9c46 -16 78 -56 79 -106c-1 -64 -50 -90 -69 -98
c-15 -7 -27 -8 -35 -10c5 -4 9 -6 12 -9c19 -15 27 -40 34 -62l9 -38c2 -9 4 -18 7 -27c2 -5 6 -11 11 -10c3 0 8 2 11 8c4 9 9 36 10 45l51 -9c-5 -24 -10 -47 -19 -69c-6 -16 -27 -68 -86 -68c-28 0 -51 12 -66 34c-10 16 -21 47 -26 65c-4 17 -9 34 -14 52
c-9 31 -13 43 -27 54c-12 10 -27 9 -31 10zM382 410h16c41 0 57 0 77 10c27 14 30 39 30 50c0 12 -3 23 -11 32c-13 16 -28 21 -65 21c-13 0 -22 -1 -28 -1c-6 -1 -11 -2 -14 -7c-5 -8 -5 -20 -5 -39v-66zM773 351c0 -43 -9 -140 -85 -229c-94 -112 -221 -125 -271 -125
c-79 0 -156 26 -218 73c-46 36 -138 126 -138 284c0 118 52 193 81 228c37 43 125 127 276 127c113 0 217 -50 286 -143c47 -63 70 -137 69 -215zM741 352c0 35 -5 116 -63 195c-32 43 -114 130 -260 130c-34 0 -115 -5 -192 -62c-43 -31 -133 -115 -133 -262
c0 -43 8 -84 24 -123c49 -122 169 -201 301 -201c20 0 60 2 109 19c130 46 213 168 214 304z" />
    <glyph glyph-name="copyright" unicode="&#xa9;" horiz-adv-x="833" 
d="M609 284v-147l-69 -6l-29 -2c-33 -3 -65 -5 -98 -5c-22 0 -44 1 -65 4c-98 14 -130 68 -147 109c-11 26 -23 65 -23 127c0 12 0 78 26 126c43 80 141 94 212 94c28 0 56 -2 84 -4l28 -1h81l1 -168h-41c-13 68 -29 150 -121 150c-21 0 -41 -6 -57 -18
c-37 -27 -48 -79 -48 -160c0 -16 0 -73 11 -125c10 -44 22 -67 37 -83c14 -14 33 -27 73 -27c29 0 45 8 56 16c31 21 40 57 47 120h42zM773 351c0 -34 -7 -145 -91 -238c-41 -46 -131 -116 -266 -116c-82 0 -166 28 -235 87c-47 42 -120 128 -120 270c0 33 3 112 56 194
c27 41 49 61 66 75c40 34 117 86 234 86c130 0 217 -65 256 -105c36 -37 101 -128 100 -253zM741 352c0 28 -6 116 -62 195c-63 86 -164 130 -261 130c-181 0 -325 -144 -325 -324c0 -107 49 -178 79 -213c38 -43 119 -111 244 -111c29 0 93 3 164 44c20 11 34 21 51 35
c73 62 109 159 110 244z" />
    <glyph glyph-name="trademark" unicode="&#x2122;" horiz-adv-x="771" 
d="M426 570v-132c0 -7 0 -9 5 -14c4 -5 12 -5 24 -7h9v-43c-44 1 -87 1 -131 0v42l17 3c2 0 4 0 8 2c12 6 10 23 11 37v198l-3 3c-10 3 -11 4 -28 4l1 43c22 -1 44 -2 66 -1c13 0 26 1 38 1l90 -222l93 222c35 -1 70 -1 105 0v-43l-9 -1c-4 0 -8 0 -12 -1
c-19 -2 -16 -23 -16 -26v-194c0 -11 -2 -22 22 -23l9 -1v-43c-28 1 -55 2 -83 2c-18 0 -37 -1 -55 -2v43h6c24 0 25 10 25 22v130l-79 -195h-34zM324 610h-45c-3 10 -12 39 -22 46c-6 4 -16 5 -23 5h-19v-202c1 -17 -1 -27 4 -33c4 -6 13 -7 20 -7l20 -2v-43
c-34 1 -67 2 -101 2c-22 0 -43 -1 -65 -2v43l16 2c9 0 14 1 19 3c11 5 9 28 9 37v202h-19c-17 -1 -23 -3 -28 -11c-10 -14 -16 -39 -17 -40h-45c3 32 4 64 5 96c59 -1 118 -2 177 -2c36 1 73 1 109 2c1 -32 3 -64 5 -96z" />
    <glyph glyph-name="plusminus" unicode="&#xb1;" horiz-adv-x="500" 
d="M469 0h-436v127h436v-127zM315 184h-127v156h-155v127h155v154h127v-154h154v-127h-154v-156z" />
    <glyph glyph-name="minus" unicode="&#x2212;" horiz-adv-x="500" 
d="M500 226h-500v128h500v-128z" />
    <glyph glyph-name="mu" unicode="&#xb5;" horiz-adv-x="562" 
d="M501 144l35 2c5 -14 15 -37 15 -73c0 -11 1 -52 -34 -73c-6 -4 -19 -11 -38 -11c-11 0 -23 3 -33 7c-29 11 -48 39 -55 68c-49 -70 -118 -79 -149 -79c-20 0 -69 5 -107 49c-2 -28 -6 -82 25 -146c27 -53 52 -72 52 -103c0 -7 -2 -15 -4 -20c-5 -9 -19 -27 -46 -27
s-44 16 -50 22c-27 31 -42 99 -42 193c0 49 4 126 12 174c-19 95 -23 232 -23 248c0 30 2 58 25 80c10 10 20 15 35 15c36 0 48 -38 51 -46c1 -7 3 -16 3 -32c0 -36 -26 -235 -31 -271c25 -59 60 -75 90 -75c13 0 32 3 55 23c47 40 62 107 62 230c0 34 -6 116 13 148
c13 21 34 23 43 23c7 0 22 -2 36 -13c19 -15 26 -42 26 -91c0 -30 -2 -59 -5 -88c-6 -60 -17 -116 -45 -170c8 -36 29 -48 46 -48c32 0 39 37 39 61c0 13 0 15 -1 23z" />
    <glyph glyph-name="brokenbar" unicode="&#xa6;" horiz-adv-x="229" 
d="M51 190h127v-381h-127v381zM51 308v381h127v-381h-127z" />
    <glyph glyph-name="multiply" unicode="&#xd7;" horiz-adv-x="500" 
d="M464 167l-90 -90l-124 123l-124 -123l-90 90l124 124l-124 125l90 89l124 -124l124 124l90 -89l-123 -125z" />
    <glyph glyph-name="logicalnot" unicode="&#xac;" horiz-adv-x="667" 
d="M539 227h-539v127h667v-354h-128v227z" />
    <glyph glyph-name="divide" unicode="&#xf7;" horiz-adv-x="500" 
d="M331 108c-2 -44 -36 -77 -80 -77c-43 0 -81 33 -81 78c0 47 37 82 82 82c6 0 17 0 31 -6c32 -14 49 -48 48 -77zM500 227h-499v126h499v-126zM331 468c0 -4 0 -17 -6 -31c-19 -44 -62 -48 -76 -48c-5 0 -15 0 -26 5c-18 6 -53 29 -53 74c0 8 2 35 23 57
c17 17 37 25 57 25c46 0 81 -36 81 -82z" />
    <glyph glyph-name="onefitted" unicode="&#xf6dc;" horiz-adv-x="396" 
d="M310 355v-111c0 -27 1 -54 4 -82c3 -24 6 -33 14 -40c16 -14 35 -12 52 -21c15 -9 17 -25 17 -32c0 -5 0 -12 -7 -22c-10 -16 -30 -23 -49 -30c-46 -15 -86 -19 -135 -19c-16 0 -33 0 -49 1c-56 4 -80 10 -105 22c-18 9 -33 20 -33 41c0 27 24 35 32 36c16 4 26 1 37 12
c17 18 16 48 18 75c2 38 3 76 4 114c-1 29 -1 71 -6 100c-1 10 -4 24 -27 32c-13 4 -27 4 -37 10c-15 8 -16 22 -16 28c0 25 17 43 33 57c57 49 128 64 149 69c5 1 52 12 86 12c36 0 56 -9 65 -23c2 -3 7 -11 7 -22c0 -14 -8 -25 -17 -34c-5 -6 -16 -15 -24 -33
c-13 -30 -11 -66 -12 -99c0 -13 -1 -27 -1 -41z" />
    <glyph glyph-name="Ccedilla" unicode="&#xc7;" horiz-adv-x="646" 
d="M425 165h9c70 5 105 50 122 70c13 11 18 13 28 13c3 0 10 -1 19 -5c20 -10 27 -35 27 -56c0 -29 -15 -64 -18 -70c-5 -13 -10 -24 -19 -33c-6 -5 -12 -9 -27 -15c-12 0 -14 -1 -23 -9c-14 -10 -28 -19 -43 -28c-49 -30 -94 -44 -153 -44c-56 0 -100 15 -119 21
c-144 54 -214 194 -214 337c0 78 23 171 71 234c60 78 160 128 257 128c53 0 91 -14 137 -31c21 -8 27 -10 39 -12c4 -1 10 -1 20 0c27 -2 37 -4 54 -26c34 -45 38 -104 38 -121c0 -6 0 -19 -5 -33c-11 -35 -43 -56 -78 -56c-41 0 -52 20 -61 35c-7 9 -32 55 -75 78
c-15 7 -35 13 -51 13c-12 0 -49 -4 -71 -34c-5 -7 -7 -12 -9 -15c-5 -13 -21 -63 -21 -110c0 -20 2 -35 4 -43c5 -38 22 -94 43 -125c14 -21 52 -63 119 -63zM315 -35l-30 45h59l67 -89c13 -19 17 -29 17 -40c0 -10 -4 -17 -6 -20c-8 -15 -21 -18 -38 -21
c-7 -1 -17 -3 -33 -3c-39 0 -63 13 -76 22c-10 8 -17 18 -17 31c0 26 25 30 45 34c1 0 12 1 17 6c5 3 5 9 5 12c0 9 -5 16 -10 23z" />
    <glyph glyph-name="Eacute" unicode="&#xc9;" horiz-adv-x="604" 
d="M174 0l-120 -3c-23 1 -38 2 -48 21c-2 3 -6 14 -6 26c0 10 3 32 24 48c17 13 25 16 31 36c14 49 16 159 18 211c-2 45 -3 89 -3 133c-1 44 -5 73 -13 91c-9 22 -21 20 -39 34c-6 4 -19 18 -19 42c0 6 1 18 10 31c15 22 39 25 66 27c33 0 66 0 98 -1c34 -1 68 -2 102 -2
c55 0 110 5 164 10c12 2 18 4 30 4c11 0 24 -3 44 -20c46 -39 51 -99 51 -121c0 -24 -6 -44 -26 -58c-9 -7 -19 -10 -32 -10c-5 0 -18 1 -29 8c-17 12 -28 36 -44 49c-14 11 -37 20 -80 20c-7 0 -14 0 -21 -1c-36 -2 -45 -6 -46 -63c0 -45 2 -80 15 -92c8 -8 20 -8 24 -8
c13 0 20 5 23 8c17 17 13 44 21 62c6 13 19 19 34 19c27 0 44 -26 51 -50c5 -15 15 -60 15 -108c0 -28 -5 -80 -20 -104c-4 -7 -19 -27 -45 -26c-10 0 -27 3 -36 27c-6 16 -3 31 -11 45c-6 10 -19 18 -32 18c-4 0 -13 -1 -21 -7c-15 -10 -15 -24 -15 -59c1 -18 3 -36 4 -55
c0 -4 1 -23 7 -35c9 -18 26 -22 43 -22c34 0 85 5 113 25c6 5 11 11 13 13c22 28 29 62 70 62c23 0 58 -14 58 -67c0 -24 -7 -64 -31 -109c-2 -4 -15 -30 -34 -43c-16 -11 -34 -10 -55 -8c-38 4 -77 6 -116 6c-62 0 -125 -2 -187 -4zM190 794c9 16 33 33 36 35
c4 3 21 14 21 29c0 9 -9 19 -8 28c0 6 6 11 7 13c23 18 69 17 94 17c27 0 59 -1 84 -17c13 -9 15 -18 15 -24c0 -20 -21 -45 -22 -46c-39 -49 -118 -96 -181 -96c-4 0 -12 0 -21 3c-17 6 -30 21 -30 37c0 4 1 12 5 21z" />
    <glyph glyph-name="Ntilde" unicode="&#xd1;" horiz-adv-x="708" 
d="M635 494v-341c3 -56 2 -91 -8 -115c-14 -35 -43 -42 -58 -42c-21 1 -43 20 -47 23c-23 24 -45 48 -68 72c-32 36 -64 73 -97 109c-36 41 -74 81 -112 121c-8 9 -15 14 -20 13c-6 0 -9 -5 -13 -19c-4 -31 -5 -38 -5 -68v-50c0 -25 2 -56 19 -77c5 -6 12 -11 19 -15
c4 -3 32 -18 32 -45c0 -15 -12 -42 -49 -52c-14 -4 -45 -9 -84 -9c-42 0 -79 4 -92 8c-8 3 -40 17 -40 49c0 7 2 13 5 20c6 13 19 21 29 31c2 3 5 7 8 14c13 27 14 73 15 104c1 24 3 48 4 72v137c-3 61 -5 97 -18 122c-7 14 -15 21 -27 31c-15 13 -23 22 -23 40
c0 10 3 21 8 30c17 29 56 40 126 40c28 0 56 0 77 -15c7 -5 15 -13 29 -29c32 -36 63 -72 96 -108c32 -34 65 -67 98 -101c17 -17 37 -34 46 -34c6 0 9 8 10 10c4 10 4 35 6 66c0 26 -1 53 -10 77c-2 3 -6 14 -14 22c-8 7 -19 9 -27 17c-5 4 -16 18 -16 38c1 14 6 24 10 28
c17 24 52 26 82 28c16 0 33 1 50 1c4 0 50 1 77 -8c33 -11 38 -31 38 -46c0 -4 0 -15 -7 -26c-10 -15 -29 -24 -39 -38c-7 -11 -7 -21 -8 -49c0 -12 -1 -24 -2 -36zM140 807c2 19 9 30 13 37c28 47 82 50 99 50c47 0 92 -23 136 -39c24 -8 40 -15 52 -15c16 0 12 9 16 23
c2 7 5 12 9 16c10 11 25 16 40 16c8 0 10 -1 14 -2c4 0 39 -6 55 -22c5 -6 13 -16 13 -37c0 -18 -8 -34 -11 -39c-27 -48 -78 -53 -94 -53c-30 0 -70 11 -134 36c-31 12 -56 21 -71 21c-13 0 -13 -9 -14 -14c-4 -19 -6 -24 -14 -30c-12 -11 -30 -12 -35 -12
c-14 0 -32 6 -35 7c-17 5 -46 10 -39 57z" />
    <glyph glyph-name="aacute" unicode="&#xe1;" horiz-adv-x="521" 
d="M467 348v-171c2 -21 5 -36 10 -44c2 -4 5 -7 12 -12c6 -4 26 -15 26 -39c0 -4 -2 -14 -7 -23c-12 -22 -54 -65 -123 -65c-38 0 -56 11 -86 32c-7 6 -13 12 -21 12c-5 0 -8 -1 -17 -5c-20 -13 -57 -40 -120 -40c-112 0 -134 88 -134 128c0 51 27 102 67 131
c43 32 90 39 143 44c2 1 15 1 26 4c16 4 22 10 22 42c0 52 -3 87 -35 87c-20 0 -31 -12 -43 -26c-5 -8 -11 -16 -16 -24c-8 -11 -36 -48 -83 -48c-30 0 -54 15 -54 48c0 44 55 83 60 86c34 25 88 51 186 51c114 0 162 -53 178 -101c7 -19 8 -30 9 -67zM269 174
c0 29 -2 43 -14 50c-2 2 -8 5 -16 5c-2 0 -8 -1 -13 -4c-13 -8 -25 -32 -25 -64c0 -18 4 -28 7 -34c8 -16 23 -20 29 -19c6 0 11 2 16 5c18 13 16 40 16 61zM144 604c4 10 13 21 32 36c13 10 26 18 26 33c0 3 0 5 -4 13c0 0 -5 10 -4 15c0 7 7 12 8 13c17 12 48 17 92 17
c55 0 100 -14 100 -41c0 -4 -1 -11 -5 -21c-9 -20 -24 -40 -57 -66c-55 -43 -114 -55 -143 -55c-35 0 -50 22 -50 38c0 4 1 9 5 18z" />
    <glyph glyph-name="agrave" unicode="&#xe0;" horiz-adv-x="521" 
d="M467 348v-171c2 -21 5 -36 10 -44c2 -4 5 -7 12 -12c6 -4 26 -15 26 -39c0 -4 -2 -14 -7 -23c-12 -22 -54 -65 -123 -65c-38 0 -56 11 -86 32c-7 6 -13 12 -21 12c-5 0 -8 -1 -17 -5c-20 -13 -57 -40 -120 -40c-112 0 -134 88 -134 128c0 51 27 102 67 131
c43 32 90 39 143 44c2 1 15 1 26 4c16 4 22 10 22 42c0 52 -3 87 -35 87c-20 0 -31 -12 -43 -26c-5 -8 -11 -16 -16 -24c-8 -11 -36 -48 -83 -48c-30 0 -54 15 -54 48c0 44 55 83 60 86c34 25 88 51 186 51c114 0 162 -53 178 -101c7 -19 8 -30 9 -67zM269 174
c0 29 -2 43 -14 50c-2 2 -8 5 -16 5c-2 0 -8 -1 -13 -4c-13 -8 -25 -32 -25 -64c0 -18 4 -28 7 -34c8 -16 23 -20 29 -19c6 0 11 2 16 5c18 13 16 40 16 61zM130 711c8 7 19 11 22 12c11 3 42 9 74 9c36 0 72 -10 81 -15c11 -6 13 -15 13 -19c0 -8 -7 -16 -7 -25
c1 -17 16 -24 29 -34c23 -19 34 -38 34 -51c0 -19 -15 -40 -56 -40c-33 0 -100 20 -161 79c-23 22 -40 50 -39 63c0 5 2 13 10 21z" />
    <glyph glyph-name="acircumflex" unicode="&#xe2;" horiz-adv-x="521" 
d="M467 348v-171c2 -21 5 -36 10 -44c2 -4 5 -7 12 -12c6 -4 26 -15 26 -39c0 -4 -2 -14 -7 -23c-12 -22 -54 -65 -123 -65c-38 0 -56 11 -86 32c-7 6 -13 12 -21 12c-5 0 -8 -1 -17 -5c-20 -13 -57 -40 -120 -40c-112 0 -134 88 -134 128c0 51 27 102 67 131
c43 32 90 39 143 44c2 1 15 1 26 4c16 4 22 10 22 42c0 52 -3 87 -35 87c-20 0 -31 -12 -43 -26c-5 -8 -11 -16 -16 -24c-8 -11 -36 -48 -83 -48c-30 0 -54 15 -54 48c0 44 55 83 60 86c34 25 88 51 186 51c114 0 162 -53 178 -101c7 -19 8 -30 9 -67zM269 174
c0 29 -2 43 -14 50c-2 2 -8 5 -16 5c-2 0 -8 -1 -13 -4c-13 -8 -25 -32 -25 -64c0 -18 4 -28 7 -34c8 -16 23 -20 29 -19c6 0 11 2 16 5c18 13 16 40 16 61zM83 609c5 12 15 20 36 39c58 51 105 79 139 79c24 0 47 -16 69 -30c32 -20 57 -36 84 -64c14 -15 26 -30 26 -48
c0 -10 -6 -37 -36 -37c-22 0 -42 12 -61 20c-13 6 -27 12 -41 19c-22 11 -30 13 -42 13c-15 0 -28 -6 -42 -13c-44 -22 -67 -37 -93 -37c-11 0 -43 3 -43 39c0 3 0 12 4 20z" />
    <glyph glyph-name="atilde" unicode="&#xe3;" horiz-adv-x="521" 
d="M467 348v-171c2 -21 5 -36 10 -44c2 -4 5 -7 12 -12c6 -4 26 -15 26 -39c0 -4 -2 -14 -7 -23c-12 -22 -54 -65 -123 -65c-38 0 -56 11 -86 32c-7 6 -13 12 -21 12c-5 0 -8 -1 -17 -5c-20 -13 -57 -40 -120 -40c-112 0 -134 88 -134 128c0 51 27 102 67 131
c43 32 90 39 143 44c2 1 15 1 26 4c16 4 22 10 22 42c0 52 -3 87 -35 87c-20 0 -31 -12 -43 -26c-5 -8 -11 -16 -16 -24c-8 -11 -36 -48 -83 -48c-30 0 -54 15 -54 48c0 44 55 83 60 86c34 25 88 51 186 51c114 0 162 -53 178 -101c7 -19 8 -30 9 -67zM269 174
c0 29 -2 43 -14 50c-2 2 -8 5 -16 5c-2 0 -8 -1 -13 -4c-13 -8 -25 -32 -25 -64c0 -18 4 -28 7 -34c8 -16 23 -20 29 -19c6 0 11 2 16 5c18 13 16 40 16 61zM45 620c4 28 30 87 111 87c45 0 99 -23 107 -26c18 -7 36 -14 55 -21c14 -5 19 -7 27 -7c10 0 13 3 15 13
c1 8 1 17 12 28c6 5 19 13 40 13c11 0 19 -1 30 -4c40 -10 50 -35 50 -53c0 -9 -2 -24 -12 -42c-25 -48 -80 -53 -97 -53c-34 0 -67 13 -100 26c-16 6 -31 12 -46 17c-14 5 -38 15 -55 15c-18 0 -15 -14 -18 -31c-1 -4 -3 -9 -9 -15c-6 -5 -18 -10 -38 -10
c-18 0 -51 8 -64 23c-9 10 -10 25 -8 40z" />
    <glyph glyph-name="ccedilla" unicode="&#xe7;" horiz-adv-x="479" 
d="M11 242c0 81 31 160 92 213c14 12 51 41 102 53c27 6 53 6 62 6c14 0 55 0 93 -15c52 -21 95 -70 95 -130c0 -14 -4 -30 -9 -41c-15 -32 -54 -54 -92 -54c-7 0 -25 1 -41 13c-24 17 -27 41 -31 68c-5 31 -12 41 -27 41c-3 0 -12 -1 -19 -9c-9 -10 -18 -40 -18 -75
c0 -13 1 -71 24 -113c17 -32 53 -62 91 -62c22 0 43 13 67 13c41 0 48 -37 48 -51c0 -13 -4 -24 -21 -43c-57 -63 -145 -65 -169 -65c-20 0 -62 2 -110 23c-49 23 -137 87 -137 228zM231 -35l-29 45h58l68 -89c12 -19 16 -29 16 -40c0 -10 -3 -17 -5 -20
c-8 -15 -21 -18 -38 -21c-7 -1 -17 -3 -34 -3c-38 0 -63 13 -75 22c-10 8 -18 18 -18 31c0 26 26 30 46 34c1 0 12 1 17 6c4 3 5 9 5 12c0 9 -5 16 -11 23z" />
    <glyph glyph-name="eacute" unicode="&#xe9;" horiz-adv-x="479" 
d="M401 228h-32c-14 0 -27 1 -41 2c-16 -1 -32 -1 -47 -1c-10 0 -19 0 -27 -1c-14 -1 -26 -7 -26 -22c0 -4 0 -5 1 -7c2 -5 13 -28 16 -32c8 -13 28 -33 68 -33c25 0 46 9 52 11c21 8 25 11 39 11c25 0 42 -18 42 -44c0 -19 -8 -41 -39 -65c-60 -51 -145 -54 -168 -54
c-31 0 -90 3 -147 57c-74 70 -78 164 -78 196c0 20 1 67 21 117c36 93 122 154 223 154c11 0 42 -1 73 -11c41 -14 104 -49 123 -153c1 -8 5 -34 5 -60c0 -23 -2 -56 -28 -64c-9 -3 -14 -1 -30 -1zM286 348c0 11 -1 25 -5 35c-5 16 -20 31 -35 30c-4 0 -10 -1 -17 -7
c-18 -16 -20 -38 -20 -61c0 -1 0 -12 2 -17c3 -12 14 -12 37 -12c30 -1 35 3 38 32zM133 604c5 10 13 21 32 36c13 10 26 18 26 33c0 3 0 5 -3 13c0 0 -5 10 -5 15c0 7 7 12 9 13c17 12 47 17 92 17c55 0 100 -14 100 -41c0 -4 -1 -11 -6 -21c-8 -20 -23 -40 -56 -66
c-55 -43 -115 -55 -144 -55c-34 0 -49 22 -49 38c0 4 0 9 4 18z" />
    <glyph glyph-name="egrave" unicode="&#xe8;" horiz-adv-x="479" 
d="M401 228h-32c-14 0 -27 1 -41 2c-16 -1 -32 -1 -47 -1c-10 0 -19 0 -27 -1c-14 -1 -26 -7 -26 -22c0 -4 0 -5 1 -7c2 -5 13 -28 16 -32c8 -13 28 -33 68 -33c25 0 46 9 52 11c21 8 25 11 39 11c25 0 42 -18 42 -44c0 -19 -8 -41 -39 -65c-60 -51 -145 -54 -168 -54
c-31 0 -90 3 -147 57c-74 70 -78 164 -78 196c0 20 1 67 21 117c36 93 122 154 223 154c11 0 42 -1 73 -11c41 -14 104 -49 123 -153c1 -8 5 -34 5 -60c0 -23 -2 -56 -28 -64c-9 -3 -14 -1 -30 -1zM286 348c0 11 -1 25 -5 35c-5 16 -20 31 -35 30c-4 0 -10 -1 -17 -7
c-18 -16 -20 -38 -20 -61c0 -1 0 -12 2 -17c3 -12 14 -12 37 -12c30 -1 35 3 38 32zM125 711c8 7 19 11 22 12c10 3 42 9 74 9c35 0 72 -10 80 -15c12 -6 14 -15 14 -19c0 -8 -7 -16 -7 -25c0 -17 16 -24 28 -34c24 -19 35 -38 35 -51c-1 -19 -16 -40 -56 -40
c-33 0 -101 20 -161 79c-23 22 -40 50 -39 63c0 5 2 13 10 21z" />
    <glyph glyph-name="ecircumflex" unicode="&#xea;" horiz-adv-x="479" 
d="M401 228h-32c-14 0 -27 1 -41 2c-16 -1 -32 -1 -47 -1c-10 0 -19 0 -27 -1c-14 -1 -26 -7 -26 -22c0 -4 0 -5 1 -7c2 -5 13 -28 16 -32c8 -13 28 -33 68 -33c25 0 46 9 52 11c21 8 25 11 39 11c25 0 42 -18 42 -44c0 -19 -8 -41 -39 -65c-60 -51 -145 -54 -168 -54
c-31 0 -90 3 -147 57c-74 70 -78 164 -78 196c0 20 1 67 21 117c36 93 122 154 223 154c11 0 42 -1 73 -11c41 -14 104 -49 123 -153c1 -8 5 -34 5 -60c0 -23 -2 -56 -28 -64c-9 -3 -14 -1 -30 -1zM286 348c0 11 -1 25 -5 35c-5 16 -20 31 -35 30c-4 0 -10 -1 -17 -7
c-18 -16 -20 -38 -20 -61c0 -1 0 -12 2 -17c3 -12 14 -12 37 -12c30 -1 35 3 38 32zM72 609c6 12 15 20 36 39c59 51 106 79 139 79c24 0 47 -16 70 -30c31 -20 57 -36 83 -64c15 -15 26 -30 26 -48c0 -10 -6 -37 -36 -37c-21 0 -42 12 -60 20c-14 6 -27 12 -41 19
c-22 11 -30 13 -42 13c-15 0 -28 -6 -43 -13c-43 -22 -67 -37 -92 -37c-12 0 -44 3 -44 39c0 3 1 12 4 20z" />
    <glyph glyph-name="edieresis" unicode="&#xeb;" horiz-adv-x="479" 
d="M401 228h-32c-14 0 -27 1 -41 2c-16 -1 -32 -1 -47 -1c-10 0 -19 0 -27 -1c-14 -1 -26 -7 -26 -22c0 -4 0 -5 1 -7c2 -5 13 -28 16 -32c8 -13 28 -33 68 -33c25 0 46 9 52 11c21 8 25 11 39 11c25 0 42 -18 42 -44c0 -19 -8 -41 -39 -65c-60 -51 -145 -54 -168 -54
c-31 0 -90 3 -147 57c-74 70 -78 164 -78 196c0 20 1 67 21 117c36 93 122 154 223 154c11 0 42 -1 73 -11c41 -14 104 -49 123 -153c1 -8 5 -34 5 -60c0 -23 -2 -56 -28 -64c-9 -3 -14 -1 -30 -1zM286 348c0 11 -1 25 -5 35c-5 16 -20 31 -35 30c-4 0 -10 -1 -17 -7
c-18 -16 -20 -38 -20 -61c0 -1 0 -12 2 -17c3 -12 14 -12 37 -12c30 -1 35 3 38 32zM13 617c2 19 14 35 17 40c29 39 88 69 137 69c11 0 46 0 69 -27c4 -5 13 -18 13 -37c0 -23 -11 -42 -25 -58c-33 -35 -81 -64 -134 -64c-68 0 -80 52 -77 77zM273 620c2 14 10 28 19 39
c43 55 119 68 138 68c38 0 76 -27 76 -68c0 -34 -25 -58 -31 -64c-47 -47 -102 -56 -130 -56c-67 0 -77 56 -72 81z" />
    <glyph glyph-name="iacute" unicode="&#xed;" horiz-adv-x="313" 
d="M260 358v-202c1 -24 3 -32 10 -41c14 -19 34 -27 34 -52c0 -6 -1 -15 -8 -26c-12 -20 -35 -26 -58 -31c-39 -9 -59 -10 -77 -10c-15 0 -41 1 -77 7c-59 9 -85 31 -85 61c0 7 2 21 15 35c7 8 17 15 23 24c9 15 11 35 12 72c0 15 1 30 1 45c1 16 2 33 3 50
c-2 34 -3 61 -10 73c-2 5 -8 11 -18 19c-7 5 -27 18 -27 44c0 7 3 17 8 24c14 22 38 30 60 38c73 26 121 29 156 29c27 0 37 -6 43 -16c2 -3 5 -10 5 -19c0 -8 -2 -11 -4 -19c0 -1 -2 -11 -2 -19c-2 -29 -2 -57 -4 -86zM39 604c5 10 13 21 33 36c13 10 26 18 26 33
c0 3 -1 5 -4 13c0 0 -5 10 -5 15c1 7 8 12 9 13c17 12 47 17 92 17c55 0 100 -14 100 -41c0 -4 -1 -11 -5 -21c-9 -20 -24 -40 -57 -66c-55 -43 -114 -55 -144 -55c-34 0 -49 22 -49 38c0 4 0 9 4 18z" />
    <glyph glyph-name="igrave" unicode="&#xec;" horiz-adv-x="313" 
d="M260 358v-202c1 -24 3 -32 10 -41c14 -19 34 -27 34 -52c0 -6 -1 -15 -8 -26c-12 -20 -35 -26 -58 -31c-39 -9 -59 -10 -77 -10c-15 0 -41 1 -77 7c-59 9 -85 31 -85 61c0 7 2 21 15 35c7 8 17 15 23 24c9 15 11 35 12 72c0 15 1 30 1 45c1 16 2 33 3 50
c-2 34 -3 61 -10 73c-2 5 -8 11 -18 19c-7 5 -27 18 -27 44c0 7 3 17 8 24c14 22 38 30 60 38c73 26 121 29 156 29c27 0 37 -6 43 -16c2 -3 5 -10 5 -19c0 -8 -2 -11 -4 -19c0 -1 -2 -11 -2 -19c-2 -29 -2 -57 -4 -86zM26 711c8 7 19 11 22 12c11 3 42 9 74 9
c35 0 72 -10 81 -15c11 -6 13 -15 13 -19c0 -8 -7 -16 -7 -25c0 -17 16 -24 29 -34c23 -19 34 -38 34 -51c-1 -19 -15 -40 -56 -40c-33 0 -101 20 -161 79c-23 22 -40 50 -39 63c0 5 2 13 10 21z" />
    <glyph glyph-name="icircumflex" unicode="&#xee;" horiz-adv-x="313" 
d="M260 358v-202c1 -24 3 -32 10 -41c14 -19 34 -27 34 -52c0 -6 -1 -15 -8 -26c-12 -20 -35 -26 -58 -31c-39 -9 -59 -10 -77 -10c-15 0 -41 1 -77 7c-59 9 -85 31 -85 61c0 7 2 21 15 35c7 8 17 15 23 24c9 15 11 35 12 72c0 15 1 30 1 45c1 16 2 33 3 50
c-2 34 -3 61 -10 73c-2 5 -8 11 -18 19c-7 5 -27 18 -27 44c0 7 3 17 8 24c14 22 38 30 60 38c73 26 121 29 156 29c27 0 37 -6 43 -16c2 -3 5 -10 5 -19c0 -8 -2 -11 -4 -19c0 -1 -2 -11 -2 -19c-2 -29 -2 -57 -4 -86zM-21 609c5 12 15 20 35 39c59 51 106 79 140 79
c24 0 47 -16 69 -30c31 -20 57 -36 84 -64c14 -15 26 -30 26 -48c0 -10 -6 -37 -37 -37c-21 0 -42 12 -60 20c-13 6 -27 12 -41 19c-22 11 -30 13 -42 13c-15 0 -28 -6 -42 -13c-44 -22 -67 -37 -93 -37c-11 0 -44 3 -44 39c0 3 1 12 5 20z" />
    <glyph glyph-name="idieresis" unicode="&#xef;" horiz-adv-x="313" 
d="M260 358v-202c1 -24 3 -32 10 -41c14 -19 34 -27 34 -52c0 -6 -1 -15 -8 -26c-12 -20 -35 -26 -58 -31c-39 -9 -59 -10 -77 -10c-15 0 -41 1 -77 7c-59 9 -85 31 -85 61c0 7 2 21 15 35c7 8 17 15 23 24c9 15 11 35 12 72c0 15 1 30 1 45c1 16 2 33 3 50
c-2 34 -3 61 -10 73c-2 5 -8 11 -18 19c-7 5 -27 18 -27 44c0 7 3 17 8 24c14 22 38 30 60 38c73 26 121 29 156 29c27 0 37 -6 43 -16c2 -3 5 -10 5 -19c0 -8 -2 -11 -4 -19c0 -1 -2 -11 -2 -19c-2 -29 -2 -57 -4 -86zM-81 617c2 19 14 35 17 40c30 39 89 69 138 69
c10 0 46 0 68 -27c4 -5 13 -18 13 -37c0 -23 -11 -42 -25 -58c-33 -35 -81 -64 -134 -64c-68 0 -80 52 -77 77zM179 620c2 14 11 28 19 39c44 55 119 68 138 68c38 0 76 -27 76 -68c0 -34 -24 -58 -31 -64c-46 -47 -102 -56 -129 -56c-68 0 -77 56 -73 81z" />
    <glyph glyph-name="ntilde" unicode="&#xf1;" horiz-adv-x="604" 
d="M255 487v-23c0 -5 0 -9 2 -13c1 -5 7 -16 18 -16c6 0 11 3 20 13c1 2 13 16 23 25c29 27 69 42 110 42c17 0 66 -3 99 -45c21 -26 24 -53 26 -117v-189c0 -7 0 -39 13 -63c9 -18 24 -29 24 -49c0 -18 -10 -28 -15 -32c-22 -18 -75 -24 -101 -24c-17 0 -36 1 -72 5
c-31 4 -48 9 -60 17c-18 12 -21 28 -21 37c1 23 14 27 23 46c7 13 9 31 10 46c3 31 3 62 4 92c-1 63 -2 103 -31 117c-3 2 -11 5 -20 5c-8 0 -29 -4 -40 -23c-10 -19 -11 -57 -12 -108v-33c2 -58 4 -83 17 -109c7 -12 12 -19 12 -34c0 -10 -3 -26 -24 -39
c-15 -9 -53 -19 -103 -19c-6 0 -79 1 -120 23c-16 8 -27 20 -27 38c0 17 9 22 20 35c6 7 9 11 11 15c9 14 11 26 11 60v123c1 33 2 51 -5 63c-5 9 -16 18 -17 20c-15 12 -28 22 -28 40c0 4 1 12 6 21c9 19 26 30 64 47c56 24 93 35 154 35c29 0 30 -17 29 -29zM87 620
c4 28 30 87 110 87c46 0 99 -23 107 -26c19 -7 37 -14 55 -21c15 -5 19 -7 28 -7s13 3 14 13c1 8 1 17 13 28c6 5 19 13 39 13c11 0 20 -1 30 -4c40 -10 51 -35 51 -53c0 -9 -3 -24 -12 -42c-26 -48 -80 -53 -97 -53c-34 0 -68 13 -101 26c-15 6 -30 12 -45 17
c-14 5 -39 15 -56 15s-14 -14 -17 -31c-1 -4 -3 -9 -9 -15c-7 -5 -18 -10 -38 -10c-18 0 -51 8 -64 23c-9 10 -10 25 -8 40z" />
    <glyph glyph-name="oacute" unicode="&#xf3;" horiz-adv-x="542" 
d="M13 262c0 33 2 102 61 168c29 34 89 86 201 86c80 0 125 -27 153 -50c89 -70 96 -175 96 -211c0 -16 -2 -60 -19 -103c-39 -102 -135 -161 -242 -161c-32 0 -107 4 -171 66c-31 30 -80 95 -79 205zM224 253c7 -47 28 -100 34 -112c0 -1 13 -27 30 -27c16 0 28 21 28 56
c0 12 -1 23 -2 34c-1 24 -4 72 -23 129c-11 32 -18 49 -31 58c-3 2 -8 5 -17 5c-21 0 -26 -32 -26 -56c0 -11 1 -49 7 -87zM154 604c5 10 13 21 32 36c13 10 26 18 26 33c0 3 0 5 -3 13c0 0 -5 10 -5 15c0 7 7 12 9 13c17 12 47 17 92 17c54 0 100 -14 100 -41
c0 -4 -2 -11 -6 -21c-9 -20 -24 -40 -56 -66c-55 -43 -115 -55 -144 -55c-35 0 -49 22 -49 38c0 4 0 9 4 18z" />
    <glyph glyph-name="ograve" unicode="&#xf2;" horiz-adv-x="542" 
d="M13 262c0 33 2 102 61 168c29 34 89 86 201 86c80 0 125 -27 153 -50c89 -70 96 -175 96 -211c0 -16 -2 -60 -19 -103c-39 -102 -135 -161 -242 -161c-32 0 -107 4 -171 66c-31 30 -80 95 -79 205zM224 253c7 -47 28 -100 34 -112c0 -1 13 -27 30 -27c16 0 28 21 28 56
c0 12 -1 23 -2 34c-1 24 -4 72 -23 129c-11 32 -18 49 -31 58c-3 2 -8 5 -17 5c-21 0 -26 -32 -26 -56c0 -11 1 -49 7 -87zM141 711c7 7 19 11 22 12c10 3 42 9 73 9c36 0 72 -10 81 -15c11 -6 14 -15 14 -19c0 -8 -7 -16 -7 -25c0 -17 15 -24 28 -34c23 -19 34 -38 34 -51
c0 -19 -15 -40 -55 -40c-33 0 -101 20 -161 79c-23 22 -40 50 -40 63c1 5 2 13 11 21z" />
    <glyph glyph-name="ocircumflex" unicode="&#xf4;" horiz-adv-x="542" 
d="M13 262c0 33 2 102 61 168c29 34 89 86 201 86c80 0 125 -27 153 -50c89 -70 96 -175 96 -211c0 -16 -2 -60 -19 -103c-39 -102 -135 -161 -242 -161c-32 0 -107 4 -171 66c-31 30 -80 95 -79 205zM224 253c7 -47 28 -100 34 -112c0 -1 13 -27 30 -27c16 0 28 21 28 56
c0 12 -1 23 -2 34c-1 24 -4 72 -23 129c-11 32 -18 49 -31 58c-3 2 -8 5 -17 5c-21 0 -26 -32 -26 -56c0 -11 1 -49 7 -87zM93 609c5 12 15 20 36 39c59 51 106 79 139 79c24 0 47 -16 69 -30c32 -20 58 -36 84 -64c14 -15 26 -30 26 -48c0 -10 -6 -37 -36 -37
c-21 0 -42 12 -60 20c-14 6 -27 12 -42 19c-21 11 -30 13 -41 13c-16 0 -28 -6 -43 -13c-44 -22 -67 -37 -92 -37c-12 0 -44 3 -44 39c0 3 1 12 4 20z" />
    <glyph glyph-name="otilde" unicode="&#xf5;" horiz-adv-x="542" 
d="M13 262c0 33 2 102 61 168c29 34 89 86 201 86c80 0 125 -27 153 -50c89 -70 96 -175 96 -211c0 -16 -2 -60 -19 -103c-39 -102 -135 -161 -242 -161c-32 0 -107 4 -171 66c-31 30 -80 95 -79 205zM224 253c7 -47 28 -100 34 -112c0 -1 13 -27 30 -27c16 0 28 21 28 56
c0 12 -1 23 -2 34c-1 24 -4 72 -23 129c-11 32 -18 49 -31 58c-3 2 -8 5 -17 5c-21 0 -26 -32 -26 -56c0 -11 1 -49 7 -87zM55 620c5 28 30 87 111 87c46 0 99 -23 107 -26c19 -7 37 -14 55 -21c15 -5 19 -7 28 -7s13 3 14 13c1 8 1 17 13 28c6 5 18 13 39 13
c11 0 19 -1 30 -4c40 -10 51 -35 51 -53c0 -9 -3 -24 -12 -42c-26 -48 -80 -53 -97 -53c-35 0 -68 13 -101 26c-16 6 -31 12 -46 17c-14 5 -38 15 -55 15c-18 0 -14 -14 -18 -31c-1 -4 -2 -9 -9 -15c-6 -5 -17 -10 -37 -10c-19 0 -51 8 -64 23c-9 10 -11 25 -9 40z" />
    <glyph glyph-name="uacute" unicode="&#xfa;" horiz-adv-x="583" 
d="M250 401v-193c0 -23 -1 -43 18 -57c9 -8 18 -9 23 -9c11 0 18 7 21 10c21 20 22 47 22 73v87c-2 42 -1 65 -12 82c-7 12 -15 14 -25 24c-3 4 -11 13 -11 27c0 8 3 24 18 36c24 20 81 35 158 35c8 0 17 0 25 -1c14 -1 51 -2 51 -45c0 -11 -5 -31 -6 -42
c-4 -22 -4 -36 -4 -59v-154c3 -54 5 -83 24 -101c12 -12 23 -17 23 -34c0 -27 -29 -51 -51 -61c-30 -16 -83 -27 -116 -27s-56 8 -65 18c-4 5 -8 13 -12 27c-2 7 -4 13 -9 13c-2 0 -5 -1 -13 -6c-40 -33 -67 -51 -123 -51c-8 0 -28 0 -49 6c-35 10 -68 38 -81 73
c-9 24 -10 51 -11 78v187c-2 37 -2 46 -17 60c-16 14 -28 23 -28 45c0 26 14 40 58 54c40 13 66 16 109 18c10 1 21 2 32 2s34 -2 44 -32c7 -21 7 -61 7 -83zM175 604c4 10 13 21 32 36c13 10 26 18 26 33c0 3 0 5 -3 13c-1 0 -5 10 -5 15c0 7 7 12 9 13c17 12 47 17 92 17
c54 0 100 -14 100 -41c0 -4 -2 -11 -6 -21c-9 -20 -24 -40 -56 -66c-56 -43 -115 -55 -144 -55c-35 0 -50 22 -50 38c0 4 1 9 5 18z" />
    <glyph glyph-name="ugrave" unicode="&#xf9;" horiz-adv-x="583" 
d="M250 401v-193c0 -23 -1 -43 18 -57c9 -8 18 -9 23 -9c11 0 18 7 21 10c21 20 22 47 22 73v87c-2 42 -1 65 -12 82c-7 12 -15 14 -25 24c-3 4 -11 13 -11 27c0 8 3 24 18 36c24 20 81 35 158 35c8 0 17 0 25 -1c14 -1 51 -2 51 -45c0 -11 -5 -31 -6 -42
c-4 -22 -4 -36 -4 -59v-154c3 -54 5 -83 24 -101c12 -12 23 -17 23 -34c0 -27 -29 -51 -51 -61c-30 -16 -83 -27 -116 -27s-56 8 -65 18c-4 5 -8 13 -12 27c-2 7 -4 13 -9 13c-2 0 -5 -1 -13 -6c-40 -33 -67 -51 -123 -51c-8 0 -28 0 -49 6c-35 10 -68 38 -81 73
c-9 24 -10 51 -11 78v187c-2 37 -2 46 -17 60c-16 14 -28 23 -28 45c0 26 14 40 58 54c40 13 66 16 109 18c10 1 21 2 32 2s34 -2 44 -32c7 -21 7 -61 7 -83zM162 711c7 7 18 11 21 12c11 3 42 9 74 9c36 0 72 -10 81 -15c11 -6 14 -15 14 -19c0 -8 -7 -16 -7 -25
c0 -17 15 -24 28 -34c23 -19 34 -38 34 -51c0 -19 -15 -40 -56 -40c-33 0 -100 20 -160 79c-24 22 -40 50 -40 63c0 5 2 13 11 21z" />
    <glyph glyph-name="ucircumflex" unicode="&#xfb;" horiz-adv-x="583" 
d="M250 401v-193c0 -23 -1 -43 18 -57c9 -8 18 -9 23 -9c11 0 18 7 21 10c21 20 22 47 22 73v87c-2 42 -1 65 -12 82c-7 12 -15 14 -25 24c-3 4 -11 13 -11 27c0 8 3 24 18 36c24 20 81 35 158 35c8 0 17 0 25 -1c14 -1 51 -2 51 -45c0 -11 -5 -31 -6 -42
c-4 -22 -4 -36 -4 -59v-154c3 -54 5 -83 24 -101c12 -12 23 -17 23 -34c0 -27 -29 -51 -51 -61c-30 -16 -83 -27 -116 -27s-56 8 -65 18c-4 5 -8 13 -12 27c-2 7 -4 13 -9 13c-2 0 -5 -1 -13 -6c-40 -33 -67 -51 -123 -51c-8 0 -28 0 -49 6c-35 10 -68 38 -81 73
c-9 24 -10 51 -11 78v187c-2 37 -2 46 -17 60c-16 14 -28 23 -28 45c0 26 14 40 58 54c40 13 66 16 109 18c10 1 21 2 32 2s34 -2 44 -32c7 -21 7 -61 7 -83zM114 609c5 12 15 20 36 39c59 51 106 79 139 79c24 0 47 -16 69 -30c32 -20 58 -36 84 -64c14 -15 26 -30 26 -48
c0 -10 -6 -37 -36 -37c-21 0 -42 12 -60 20c-14 6 -28 12 -42 19c-21 11 -30 13 -42 13c-15 0 -28 -6 -42 -13c-44 -22 -67 -37 -93 -37c-11 0 -43 3 -43 39c0 3 0 12 4 20z" />
    <glyph glyph-name="Agrave" unicode="&#xc0;" horiz-adv-x="729" 
d="M115 253c21 53 42 106 62 159c13 33 25 65 37 98c8 27 15 53 15 80c0 11 0 15 -2 26c-1 10 -4 20 -4 30s2 17 8 25c20 28 64 39 95 39s54 -10 64 -15c44 -23 63 -65 81 -107c23 -56 45 -113 66 -171c16 -42 31 -86 47 -128c13 -34 28 -67 42 -101c26 -58 37 -58 70 -79
c19 -11 31 -23 31 -47c0 -8 -2 -22 -14 -36c-24 -29 -68 -28 -106 -30c-23 0 -45 -1 -68 -1c-30 0 -59 1 -89 4c-2 0 -34 2 -51 10c-18 9 -31 31 -31 51c0 23 16 35 22 39c4 3 19 12 19 30c0 20 -29 25 -30 25c-18 4 -37 4 -74 6c-42 0 -64 0 -81 -12c-9 -6 -11 -15 -11 -19
s2 -16 12 -23c5 -4 14 -6 23 -17c4 -5 11 -13 11 -30s-7 -44 -44 -54c-22 -6 -62 -8 -83 -8c-1 0 -68 0 -99 14c-20 9 -35 26 -35 49c0 32 24 48 32 53c17 11 22 14 29 22c5 7 9 16 18 32c5 11 11 22 16 33c8 17 15 35 22 53zM311 275c15 0 35 -1 49 9c6 4 7 9 7 12
c0 6 -6 19 -11 34c-3 7 -5 14 -8 21c-4 8 -9 17 -13 25c-1 2 -7 17 -15 25c-4 3 -7 4 -9 4s-7 -2 -13 -9c-10 -14 -14 -25 -25 -55c-4 -13 -11 -27 -11 -39c0 -7 2 -11 3 -13c10 -15 27 -15 46 -14zM221 894c16 20 70 24 95 24c35 0 72 -9 79 -12c15 -6 19 -16 19 -22
c0 -8 -7 -16 -7 -25c0 -15 12 -21 23 -30c15 -12 39 -35 39 -54c0 -29 -29 -41 -54 -41c-14 0 -24 2 -37 6c-45 12 -76 30 -112 61c-32 27 -52 55 -52 73c0 3 1 12 7 20z" />
    <glyph glyph-name="Atilde" unicode="&#xc3;" horiz-adv-x="729" 
d="M115 253c21 53 42 106 62 159c13 33 25 65 37 98c8 27 15 53 15 80c0 11 0 15 -2 26c-1 10 -4 20 -4 30s2 17 8 25c20 28 64 39 95 39s54 -10 64 -15c44 -23 63 -65 81 -107c23 -56 45 -113 66 -171c16 -42 31 -86 47 -128c13 -34 28 -67 42 -101c26 -58 37 -58 70 -79
c19 -11 31 -23 31 -47c0 -8 -2 -22 -14 -36c-24 -29 -68 -28 -106 -30c-23 0 -45 -1 -68 -1c-30 0 -59 1 -89 4c-2 0 -34 2 -51 10c-18 9 -31 31 -31 51c0 23 16 35 22 39c4 3 19 12 19 30c0 20 -29 25 -30 25c-18 4 -37 4 -74 6c-42 0 -64 0 -81 -12c-9 -6 -11 -15 -11 -19
s2 -16 12 -23c5 -4 14 -6 23 -17c4 -5 11 -13 11 -30s-7 -44 -44 -54c-22 -6 -62 -8 -83 -8c-1 0 -68 0 -99 14c-20 9 -35 26 -35 49c0 32 24 48 32 53c17 11 22 14 29 22c5 7 9 16 18 32c5 11 11 22 16 33c8 17 15 35 22 53zM311 275c15 0 35 -1 49 9c6 4 7 9 7 12
c0 6 -6 19 -11 34c-3 7 -5 14 -8 21c-4 8 -9 17 -13 25c-1 2 -7 17 -15 25c-4 3 -7 4 -9 4s-7 -2 -13 -9c-10 -14 -14 -25 -25 -55c-4 -13 -11 -27 -11 -39c0 -7 2 -11 3 -13c10 -15 27 -15 46 -14zM134 807c3 19 10 30 14 37c28 47 82 50 99 50c47 0 92 -23 136 -39
c24 -8 40 -15 51 -15c17 0 13 9 17 23c2 7 5 12 9 16c10 11 25 16 40 16c7 0 9 -1 14 -2c3 0 39 -6 55 -22c5 -6 12 -16 12 -37c0 -18 -7 -34 -10 -39c-27 -48 -78 -53 -95 -53c-30 0 -70 11 -133 36c-32 12 -56 21 -71 21c-13 0 -14 -9 -15 -14c-3 -19 -5 -24 -13 -30
c-13 -11 -30 -12 -35 -12c-14 0 -32 6 -35 7c-18 5 -46 10 -40 57z" />
    <glyph glyph-name="Otilde" unicode="&#xd5;" horiz-adv-x="688" 
d="M13 370c2 43 11 106 65 190c22 35 39 53 52 65c55 51 144 82 218 82c115 0 194 -69 221 -97c37 -37 97 -117 97 -253c0 -10 -1 -45 -6 -78c-13 -84 -46 -153 -113 -212c-58 -52 -125 -79 -204 -79c-86 0 -145 33 -172 51c-32 21 -55 47 -64 57c-65 76 -99 177 -94 274z
M255 462c4 -123 13 -154 32 -219c11 -40 16 -54 28 -73c3 -5 23 -38 55 -38c28 0 40 28 43 34c5 13 11 43 11 82c0 12 -1 41 -5 74c-3 18 -20 124 -58 198c-4 7 -21 45 -57 45c-15 0 -24 -9 -28 -13c-24 -24 -23 -59 -21 -90zM129 807c3 19 10 30 13 37c29 47 83 50 100 50
c47 0 91 -23 135 -39c24 -8 41 -15 52 -15c16 0 13 9 17 23c2 7 4 12 9 16c10 11 25 16 39 16c8 0 10 -1 15 -2c3 0 39 -6 54 -22c6 -6 13 -16 13 -37c0 -18 -7 -34 -11 -39c-26 -48 -78 -53 -94 -53c-30 0 -70 11 -133 36c-32 12 -56 21 -71 21c-13 0 -14 -9 -15 -14
c-3 -19 -6 -24 -13 -30c-13 -11 -30 -12 -35 -12c-14 0 -33 6 -35 7c-18 5 -46 10 -40 57z" />
    <glyph glyph-name="ydieresis" unicode="&#xff;" horiz-adv-x="583" 
d="M297 370c10 -29 15 -41 29 -66c7 -10 12 -13 17 -13c5 1 11 7 16 13c10 19 14 26 20 61c3 25 2 33 -5 43c-11 18 -28 25 -28 46c1 15 9 29 20 37c16 12 49 20 97 20c24 0 68 -3 88 -15c23 -13 29 -36 29 -44c0 -3 -1 -11 -5 -18c-9 -15 -19 -15 -32 -22
c-9 -4 -19 -12 -26 -19c-11 -13 -18 -34 -24 -50c-5 -10 -9 -20 -14 -31c-14 -43 -29 -85 -43 -128c-20 -60 -39 -121 -59 -181c-6 -17 -13 -34 -20 -51c-17 -36 -65 -132 -189 -132c-63 0 -104 29 -121 48c-18 20 -27 50 -27 77c0 16 3 24 6 30c13 35 48 60 86 60
c18 0 69 -8 80 -64c0 0 1 -25 15 -25c2 0 5 1 9 4c16 11 16 33 16 36c0 13 -2 22 -10 46c-43 101 -88 201 -133 301c-17 33 -29 52 -42 63c-19 16 -48 25 -48 54c0 7 2 13 5 19c10 18 26 24 43 29c21 7 50 13 100 13c27 0 54 -2 81 -4c22 -2 45 -3 63 -14
c14 -9 25 -24 25 -39c0 -19 -11 -28 -18 -43c-4 -8 -3 -14 -3 -18c0 -5 0 -11 2 -23zM54 617c3 19 14 35 18 40c29 39 88 69 137 69c11 0 46 0 68 -27c5 -5 14 -18 14 -37c0 -23 -11 -42 -26 -58c-32 -35 -81 -64 -134 -64c-67 0 -80 52 -77 77zM314 620c3 14 11 28 20 39
c43 55 119 68 137 68c39 0 77 -27 77 -68c0 -34 -25 -58 -31 -64c-47 -47 -102 -56 -130 -56c-67 0 -77 56 -73 81z" />
    <glyph glyph-name="Ydieresis" unicode="&#x178;" horiz-adv-x="688" 
d="M577 535l-65 -90c-38 -51 -38 -46 -53 -85v-164c1 -65 1 -72 36 -92c20 -11 32 -20 32 -43c0 -36 -32 -51 -64 -58c-20 -4 -67 -7 -126 -7c-33 0 -67 1 -99 4c-7 1 -40 3 -63 17c-22 13 -27 33 -27 45c0 17 12 29 27 38c14 8 25 11 36 22c13 13 17 29 17 66v96
c0 64 -5 80 -38 133l-45 67c-22 34 -43 65 -77 85c-14 8 -30 12 -43 21c-5 4 -24 20 -24 45c0 12 8 36 37 48c33 14 101 16 188 16c36 0 105 2 133 -20c16 -12 17 -31 17 -37c0 -11 -3 -21 -8 -29c-6 -11 -13 -19 -13 -31c0 -13 10 -26 17 -35c6 -9 14 -20 24 -20
c9 0 18 11 24 18c13 15 16 24 16 34s-4 14 -13 29c-2 4 -9 16 -9 29c0 12 6 39 35 51c17 7 46 11 88 11c14 0 43 0 78 -6c7 -1 37 -4 54 -25c4 -4 12 -15 12 -32c0 -27 -22 -39 -45 -49c-24 -9 -32 -13 -59 -52zM87 822c3 18 17 37 32 48c13 10 56 34 110 34
c75 0 103 -40 103 -73c0 -27 -22 -53 -45 -68c-13 -8 -54 -27 -104 -27c-15 0 -69 0 -90 44c-9 18 -8 34 -6 42zM365 821c2 11 8 22 15 31c28 34 85 52 129 52c33 0 67 -8 86 -33c4 -6 14 -22 14 -43c0 -12 -3 -23 -10 -34c-16 -24 -62 -60 -137 -60c-13 0 -67 0 -89 41
c-4 6 -12 25 -8 46z" />
    <glyph glyph-name="Acircumflex" unicode="&#xc2;" horiz-adv-x="729" 
d="M115 253c21 53 42 106 62 159c13 33 25 65 37 98c8 27 15 53 15 80c0 11 0 15 -2 26c-1 10 -4 20 -4 30s2 17 8 25c20 28 64 39 95 39s54 -10 64 -15c44 -23 63 -65 81 -107c23 -56 45 -113 66 -171c16 -42 31 -86 47 -128c13 -34 28 -67 42 -101c26 -58 37 -58 70 -79
c19 -11 31 -23 31 -47c0 -8 -2 -22 -14 -36c-24 -29 -68 -28 -106 -30c-23 0 -45 -1 -68 -1c-30 0 -59 1 -89 4c-2 0 -34 2 -51 10c-18 9 -31 31 -31 51c0 23 16 35 22 39c4 3 19 12 19 30c0 20 -29 25 -30 25c-18 4 -37 4 -74 6c-42 0 -64 0 -81 -12c-9 -6 -11 -15 -11 -19
s2 -16 12 -23c5 -4 14 -6 23 -17c4 -5 11 -13 11 -30s-7 -44 -44 -54c-22 -6 -62 -8 -83 -8c-1 0 -68 0 -99 14c-20 9 -35 26 -35 49c0 32 24 48 32 53c17 11 22 14 29 22c5 7 9 16 18 32c5 11 11 22 16 33c8 17 15 35 22 53zM311 275c15 0 35 -1 49 9c6 4 7 9 7 12
c0 6 -6 19 -11 34c-3 7 -5 14 -8 21c-4 8 -9 17 -13 25c-1 2 -7 17 -15 25c-4 3 -7 4 -9 4s-7 -2 -13 -9c-10 -14 -14 -25 -25 -55c-4 -13 -11 -27 -11 -39c0 -7 2 -11 3 -13c10 -15 27 -15 46 -14zM171 794c2 5 7 11 8 11c12 15 58 58 113 89c5 3 32 20 55 20
c6 0 15 -1 27 -7c21 -8 74 -44 90 -56c41 -31 63 -59 62 -81c0 -9 -5 -37 -35 -37c-25 0 -46 14 -67 23c-11 5 -22 10 -33 16c-15 8 -28 14 -43 14c-14 0 -25 -5 -51 -17c-13 -6 -24 -12 -36 -18c-15 -7 -30 -16 -47 -16c-25 0 -46 17 -46 42c0 8 2 14 3 17z" />
    <glyph glyph-name="Ecircumflex" unicode="&#xca;" horiz-adv-x="604" 
d="M174 0l-120 -3c-23 1 -38 2 -48 21c-2 3 -6 14 -6 26c0 10 3 32 24 48c17 13 25 16 31 36c14 49 16 159 18 211c-2 45 -3 89 -3 133c-1 44 -5 73 -13 91c-9 22 -21 20 -39 34c-6 4 -19 18 -19 42c0 6 1 18 10 31c15 22 39 25 66 27c33 0 66 0 98 -1c34 -1 68 -2 102 -2
c55 0 110 5 164 10c12 2 18 4 30 4c11 0 24 -3 44 -20c46 -39 51 -99 51 -121c0 -24 -6 -44 -26 -58c-9 -7 -19 -10 -32 -10c-5 0 -18 1 -29 8c-17 12 -28 36 -44 49c-14 11 -37 20 -80 20c-7 0 -14 0 -21 -1c-36 -2 -45 -6 -46 -63c0 -45 2 -80 15 -92c8 -8 20 -8 24 -8
c13 0 20 5 23 8c17 17 13 44 21 62c6 13 19 19 34 19c27 0 44 -26 51 -50c5 -15 15 -60 15 -108c0 -28 -5 -80 -20 -104c-4 -7 -19 -27 -45 -26c-10 0 -27 3 -36 27c-6 16 -3 31 -11 45c-6 10 -19 18 -32 18c-4 0 -13 -1 -21 -7c-15 -10 -15 -24 -15 -59c1 -18 3 -36 4 -55
c0 -4 1 -23 7 -35c9 -18 26 -22 43 -22c34 0 85 5 113 25c6 5 11 11 13 13c22 28 29 62 70 62c23 0 58 -14 58 -67c0 -24 -7 -64 -31 -109c-2 -4 -15 -30 -34 -43c-16 -11 -34 -10 -55 -8c-38 4 -77 6 -116 6c-62 0 -125 -2 -187 -4zM239 769l-36 -18
c-14 -7 -29 -16 -46 -16c-26 0 -46 17 -46 42c0 8 2 14 3 17c2 5 7 11 8 11c12 15 58 58 112 89c6 3 33 20 56 20c6 0 15 -1 27 -7c20 -8 74 -44 90 -56c41 -31 62 -59 62 -81c0 -9 -5 -37 -36 -37c-24 0 -45 14 -66 23c-11 5 -22 10 -34 16c-14 8 -27 14 -42 14
s-25 -5 -52 -17z" />
    <glyph glyph-name="Aacute" unicode="&#xc1;" horiz-adv-x="729" 
d="M115 253c21 53 42 106 62 159c13 33 25 65 37 98c8 27 15 53 15 80c0 11 0 15 -2 26c-1 10 -4 20 -4 30s2 17 8 25c20 28 64 39 95 39s54 -10 64 -15c44 -23 63 -65 81 -107c23 -56 45 -113 66 -171c16 -42 31 -86 47 -128c13 -34 28 -67 42 -101c26 -58 37 -58 70 -79
c19 -11 31 -23 31 -47c0 -8 -2 -22 -14 -36c-24 -29 -68 -28 -106 -30c-23 0 -45 -1 -68 -1c-30 0 -59 1 -89 4c-2 0 -34 2 -51 10c-18 9 -31 31 -31 51c0 23 16 35 22 39c4 3 19 12 19 30c0 20 -29 25 -30 25c-18 4 -37 4 -74 6c-42 0 -64 0 -81 -12c-9 -6 -11 -15 -11 -19
s2 -16 12 -23c5 -4 14 -6 23 -17c4 -5 11 -13 11 -30s-7 -44 -44 -54c-22 -6 -62 -8 -83 -8c-1 0 -68 0 -99 14c-20 9 -35 26 -35 49c0 32 24 48 32 53c17 11 22 14 29 22c5 7 9 16 18 32c5 11 11 22 16 33c8 17 15 35 22 53zM311 275c15 0 35 -1 49 9c6 4 7 9 7 12
c0 6 -6 19 -11 34c-3 7 -5 14 -8 21c-4 8 -9 17 -13 25c-1 2 -7 17 -15 25c-4 3 -7 4 -9 4s-7 -2 -13 -9c-10 -14 -14 -25 -25 -55c-4 -13 -11 -27 -11 -39c0 -7 2 -11 3 -13c10 -15 27 -15 46 -14zM242 794c9 16 33 33 36 35c4 3 21 14 21 29c0 9 -9 19 -8 28
c0 6 6 11 7 13c23 18 69 17 94 17c27 0 60 -1 84 -17c13 -9 15 -18 15 -24c0 -20 -21 -45 -22 -46c-39 -49 -118 -96 -181 -96c-4 0 -12 0 -21 3c-17 6 -30 21 -30 37c0 4 1 12 5 21z" />
    <glyph glyph-name="Edieresis" unicode="&#xcb;" horiz-adv-x="604" 
d="M174 0l-120 -3c-23 1 -38 2 -48 21c-2 3 -6 14 -6 26c0 10 3 32 24 48c17 13 25 16 31 36c14 49 16 159 18 211c-2 45 -3 89 -3 133c-1 44 -5 73 -13 91c-9 22 -21 20 -39 34c-6 4 -19 18 -19 42c0 6 1 18 10 31c15 22 39 25 66 27c33 0 66 0 98 -1c34 -1 68 -2 102 -2
c55 0 110 5 164 10c12 2 18 4 30 4c11 0 24 -3 44 -20c46 -39 51 -99 51 -121c0 -24 -6 -44 -26 -58c-9 -7 -19 -10 -32 -10c-5 0 -18 1 -29 8c-17 12 -28 36 -44 49c-14 11 -37 20 -80 20c-7 0 -14 0 -21 -1c-36 -2 -45 -6 -46 -63c0 -45 2 -80 15 -92c8 -8 20 -8 24 -8
c13 0 20 5 23 8c17 17 13 44 21 62c6 13 19 19 34 19c27 0 44 -26 51 -50c5 -15 15 -60 15 -108c0 -28 -5 -80 -20 -104c-4 -7 -19 -27 -45 -26c-10 0 -27 3 -36 27c-6 16 -3 31 -11 45c-6 10 -19 18 -32 18c-4 0 -13 -1 -21 -7c-15 -10 -15 -24 -15 -59c1 -18 3 -36 4 -55
c0 -4 1 -23 7 -35c9 -18 26 -22 43 -22c34 0 85 5 113 25c6 5 11 11 13 13c22 28 29 62 70 62c23 0 58 -14 58 -67c0 -24 -7 -64 -31 -109c-2 -4 -15 -30 -34 -43c-16 -11 -34 -10 -55 -8c-38 4 -77 6 -116 6c-62 0 -125 -2 -187 -4zM45 822c4 18 18 37 32 48
c13 10 56 34 111 34c75 0 102 -40 102 -73c0 -27 -21 -53 -45 -68c-13 -8 -54 -27 -104 -27c-15 0 -68 0 -90 44c-9 18 -8 34 -6 42zM323 821c2 11 8 22 15 31c28 34 86 52 130 52c32 0 66 -8 85 -33c5 -6 15 -22 15 -43c0 -12 -3 -23 -10 -34c-16 -24 -63 -60 -137 -60
c-13 0 -67 0 -90 41c-4 6 -12 25 -8 46z" />
    <glyph glyph-name="Egrave" unicode="&#xc8;" horiz-adv-x="604" 
d="M174 0l-120 -3c-23 1 -38 2 -48 21c-2 3 -6 14 -6 26c0 10 3 32 24 48c17 13 25 16 31 36c14 49 16 159 18 211c-2 45 -3 89 -3 133c-1 44 -5 73 -13 91c-9 22 -21 20 -39 34c-6 4 -19 18 -19 42c0 6 1 18 10 31c15 22 39 25 66 27c33 0 66 0 98 -1c34 -1 68 -2 102 -2
c55 0 110 5 164 10c12 2 18 4 30 4c11 0 24 -3 44 -20c46 -39 51 -99 51 -121c0 -24 -6 -44 -26 -58c-9 -7 -19 -10 -32 -10c-5 0 -18 1 -29 8c-17 12 -28 36 -44 49c-14 11 -37 20 -80 20c-7 0 -14 0 -21 -1c-36 -2 -45 -6 -46 -63c0 -45 2 -80 15 -92c8 -8 20 -8 24 -8
c13 0 20 5 23 8c17 17 13 44 21 62c6 13 19 19 34 19c27 0 44 -26 51 -50c5 -15 15 -60 15 -108c0 -28 -5 -80 -20 -104c-4 -7 -19 -27 -45 -26c-10 0 -27 3 -36 27c-6 16 -3 31 -11 45c-6 10 -19 18 -32 18c-4 0 -13 -1 -21 -7c-15 -10 -15 -24 -15 -59c1 -18 3 -36 4 -55
c0 -4 1 -23 7 -35c9 -18 26 -22 43 -22c34 0 85 5 113 25c6 5 11 11 13 13c22 28 29 62 70 62c23 0 58 -14 58 -67c0 -24 -7 -64 -31 -109c-2 -4 -15 -30 -34 -43c-16 -11 -34 -10 -55 -8c-38 4 -77 6 -116 6c-62 0 -125 -2 -187 -4zM169 894c16 20 70 24 95 24
c35 0 72 -9 79 -12c14 -6 19 -16 19 -22c0 -8 -7 -16 -7 -25c0 -15 11 -21 23 -30c15 -12 39 -35 39 -54c-1 -29 -29 -41 -54 -41c-14 0 -24 2 -37 6c-45 12 -76 30 -112 61c-32 27 -52 55 -52 73c0 3 0 12 7 20z" />
    <glyph glyph-name="Iacute" unicode="&#xcd;" horiz-adv-x="375" 
d="M298 431v-208c0 -18 1 -36 1 -53c1 -18 3 -34 17 -47c7 -7 17 -10 25 -16c14 -13 15 -29 15 -36c0 -23 -16 -56 -69 -65c-22 -4 -102 -10 -125 -10c-26 0 -53 4 -79 5c-10 1 -32 2 -51 23c-13 14 -14 29 -14 36c0 5 1 20 12 31s18 12 26 25c13 18 11 49 12 71
c1 12 1 24 2 36v230c-1 21 -2 43 -3 64c0 28 -3 46 -23 63c-7 6 -14 11 -20 17c-4 5 -11 13 -11 29c0 7 2 22 13 35c31 38 115 36 156 36c64 0 104 0 130 -9c40 -12 50 -38 50 -56c0 -21 -18 -36 -23 -40c-15 -13 -30 -21 -33 -40c-1 -6 -6 -62 -6 -68c-1 -17 -2 -35 -2 -53
zM76 794c8 16 33 33 36 35c3 3 20 14 20 29c0 9 -8 19 -8 28c0 6 6 11 8 13c22 18 68 17 93 17c27 0 60 -1 85 -17c13 -9 15 -18 15 -24c0 -20 -22 -45 -23 -46c-39 -49 -118 -96 -181 -96c-4 0 -12 0 -21 3c-17 6 -30 21 -30 37c0 4 1 12 6 21z" />
    <glyph glyph-name="Icircumflex" unicode="&#xce;" horiz-adv-x="375" 
d="M298 431v-208c0 -18 1 -36 1 -53c1 -18 3 -34 17 -47c7 -7 17 -10 25 -16c14 -13 15 -29 15 -36c0 -23 -16 -56 -69 -65c-22 -4 -102 -10 -125 -10c-26 0 -53 4 -79 5c-10 1 -32 2 -51 23c-13 14 -14 29 -14 36c0 5 1 20 12 31s18 12 26 25c13 18 11 49 12 71
c1 12 1 24 2 36v230c-1 21 -2 43 -3 64c0 28 -3 46 -23 63c-7 6 -14 11 -20 17c-4 5 -11 13 -11 29c0 7 2 22 13 35c31 38 115 36 156 36c64 0 104 0 130 -9c40 -12 50 -38 50 -56c0 -21 -18 -36 -23 -40c-15 -13 -30 -21 -33 -40c-1 -6 -6 -62 -6 -68c-1 -17 -2 -35 -2 -53
zM135 769l-36 -18c-14 -7 -30 -16 -46 -16c-26 0 -47 17 -47 42c1 8 3 14 4 17c2 5 7 11 7 11c13 15 59 58 113 89c6 3 32 20 56 20c6 0 15 -1 27 -7c20 -8 73 -44 90 -56c41 -31 62 -59 61 -81c0 -9 -5 -37 -35 -37c-24 0 -45 14 -66 23c-11 5 -22 10 -34 16
c-14 8 -27 14 -43 14c-14 0 -25 -5 -51 -17z" />
    <glyph glyph-name="Idieresis" unicode="&#xcf;" horiz-adv-x="375" 
d="M298 431v-208c0 -18 1 -36 1 -53c1 -18 3 -34 17 -47c7 -7 17 -10 25 -16c14 -13 15 -29 15 -36c0 -23 -16 -56 -69 -65c-22 -4 -102 -10 -125 -10c-26 0 -53 4 -79 5c-10 1 -32 2 -51 23c-13 14 -14 29 -14 36c0 5 1 20 12 31s18 12 26 25c13 18 11 49 12 71
c1 12 1 24 2 36v230c-1 21 -2 43 -3 64c0 28 -3 46 -23 63c-7 6 -14 11 -20 17c-4 5 -11 13 -11 29c0 7 2 22 13 35c31 38 115 36 156 36c64 0 104 0 130 -9c40 -12 50 -38 50 -56c0 -21 -18 -36 -23 -40c-15 -13 -30 -21 -33 -40c-1 -6 -6 -62 -6 -68c-1 -17 -2 -35 -2 -53
zM-70 822c4 18 18 37 33 48c13 10 56 34 110 34c75 0 103 -40 103 -73c0 -27 -22 -53 -46 -68c-12 -8 -53 -27 -104 -27c-14 0 -68 0 -90 44c-9 18 -7 34 -6 42zM208 821c3 11 9 22 16 31c28 34 85 52 129 52c33 0 66 -8 86 -33c4 -6 14 -22 14 -43c0 -12 -3 -23 -10 -34
c-16 -24 -62 -60 -137 -60c-13 0 -67 0 -90 41c-3 6 -12 25 -8 46z" />
    <glyph glyph-name="Igrave" unicode="&#xcc;" horiz-adv-x="375" 
d="M298 431v-208c0 -18 1 -36 1 -53c1 -18 3 -34 17 -47c7 -7 17 -10 25 -16c14 -13 15 -29 15 -36c0 -23 -16 -56 -69 -65c-22 -4 -102 -10 -125 -10c-26 0 -53 4 -79 5c-10 1 -32 2 -51 23c-13 14 -14 29 -14 36c0 5 1 20 12 31s18 12 26 25c13 18 11 49 12 71
c1 12 1 24 2 36v230c-1 21 -2 43 -3 64c0 28 -3 46 -23 63c-7 6 -14 11 -20 17c-4 5 -11 13 -11 29c0 7 2 22 13 35c31 38 115 36 156 36c64 0 104 0 130 -9c40 -12 50 -38 50 -56c0 -21 -18 -36 -23 -40c-15 -13 -30 -21 -33 -40c-1 -6 -6 -62 -6 -68c-1 -17 -2 -35 -2 -53
zM54 894c17 20 71 24 95 24c35 0 72 -9 79 -12c15 -6 20 -16 20 -22c-1 -8 -8 -16 -8 -25c0 -15 12 -21 24 -30c15 -12 38 -35 38 -54c0 -29 -29 -41 -53 -41c-15 0 -25 2 -38 6c-45 12 -76 30 -112 61c-32 27 -52 55 -52 73c0 3 1 12 7 20z" />
    <glyph glyph-name="Oacute" unicode="&#xd3;" horiz-adv-x="688" 
d="M13 370c2 43 11 106 65 190c22 35 39 53 52 65c55 51 144 82 218 82c115 0 194 -69 221 -97c37 -37 97 -117 97 -253c0 -10 -1 -45 -6 -78c-13 -84 -46 -153 -113 -212c-58 -52 -125 -79 -204 -79c-86 0 -145 33 -172 51c-32 21 -55 47 -64 57c-65 76 -99 177 -94 274z
M255 462c4 -123 13 -154 32 -219c11 -40 16 -54 28 -73c3 -5 23 -38 55 -38c28 0 40 28 43 34c5 13 11 43 11 82c0 12 -1 41 -5 74c-3 18 -20 124 -58 198c-4 7 -21 45 -57 45c-15 0 -24 -9 -28 -13c-24 -24 -23 -59 -21 -90zM232 794c9 16 33 33 36 35c4 3 20 14 20 29
c0 9 -8 19 -8 28c0 6 7 11 8 13c22 18 69 17 93 17c27 0 60 -1 85 -17c13 -9 15 -18 15 -24c0 -20 -21 -45 -22 -46c-39 -49 -119 -96 -182 -96c-4 0 -12 0 -21 3c-17 6 -29 21 -29 37c0 4 0 12 5 21z" />
    <glyph glyph-name="Ocircumflex" unicode="&#xd4;" horiz-adv-x="688" 
d="M13 370c2 43 11 106 65 190c22 35 39 53 52 65c55 51 144 82 218 82c115 0 194 -69 221 -97c37 -37 97 -117 97 -253c0 -10 -1 -45 -6 -78c-13 -84 -46 -153 -113 -212c-58 -52 -125 -79 -204 -79c-86 0 -145 33 -172 51c-32 21 -55 47 -64 57c-65 76 -99 177 -94 274z
M255 462c4 -123 13 -154 32 -219c11 -40 16 -54 28 -73c3 -5 23 -38 55 -38c28 0 40 28 43 34c5 13 11 43 11 82c0 12 -1 41 -5 74c-3 18 -20 124 -58 198c-4 7 -21 45 -57 45c-15 0 -24 -9 -28 -13c-24 -24 -23 -59 -21 -90zM291 769l-36 -18c-14 -7 -29 -16 -46 -16
c-26 0 -46 17 -46 42c0 8 2 14 3 17c2 5 7 11 8 11c12 15 58 58 112 89c6 3 33 20 56 20c6 0 15 -1 27 -7c21 -8 74 -44 90 -56c41 -31 62 -59 62 -81c0 -9 -5 -37 -36 -37c-24 0 -45 14 -66 23c-11 5 -22 10 -33 16c-15 8 -28 14 -43 14s-25 -5 -52 -17z" />
    <glyph glyph-name="Ograve" unicode="&#xd2;" horiz-adv-x="688" 
d="M13 370c2 43 11 106 65 190c22 35 39 53 52 65c55 51 144 82 218 82c115 0 194 -69 221 -97c37 -37 97 -117 97 -253c0 -10 -1 -45 -6 -78c-13 -84 -46 -153 -113 -212c-58 -52 -125 -79 -204 -79c-86 0 -145 33 -172 51c-32 21 -55 47 -64 57c-65 76 -99 177 -94 274z
M255 462c4 -123 13 -154 32 -219c11 -40 16 -54 28 -73c3 -5 23 -38 55 -38c28 0 40 28 43 34c5 13 11 43 11 82c0 12 -1 41 -5 74c-3 18 -20 124 -58 198c-4 7 -21 45 -57 45c-15 0 -24 -9 -28 -13c-24 -24 -23 -59 -21 -90zM210 894c17 20 71 24 96 24c35 0 71 -9 79 -12
c14 -6 19 -16 19 -22c0 -8 -8 -16 -8 -25c1 -15 12 -21 24 -30c15 -12 38 -35 38 -54c0 -29 -28 -41 -53 -41c-14 0 -24 2 -38 6c-45 12 -75 30 -112 61c-31 27 -52 55 -52 73c0 3 1 12 7 20z" />
    <glyph glyph-name="Uacute" unicode="&#xda;" horiz-adv-x="708" 
d="M281 507v-159l5 -93c3 -22 4 -28 7 -41c20 -62 77 -66 98 -66c28 0 47 9 56 14c34 22 40 58 46 97l3 87v99c-2 56 -2 95 -12 116c-8 16 -19 16 -32 27c-17 15 -19 32 -19 42c0 42 46 58 80 64c24 4 51 3 59 3c31 0 65 2 93 -10c10 -4 36 -16 36 -50c0 -9 -2 -18 -6 -26
c-9 -15 -26 -24 -37 -37c-14 -18 -14 -48 -14 -53l-6 -147v-134c-1 -12 -1 -24 -2 -35c-1 -28 -6 -93 -61 -147c-60 -59 -137 -70 -218 -70c-82 0 -177 17 -237 75c-19 19 -34 42 -44 67c-14 34 -14 77 -15 86v262c-1 14 -1 27 -2 41s-2 27 -10 37c-6 8 -16 15 -26 22
c-7 5 -27 20 -27 47c0 5 1 17 9 30c24 37 84 41 177 41c58 0 88 -1 113 -11c38 -14 45 -41 45 -59c0 -23 -12 -34 -30 -47c0 0 -15 -9 -19 -16c-8 -10 -8 -27 -10 -56zM242 794c9 16 33 33 36 35c4 3 21 14 21 29c0 9 -9 19 -8 28c0 6 6 11 7 13c23 18 69 17 94 17
c27 0 60 -1 84 -17c13 -9 15 -18 15 -24c0 -20 -21 -45 -22 -46c-39 -49 -118 -96 -181 -96c-4 0 -12 0 -21 3c-17 6 -30 21 -30 37c0 4 1 12 5 21z" />
    <glyph glyph-name="Ucircumflex" unicode="&#xdb;" horiz-adv-x="708" 
d="M281 507v-159l5 -93c3 -22 4 -28 7 -41c20 -62 77 -66 98 -66c28 0 47 9 56 14c34 22 40 58 46 97l3 87v99c-2 56 -2 95 -12 116c-8 16 -19 16 -32 27c-17 15 -19 32 -19 42c0 42 46 58 80 64c24 4 51 3 59 3c31 0 65 2 93 -10c10 -4 36 -16 36 -50c0 -9 -2 -18 -6 -26
c-9 -15 -26 -24 -37 -37c-14 -18 -14 -48 -14 -53l-6 -147v-134c-1 -12 -1 -24 -2 -35c-1 -28 -6 -93 -61 -147c-60 -59 -137 -70 -218 -70c-82 0 -177 17 -237 75c-19 19 -34 42 -44 67c-14 34 -14 77 -15 86v262c-1 14 -1 27 -2 41s-2 27 -10 37c-6 8 -16 15 -26 22
c-7 5 -27 20 -27 47c0 5 1 17 9 30c24 37 84 41 177 41c58 0 88 -1 113 -11c38 -14 45 -41 45 -59c0 -23 -12 -34 -30 -47c0 0 -15 -9 -19 -16c-8 -10 -8 -27 -10 -56zM302 769l-36 -18c-14 -7 -30 -16 -47 -16c-25 0 -46 17 -46 42c0 8 2 14 3 17c3 5 8 11 8 11
c13 15 59 58 113 89c6 3 32 20 56 20c6 0 14 -1 27 -7c20 -8 73 -44 90 -56c40 -31 62 -59 61 -81c0 -9 -5 -37 -35 -37c-24 0 -45 14 -66 23c-11 5 -23 10 -34 16c-15 8 -28 14 -43 14c-14 0 -25 -5 -51 -17z" />
    <glyph glyph-name="Ugrave" unicode="&#xd9;" horiz-adv-x="708" 
d="M281 507v-159l5 -93c3 -22 4 -28 7 -41c20 -62 77 -66 98 -66c28 0 47 9 56 14c34 22 40 58 46 97l3 87v99c-2 56 -2 95 -12 116c-8 16 -19 16 -32 27c-17 15 -19 32 -19 42c0 42 46 58 80 64c24 4 51 3 59 3c31 0 65 2 93 -10c10 -4 36 -16 36 -50c0 -9 -2 -18 -6 -26
c-9 -15 -26 -24 -37 -37c-14 -18 -14 -48 -14 -53l-6 -147v-134c-1 -12 -1 -24 -2 -35c-1 -28 -6 -93 -61 -147c-60 -59 -137 -70 -218 -70c-82 0 -177 17 -237 75c-19 19 -34 42 -44 67c-14 34 -14 77 -15 86v262c-1 14 -1 27 -2 41s-2 27 -10 37c-6 8 -16 15 -26 22
c-7 5 -27 20 -27 47c0 5 1 17 9 30c24 37 84 41 177 41c58 0 88 -1 113 -11c38 -14 45 -41 45 -59c0 -23 -12 -34 -30 -47c0 0 -15 -9 -19 -16c-8 -10 -8 -27 -10 -56zM221 894c16 20 70 24 95 24c35 0 72 -9 79 -12c15 -6 19 -16 19 -22c0 -8 -7 -16 -7 -25
c0 -15 12 -21 23 -30c15 -12 39 -35 39 -54c0 -29 -29 -41 -54 -41c-14 0 -24 2 -37 6c-45 12 -76 30 -112 61c-32 27 -52 55 -52 73c0 3 1 12 7 20z" />
    </font>
</defs>
</svg>
